M48
METRIC,LZ,000.000
;FILE_FORMAT=3:3
;TYPE=PLATED
;Layer: PTH_Through
;EasyEDA v6.5.23, 2023-06-26 13:38:55
;b532a6b097934e50b7b064742ede95bb,94392a2f1ed042d08b1874281cec1d10,10
;Gerber Generator version 0.2
;Holesize 1 = 0.901 mm
T01C0.901
;Holesize 2 = 1.000 mm
T02C1.000
;Holesize 3 = 1.200 mm
T03C1.200
;Holesize 4 = 3.302 mm
T04C3.302
%
G05
G90
T01
X094527Y025612G85X094527Y027712
X088777Y023163G85X090977Y023163
X090977Y029163G85X088777Y029163
T02
X034925Y063627
X037465Y063627
X040005Y063627
X042545Y063627
X045085Y063627
X047625Y063627
X050165Y063627
X052705Y063627
X055245Y063627
X057785Y063627
X060325Y063627
X062865Y063627
X065405Y063627
X067945Y063627
X070485Y063627
X037465Y038227
X040005Y038227
X042545Y038227
X045085Y038227
X047625Y038227
X050165Y038227
X052705Y038227
X055245Y038227
X057785Y038227
X060325Y038227
X062865Y038227
X065405Y038227
X067945Y038227
X070485Y038227
X034925Y038227
X073025Y063627
X075565Y063627
X032385Y063627
X032385Y038227
X073025Y038227
X075565Y038227
X078105Y063627
X078105Y038227
X108966Y030988
X107696Y028448
X106426Y030988
X105156Y028448
X103886Y030988
X102616Y028448
X101346Y030988
X100076Y028448
X126238Y030988
X124968Y028448
X123698Y030988
X122428Y028448
X121158Y030988
X119888Y028448
X118618Y030988
X117348Y028448
T03
X081741Y029911
X079451Y029911
X070311Y029911
X068021Y029911
X071311Y025091
X072331Y023311
X073351Y025091
X074371Y023311
X075391Y025091
X076411Y023311
X077431Y025091
X078451Y023311
X065941Y029911
X063651Y029911
X054511Y029911
X052221Y029911
X055511Y025091
X056531Y023311
X057551Y025091
X058571Y023311
X059591Y025091
X060611Y023311
X061631Y025091
X062651Y023311
X050141Y029911
X047851Y029911
X038711Y029911
X036421Y029911
X039711Y025091
X040731Y023311
X041751Y025091
X042771Y023311
X043791Y025091
X044811Y023311
X045831Y025091
X046851Y023311
X020621Y029911
X022911Y029911
X032051Y029911
X034341Y029911
X023911Y025091
X024931Y023311
X025951Y025091
X026971Y023311
X027991Y025091
X029011Y023311
X030031Y025091
X031051Y023311
T04
X132969Y062357
X014859Y062357
X014859Y018669
X132842Y018669
M30
