G04 Layer: TopLayer*
G04 EasyEDA v6.5.23, 2023-06-26 13:38:55*
G04 b532a6b097934e50b7b064742ede95bb,94392a2f1ed042d08b1874281cec1d10,10*
G04 Gerber Generator version 0.2*
G04 Scale: 100 percent, Rotated: No, Reflected: No *
G04 Dimensions in millimeters *
G04 leading zeros omitted , absolute positions ,4 integer and 5 decimal *
%FSLAX45Y45*%
%MOMM*%

%ADD10C,1.5000*%
%ADD11C,0.2540*%
%ADD12O,1.499997X3.6999926000000003*%
%ADD13O,3.7999924X1.499997*%
%ADD14C,1.7000*%
%ADD15R,1.7000X1.7000*%
%ADD16C,1.8000*%
%ADD17C,1.6000*%
%ADD18C,6.0000*%

%LPD*%
D10*
X6527800Y1866900D02*
G01*
X6731000Y1663700D01*
X8318500Y1663700D01*
X8521700Y1866900D01*
X8521700Y2387600D01*
X8318500Y2590800D01*
X7824800Y2590800D01*
X7743088Y2509088D01*
D11*
X4508500Y6362700D02*
G01*
X4508500Y6172200D01*
X4165600Y5829300D01*
X2628900Y5829300D01*
X1778000Y4978400D01*
X1778000Y2044700D01*
X2019300Y1803400D01*
X2527300Y1803400D01*
X2692400Y1968500D01*
X2692400Y2326386D01*
X2697225Y2330957D01*
X5524474Y6362700D02*
G01*
X5524474Y6464274D01*
X5575300Y6515100D01*
X11963400Y6515100D01*
X12369800Y6108700D01*
X12369800Y3098800D01*
D10*
X7810474Y3822700D02*
G01*
X8496300Y3822700D01*
X8987663Y3331337D01*
X8987663Y2916173D01*
X10134600Y3225800D02*
G01*
X10134600Y3238500D01*
X10248900Y3352800D01*
X11760200Y3352800D01*
X11861800Y3251200D01*
X11861800Y3098800D01*
X10134600Y3098800D02*
G01*
X10134600Y3225800D01*
X10007600Y3352800D01*
X8987663Y3352800D01*
D11*
X4073143Y2330957D02*
G01*
X3917441Y2330957D01*
X3822700Y2425700D01*
X3822700Y2641600D01*
X3632200Y2832100D01*
X3111500Y2832100D01*
X2806700Y3136900D01*
X2806700Y4889500D01*
X3289300Y5372100D01*
X5791200Y5372100D01*
X6286500Y5867400D01*
X6286500Y6362700D01*
X6032500Y6362700D02*
G01*
X6032500Y5892800D01*
X5702300Y5562600D01*
X3175000Y5562600D01*
X2730500Y5118100D01*
X2730500Y3035300D01*
X2984500Y2781300D01*
X3390900Y2781300D01*
X3721100Y2451100D01*
X3721100Y2171700D01*
X3822700Y2070100D01*
X4152900Y2070100D01*
X4267200Y2184400D01*
X4267200Y2321305D01*
X4277106Y2330957D01*
X2493009Y2330957D02*
G01*
X2126741Y2330957D01*
X1879600Y2578100D01*
X1879600Y4787900D01*
X2768600Y5676900D01*
X4699000Y5676900D01*
X5016500Y5994400D01*
X5016500Y6362700D01*
D10*
X3003041Y2509012D02*
G01*
X3072129Y2578100D01*
X3263900Y2578100D01*
X3505200Y2336800D01*
X3505200Y1917700D01*
X3759200Y1663700D01*
X4813300Y1663700D01*
X5029200Y1879600D01*
X5029200Y2413000D01*
X4876800Y2565400D01*
X4639309Y2565400D01*
X4583175Y2509012D01*
X8987663Y2916173D02*
G01*
X8643874Y2916173D01*
X8318500Y2590800D01*
D11*
X6286474Y3822700D02*
G01*
X6286474Y3467125D01*
X6464300Y3289300D01*
X7048500Y3289300D01*
X7264400Y3073400D01*
X7264400Y2921000D01*
X7137400Y2794000D01*
X7010400Y2794000D01*
X6845300Y2628900D01*
X6845300Y2222500D01*
X7035800Y2032000D01*
X7327900Y2032000D01*
X7442200Y2146300D01*
X7442200Y2325979D01*
X7437094Y2331085D01*
X7233158Y2330957D02*
G01*
X7054341Y2330957D01*
X6959600Y2425700D01*
X6959600Y2590800D01*
X7073900Y2705100D01*
X7239000Y2705100D01*
X7404100Y2870200D01*
X7404100Y3225800D01*
X7188200Y3441700D01*
X6959600Y3441700D01*
X6794500Y3606800D01*
X6794500Y3822700D01*
X5653024Y2330957D02*
G01*
X5454141Y2330957D01*
X5359400Y2425700D01*
X5359400Y2552700D01*
X5511800Y2705100D01*
X5575300Y2705100D01*
X5778500Y2908300D01*
X5778500Y3352800D01*
X5524500Y3606800D01*
X5524500Y3822700D01*
D10*
X5029200Y1879600D02*
G01*
X5245100Y1663700D01*
X6324600Y1663700D01*
X6527800Y1866900D01*
X6527800Y2451100D01*
X6400800Y2578100D01*
X6232118Y2578100D01*
X6163106Y2509088D01*
D11*
X5270474Y3822700D02*
G01*
X5270474Y3530625D01*
X5600700Y3200400D01*
X5600700Y2895600D01*
X5499100Y2794000D01*
X5435600Y2794000D01*
X5270500Y2628900D01*
X5270500Y2184400D01*
X5372100Y2082800D01*
X5727700Y2082800D01*
X5867400Y2222500D01*
X5867400Y2320772D01*
X5857087Y2331085D01*
D12*
G01*
X9452736Y2666237D03*
D13*
G01*
X8987663Y2316226D03*
G01*
X8987663Y2916173D03*
D14*
G01*
X3492474Y6362700D03*
G01*
X3746474Y6362700D03*
G01*
X4000474Y6362700D03*
G01*
X4254474Y6362700D03*
G01*
X4508474Y6362700D03*
G01*
X4762474Y6362700D03*
G01*
X5016474Y6362700D03*
G01*
X5270474Y6362700D03*
G01*
X5524474Y6362700D03*
G01*
X5778474Y6362700D03*
G01*
X6032474Y6362700D03*
G01*
X6286474Y6362700D03*
G01*
X6540474Y6362700D03*
G01*
X6794474Y6362700D03*
G01*
X7048474Y6362700D03*
G01*
X3746474Y3822700D03*
G01*
X4000474Y3822700D03*
G01*
X4254474Y3822700D03*
G01*
X4508474Y3822700D03*
G01*
X4762474Y3822700D03*
G01*
X5016474Y3822700D03*
G01*
X5270474Y3822700D03*
G01*
X5524474Y3822700D03*
G01*
X5778474Y3822700D03*
G01*
X6032474Y3822700D03*
G01*
X6286474Y3822700D03*
G01*
X6540474Y3822700D03*
G01*
X6794474Y3822700D03*
G01*
X7048474Y3822700D03*
G01*
X3492474Y3822700D03*
G01*
X7302474Y6362700D03*
G01*
X7556474Y6362700D03*
D15*
G01*
X3238500Y6362674D03*
G01*
X3238500Y3822674D03*
D14*
G01*
X7302474Y3822700D03*
G01*
X7556474Y3822700D03*
G01*
X7810474Y6362700D03*
G01*
X7810474Y3822700D03*
D16*
G01*
X8174100Y2991078D03*
G01*
X7945094Y2991078D03*
G01*
X7031100Y2991078D03*
G01*
X6802094Y2991078D03*
G01*
X7131100Y2509088D03*
G01*
X7233107Y2331085D03*
G01*
X7335088Y2509088D03*
G01*
X7437094Y2331085D03*
G01*
X7539100Y2509088D03*
G01*
X7641107Y2331085D03*
G01*
X7743088Y2509088D03*
G01*
X7845094Y2331085D03*
G01*
X6594093Y2991078D03*
G01*
X6365087Y2991078D03*
G01*
X5451093Y2991078D03*
G01*
X5222113Y2991078D03*
G01*
X5551093Y2509088D03*
G01*
X5653100Y2331085D03*
G01*
X5755106Y2509088D03*
G01*
X5857087Y2331085D03*
G01*
X5959093Y2509088D03*
G01*
X6061100Y2331085D03*
G01*
X6163106Y2509088D03*
G01*
X6265087Y2331085D03*
G01*
X5014112Y2991078D03*
G01*
X4785106Y2991078D03*
G01*
X3871112Y2991078D03*
G01*
X3642106Y2991078D03*
G01*
X3971112Y2509088D03*
G01*
X4073093Y2331085D03*
G01*
X4175099Y2509088D03*
G01*
X4277106Y2331085D03*
G01*
X4379112Y2509088D03*
G01*
X4481093Y2331085D03*
G01*
X4583099Y2509088D03*
G01*
X4685106Y2331085D03*
G01*
X2062099Y2991078D03*
G01*
X2291105Y2991078D03*
G01*
X3205099Y2991078D03*
G01*
X3434105Y2991078D03*
G01*
X2391105Y2509088D03*
G01*
X2493111Y2331085D03*
G01*
X2595118Y2509088D03*
G01*
X2697099Y2331085D03*
G01*
X2799105Y2509088D03*
G01*
X2901111Y2331085D03*
G01*
X3003118Y2509088D03*
G01*
X3105099Y2331085D03*
D17*
G01*
X10896600Y3098800D03*
G01*
X10769600Y2844800D03*
G01*
X10642600Y3098800D03*
G01*
X10515600Y2844800D03*
G01*
X10388600Y3098800D03*
G01*
X10261574Y2844800D03*
G01*
X10134600Y3098800D03*
G01*
X10007600Y2844800D03*
G01*
X12623800Y3098800D03*
G01*
X12496800Y2844800D03*
G01*
X12369800Y3098800D03*
G01*
X12242800Y2844800D03*
G01*
X12115800Y3098800D03*
G01*
X11988800Y2844800D03*
G01*
X11861800Y3098800D03*
G01*
X11734800Y2844800D03*
D18*
G01*
X13296900Y6235700D03*
G01*
X1485900Y6235700D03*
G01*
X1485900Y1866900D03*
G01*
X13284200Y1866900D03*
M02*
