G04 Layer: BottomLayer*
G04 EasyEDA v6.5.23, 2023-06-26 13:38:55*
G04 b532a6b097934e50b7b064742ede95bb,94392a2f1ed042d08b1874281cec1d10,10*
G04 Gerber Generator version 0.2*
G04 Scale: 100 percent, Rotated: No, Reflected: No *
G04 Dimensions in millimeters *
G04 leading zeros omitted , absolute positions ,4 integer and 5 decimal *
%FSLAX45Y45*%
%MOMM*%

%ADD10C,0.5000*%
%ADD11C,0.2540*%
%ADD12O,1.499997X3.6999926000000003*%
%ADD13O,3.7999924X1.499997*%
%ADD14C,1.7000*%
%ADD15R,1.7000X1.7000*%
%ADD16C,1.8000*%
%ADD17C,1.6000*%
%ADD18C,6.0000*%
%ADD19C,0.0104*%

%LPD*%
G36*
X1648053Y1562608D02*
G01*
X1643786Y1563573D01*
X1640281Y1566214D01*
X1638249Y1570126D01*
X1638096Y1574546D01*
X1639773Y1578610D01*
X1642973Y1581556D01*
X1659686Y1591208D01*
X1680514Y1605483D01*
X1700174Y1621332D01*
X1718564Y1638706D01*
X1735531Y1657400D01*
X1751025Y1677416D01*
X1764944Y1698498D01*
X1777136Y1720646D01*
X1787601Y1743659D01*
X1796237Y1767382D01*
X1802993Y1791766D01*
X1807870Y1816557D01*
X1810816Y1841652D01*
X1811782Y1866900D01*
X1810816Y1892147D01*
X1807870Y1917242D01*
X1802993Y1942033D01*
X1796237Y1966417D01*
X1787601Y1990140D01*
X1777136Y2013153D01*
X1764944Y2035302D01*
X1751025Y2056384D01*
X1735531Y2076399D01*
X1718564Y2095093D01*
X1700174Y2112467D01*
X1680514Y2128316D01*
X1659686Y2142591D01*
X1637792Y2155240D01*
X1614982Y2166162D01*
X1591411Y2175256D01*
X1567180Y2182520D01*
X1542491Y2187854D01*
X1517446Y2191258D01*
X1492199Y2192731D01*
X1466951Y2192223D01*
X1441805Y2189784D01*
X1416913Y2185416D01*
X1392428Y2179116D01*
X1368501Y2170938D01*
X1345336Y2160930D01*
X1322933Y2149144D01*
X1301546Y2135682D01*
X1281277Y2120544D01*
X1262278Y2103932D01*
X1244549Y2085898D01*
X1228293Y2066543D01*
X1213612Y2045970D01*
X1200454Y2024176D01*
X1197457Y2021027D01*
X1193393Y2019401D01*
X1189024Y2019655D01*
X1185164Y2021687D01*
X1182522Y2025192D01*
X1181608Y2029460D01*
X1181608Y6073140D01*
X1182522Y6077407D01*
X1185164Y6080912D01*
X1189024Y6082944D01*
X1193393Y6083198D01*
X1197457Y6081572D01*
X1200454Y6078423D01*
X1213612Y6056630D01*
X1228293Y6036056D01*
X1244549Y6016701D01*
X1262278Y5998667D01*
X1281277Y5982055D01*
X1301546Y5966917D01*
X1322933Y5953455D01*
X1345336Y5941669D01*
X1368501Y5931662D01*
X1392428Y5923483D01*
X1416913Y5917184D01*
X1441805Y5912815D01*
X1466951Y5910376D01*
X1492199Y5909868D01*
X1517446Y5911342D01*
X1542491Y5914745D01*
X1567180Y5920079D01*
X1591411Y5927344D01*
X1614982Y5936437D01*
X1637792Y5947359D01*
X1659686Y5960008D01*
X1680514Y5974283D01*
X1700174Y5990132D01*
X1718564Y6007506D01*
X1735531Y6026200D01*
X1751025Y6046216D01*
X1764944Y6067298D01*
X1777136Y6089446D01*
X1787601Y6112459D01*
X1796237Y6136182D01*
X1802993Y6160566D01*
X1807870Y6185357D01*
X1810816Y6210452D01*
X1811782Y6235700D01*
X1810816Y6260947D01*
X1807870Y6286042D01*
X1802993Y6310833D01*
X1796237Y6335217D01*
X1787601Y6358940D01*
X1777136Y6381953D01*
X1764944Y6404102D01*
X1751025Y6425184D01*
X1735531Y6445199D01*
X1718564Y6463893D01*
X1700174Y6481267D01*
X1680514Y6497116D01*
X1659686Y6511391D01*
X1642973Y6521043D01*
X1639773Y6523990D01*
X1638096Y6528054D01*
X1638249Y6532473D01*
X1640281Y6536385D01*
X1643786Y6539026D01*
X1648053Y6539992D01*
X13134746Y6539992D01*
X13139064Y6539026D01*
X13142620Y6536283D01*
X13144601Y6532270D01*
X13144703Y6527800D01*
X13142874Y6523735D01*
X13139470Y6520840D01*
X13133933Y6517944D01*
X13112546Y6504482D01*
X13092277Y6489344D01*
X13073278Y6472732D01*
X13055549Y6454698D01*
X13039293Y6435344D01*
X13024612Y6414770D01*
X13011556Y6393129D01*
X13000228Y6370574D01*
X12990677Y6347155D01*
X12982956Y6323076D01*
X12977114Y6298488D01*
X12973202Y6273546D01*
X12971221Y6248349D01*
X12971221Y6223050D01*
X12973202Y6197854D01*
X12977114Y6172911D01*
X12982956Y6148324D01*
X12990677Y6124244D01*
X13000228Y6100826D01*
X13011556Y6078270D01*
X13024612Y6056630D01*
X13039293Y6036056D01*
X13055549Y6016701D01*
X13073278Y5998667D01*
X13092277Y5982055D01*
X13112546Y5966917D01*
X13133933Y5953455D01*
X13156336Y5941669D01*
X13179501Y5931662D01*
X13203428Y5923483D01*
X13227913Y5917184D01*
X13252805Y5912815D01*
X13277951Y5910376D01*
X13303199Y5909868D01*
X13328446Y5911342D01*
X13353491Y5914745D01*
X13378180Y5920079D01*
X13402411Y5927344D01*
X13425982Y5936437D01*
X13448792Y5947359D01*
X13470686Y5960008D01*
X13491514Y5974283D01*
X13511174Y5990132D01*
X13529563Y6007506D01*
X13546531Y6026200D01*
X13562025Y6046216D01*
X13569848Y6058052D01*
X13572896Y6061049D01*
X13576960Y6062522D01*
X13581227Y6062218D01*
X13585037Y6060135D01*
X13587577Y6056680D01*
X13588492Y6052464D01*
X13588492Y2028952D01*
X13587526Y2024634D01*
X13584834Y2021128D01*
X13580872Y2019096D01*
X13576452Y2018944D01*
X13572388Y2020722D01*
X13569442Y2024024D01*
X13563244Y2035302D01*
X13549325Y2056384D01*
X13533831Y2076399D01*
X13516863Y2095093D01*
X13498474Y2112467D01*
X13478814Y2128316D01*
X13457986Y2142591D01*
X13436092Y2155240D01*
X13413282Y2166162D01*
X13389711Y2175256D01*
X13365480Y2182520D01*
X13340791Y2187854D01*
X13315746Y2191258D01*
X13290499Y2192731D01*
X13265251Y2192223D01*
X13240105Y2189784D01*
X13215213Y2185416D01*
X13190728Y2179116D01*
X13166801Y2170938D01*
X13143636Y2160930D01*
X13121233Y2149144D01*
X13099846Y2135682D01*
X13079577Y2120544D01*
X13060578Y2103932D01*
X13042849Y2085898D01*
X13026593Y2066543D01*
X13011912Y2045970D01*
X12998856Y2024329D01*
X12987528Y2001774D01*
X12977977Y1978355D01*
X12970256Y1954275D01*
X12964414Y1929688D01*
X12960502Y1904746D01*
X12958521Y1879549D01*
X12958521Y1854250D01*
X12960502Y1829054D01*
X12964414Y1804111D01*
X12970256Y1779524D01*
X12977977Y1755444D01*
X12987528Y1732025D01*
X12998856Y1709470D01*
X13011912Y1687830D01*
X13026593Y1667256D01*
X13042849Y1647901D01*
X13060578Y1629867D01*
X13079577Y1613255D01*
X13099846Y1598117D01*
X13121233Y1584655D01*
X13126770Y1581759D01*
X13130174Y1578864D01*
X13132003Y1574800D01*
X13131901Y1570329D01*
X13129920Y1566316D01*
X13126364Y1563573D01*
X13122046Y1562608D01*
G37*

%LPC*%
G36*
X3340303Y1612798D02*
G01*
X4660696Y1612798D01*
X4665319Y1613001D01*
X4669739Y1613560D01*
X4674057Y1614525D01*
X4678324Y1615846D01*
X4682388Y1617573D01*
X4686350Y1619605D01*
X4690110Y1621993D01*
X4693615Y1624685D01*
X4697069Y1627835D01*
X4868722Y1799539D01*
X4872024Y1801723D01*
X4875936Y1802485D01*
X4879797Y1801723D01*
X4883099Y1799539D01*
X5054600Y1628038D01*
X5061864Y1621891D01*
X5065572Y1619605D01*
X5069433Y1617573D01*
X5073599Y1615846D01*
X5077764Y1614525D01*
X5082184Y1613560D01*
X5086502Y1613001D01*
X5091226Y1612798D01*
X6146596Y1612798D01*
X6151219Y1613001D01*
X6155639Y1613560D01*
X6159957Y1614525D01*
X6164224Y1615846D01*
X6168288Y1617573D01*
X6172250Y1619605D01*
X6176010Y1621993D01*
X6179515Y1624685D01*
X6182969Y1627835D01*
X6266637Y1711502D01*
X6269888Y1713738D01*
X6273800Y1714500D01*
X6277711Y1713738D01*
X6280962Y1711502D01*
X6364630Y1627835D01*
X6368084Y1624685D01*
X6371590Y1621993D01*
X6375349Y1619605D01*
X6379311Y1617573D01*
X6383375Y1615846D01*
X6387642Y1614525D01*
X6391960Y1613560D01*
X6396380Y1613001D01*
X6401003Y1612798D01*
X7721396Y1612798D01*
X7726019Y1613001D01*
X7730439Y1613560D01*
X7734757Y1614525D01*
X7739024Y1615846D01*
X7743088Y1617573D01*
X7747050Y1619605D01*
X7750809Y1621993D01*
X7754315Y1624685D01*
X7757769Y1627835D01*
X7841437Y1711502D01*
X7844688Y1713738D01*
X7848600Y1714500D01*
X7852511Y1713738D01*
X7855762Y1711502D01*
X7939430Y1627835D01*
X7942884Y1624685D01*
X7946390Y1621993D01*
X7950149Y1619605D01*
X7954111Y1617573D01*
X7958175Y1615846D01*
X7962442Y1614525D01*
X7966760Y1613560D01*
X7971180Y1613001D01*
X7975803Y1612798D01*
X10172496Y1612798D01*
X10177119Y1613001D01*
X10181539Y1613560D01*
X10185857Y1614525D01*
X10190124Y1615846D01*
X10194188Y1617573D01*
X10198150Y1619605D01*
X10201910Y1621993D01*
X10205415Y1624685D01*
X10208869Y1627835D01*
X10279837Y1698802D01*
X10283088Y1701038D01*
X10287000Y1701800D01*
X10290911Y1701038D01*
X10294162Y1698802D01*
X10365130Y1627835D01*
X10368584Y1624685D01*
X10372090Y1621993D01*
X10375849Y1619605D01*
X10379811Y1617573D01*
X10383875Y1615846D01*
X10388142Y1614525D01*
X10392460Y1613560D01*
X10396880Y1613001D01*
X10401503Y1612798D01*
X11886996Y1612798D01*
X11891619Y1613001D01*
X11896039Y1613560D01*
X11900357Y1614525D01*
X11904624Y1615846D01*
X11908688Y1617573D01*
X11912650Y1619605D01*
X11916410Y1621993D01*
X11919915Y1624685D01*
X11923369Y1627835D01*
X12011964Y1716430D01*
X12015114Y1719884D01*
X12017806Y1723389D01*
X12020194Y1727149D01*
X12022226Y1731111D01*
X12023953Y1735175D01*
X12025274Y1739442D01*
X12026239Y1743760D01*
X12026798Y1748180D01*
X12027001Y1752803D01*
X12027001Y2463596D01*
X12026798Y2468219D01*
X12026239Y2472639D01*
X12025274Y2476957D01*
X12023953Y2481224D01*
X12022226Y2485288D01*
X12020194Y2489250D01*
X12017806Y2493010D01*
X12015114Y2496515D01*
X12011964Y2499969D01*
X11936069Y2575864D01*
X11932615Y2579014D01*
X11929110Y2581706D01*
X11925350Y2584094D01*
X11921388Y2586126D01*
X11917324Y2587853D01*
X11913057Y2589174D01*
X11908739Y2590139D01*
X11904319Y2590698D01*
X11899696Y2590901D01*
X11823598Y2590901D01*
X11819686Y2591663D01*
X11816435Y2593898D01*
X11788698Y2621635D01*
X11786463Y2624886D01*
X11785701Y2628798D01*
X11785701Y2746349D01*
X11786260Y2749600D01*
X11787784Y2752547D01*
X11790222Y2754782D01*
X11799265Y2760827D01*
X11809679Y2769971D01*
X11818772Y2780385D01*
X11826494Y2791866D01*
X11832640Y2804312D01*
X11837060Y2817418D01*
X11839752Y2830982D01*
X11840667Y2844850D01*
X11839752Y2858668D01*
X11837060Y2872232D01*
X11832640Y2885338D01*
X11826494Y2897784D01*
X11818772Y2909265D01*
X11809679Y2919679D01*
X11799265Y2928823D01*
X11787733Y2936544D01*
X11775338Y2942640D01*
X11762181Y2947111D01*
X11748617Y2949803D01*
X11734800Y2950718D01*
X11720982Y2949803D01*
X11707368Y2947111D01*
X11694261Y2942640D01*
X11681866Y2936544D01*
X11670334Y2928823D01*
X11659920Y2919679D01*
X11650776Y2909265D01*
X11643106Y2897784D01*
X11636959Y2885338D01*
X11632539Y2872232D01*
X11629796Y2858668D01*
X11628882Y2844850D01*
X11629796Y2830982D01*
X11632539Y2817418D01*
X11636959Y2804312D01*
X11643106Y2791866D01*
X11650776Y2780385D01*
X11659920Y2769971D01*
X11670334Y2760827D01*
X11679377Y2754782D01*
X11681815Y2752496D01*
X11683339Y2749600D01*
X11683898Y2746349D01*
X11683898Y2603703D01*
X11684101Y2599080D01*
X11684660Y2594660D01*
X11685625Y2590342D01*
X11686946Y2586075D01*
X11688673Y2582011D01*
X11690705Y2578049D01*
X11693093Y2574290D01*
X11695785Y2570784D01*
X11698935Y2567330D01*
X11762130Y2504135D01*
X11765584Y2500985D01*
X11769090Y2498293D01*
X11772849Y2495905D01*
X11776811Y2493873D01*
X11780875Y2492146D01*
X11785142Y2490825D01*
X11789460Y2489860D01*
X11793880Y2489301D01*
X11798503Y2489098D01*
X11874601Y2489098D01*
X11878513Y2488336D01*
X11881764Y2486101D01*
X11922201Y2445664D01*
X11924436Y2442413D01*
X11925198Y2438501D01*
X11925198Y1777898D01*
X11924436Y1773986D01*
X11922201Y1770735D01*
X11869064Y1717598D01*
X11865813Y1715363D01*
X11861901Y1714601D01*
X10426598Y1714601D01*
X10422686Y1715363D01*
X10419435Y1717598D01*
X10340898Y1796135D01*
X10338663Y1799386D01*
X10337901Y1803298D01*
X10337901Y2463596D01*
X10337698Y2468219D01*
X10337139Y2472639D01*
X10336174Y2476957D01*
X10334853Y2481224D01*
X10333126Y2485288D01*
X10331094Y2489250D01*
X10328706Y2493010D01*
X10326014Y2496515D01*
X10322864Y2499969D01*
X10246969Y2575864D01*
X10243515Y2579014D01*
X10240010Y2581706D01*
X10236250Y2584094D01*
X10232288Y2586126D01*
X10228224Y2587853D01*
X10223957Y2589174D01*
X10219639Y2590139D01*
X10215219Y2590698D01*
X10210596Y2590901D01*
X10121798Y2590901D01*
X10117886Y2591663D01*
X10114635Y2593898D01*
X10061498Y2647035D01*
X10059263Y2650286D01*
X10058501Y2654198D01*
X10058501Y2746349D01*
X10059060Y2749600D01*
X10060584Y2752547D01*
X10063022Y2754782D01*
X10072065Y2760827D01*
X10082479Y2769971D01*
X10091572Y2780385D01*
X10099294Y2791866D01*
X10105440Y2804312D01*
X10109860Y2817418D01*
X10112552Y2830982D01*
X10113467Y2844850D01*
X10112552Y2858668D01*
X10109860Y2872232D01*
X10105440Y2885338D01*
X10099294Y2897784D01*
X10091572Y2909265D01*
X10082479Y2919679D01*
X10072065Y2928823D01*
X10060533Y2936544D01*
X10048138Y2942640D01*
X10034981Y2947111D01*
X10021417Y2949803D01*
X10007600Y2950718D01*
X9993782Y2949803D01*
X9980168Y2947111D01*
X9967061Y2942640D01*
X9954666Y2936544D01*
X9943134Y2928823D01*
X9932720Y2919679D01*
X9923576Y2909265D01*
X9915906Y2897784D01*
X9909759Y2885338D01*
X9905339Y2872232D01*
X9902596Y2858668D01*
X9901682Y2844850D01*
X9902596Y2830982D01*
X9905339Y2817418D01*
X9909759Y2804312D01*
X9915906Y2791866D01*
X9923576Y2780385D01*
X9932720Y2769971D01*
X9943134Y2760827D01*
X9952177Y2754782D01*
X9954615Y2752496D01*
X9956139Y2749600D01*
X9956698Y2746349D01*
X9956698Y2629103D01*
X9956901Y2624480D01*
X9957460Y2620060D01*
X9958425Y2615742D01*
X9959746Y2611475D01*
X9961473Y2607411D01*
X9963505Y2603449D01*
X9965893Y2599690D01*
X9968585Y2596184D01*
X9971735Y2592730D01*
X10060330Y2504135D01*
X10063784Y2500985D01*
X10067290Y2498293D01*
X10071049Y2495905D01*
X10075011Y2493873D01*
X10079075Y2492146D01*
X10083342Y2490825D01*
X10087660Y2489860D01*
X10092080Y2489301D01*
X10096703Y2489098D01*
X10185501Y2489098D01*
X10189413Y2488336D01*
X10192664Y2486101D01*
X10233101Y2445664D01*
X10235336Y2442413D01*
X10236098Y2438501D01*
X10236098Y1803298D01*
X10235336Y1799386D01*
X10233101Y1796135D01*
X10154564Y1717598D01*
X10151313Y1715363D01*
X10147401Y1714601D01*
X8000898Y1714601D01*
X7996986Y1715363D01*
X7993735Y1717598D01*
X7902498Y1808835D01*
X7900263Y1812086D01*
X7899501Y1815998D01*
X7899501Y2223008D01*
X7900162Y2226564D01*
X7901990Y2229662D01*
X7904784Y2231898D01*
X7907172Y2233269D01*
X7918958Y2241804D01*
X7929575Y2251760D01*
X7938820Y2262987D01*
X7946644Y2275281D01*
X7952841Y2288438D01*
X7957312Y2302256D01*
X7960055Y2316581D01*
X7960969Y2331110D01*
X7960055Y2345639D01*
X7957312Y2359914D01*
X7952841Y2373731D01*
X7946644Y2386939D01*
X7938820Y2399233D01*
X7929575Y2410409D01*
X7918958Y2420366D01*
X7907172Y2428951D01*
X7894421Y2435961D01*
X7880908Y2441295D01*
X7866786Y2444953D01*
X7856067Y2446274D01*
X7852460Y2447442D01*
X7849514Y2449880D01*
X7847685Y2453233D01*
X7847177Y2456992D01*
X7848142Y2460701D01*
X7850835Y2466441D01*
X7855356Y2480259D01*
X7858048Y2494584D01*
X7858963Y2509113D01*
X7858048Y2523642D01*
X7855356Y2537917D01*
X7850835Y2551734D01*
X7844637Y2564942D01*
X7836865Y2577185D01*
X7827568Y2588412D01*
X7816951Y2598369D01*
X7805166Y2606954D01*
X7792415Y2613964D01*
X7778902Y2619298D01*
X7764780Y2622905D01*
X7750352Y2624734D01*
X7735824Y2624734D01*
X7721396Y2622905D01*
X7707274Y2619298D01*
X7693761Y2613964D01*
X7681010Y2606954D01*
X7669225Y2598369D01*
X7658608Y2588412D01*
X7648905Y2576728D01*
X7645400Y2573985D01*
X7641081Y2573020D01*
X7636764Y2573985D01*
X7633258Y2576728D01*
X7623556Y2588412D01*
X7612938Y2598369D01*
X7601203Y2606954D01*
X7590434Y2612847D01*
X7590434Y2560421D01*
X7624165Y2560421D01*
X7627924Y2559710D01*
X7631125Y2557678D01*
X7633360Y2554630D01*
X7634325Y2550922D01*
X7633817Y2547162D01*
X7630820Y2537917D01*
X7628128Y2523642D01*
X7627213Y2509113D01*
X7628128Y2494584D01*
X7630820Y2480259D01*
X7633817Y2471064D01*
X7634325Y2467254D01*
X7633716Y2465019D01*
X7635494Y2464054D01*
X7638034Y2460701D01*
X7641539Y2453284D01*
X7649311Y2440990D01*
X7658608Y2429764D01*
X7669225Y2419807D01*
X7681010Y2411222D01*
X7687157Y2407869D01*
X7689951Y2405583D01*
X7691780Y2402484D01*
X7692440Y2398928D01*
X7692440Y2382469D01*
X7726172Y2382469D01*
X7729931Y2381707D01*
X7733131Y2379675D01*
X7735366Y2376627D01*
X7736331Y2372918D01*
X7735824Y2369159D01*
X7732826Y2359914D01*
X7730134Y2345639D01*
X7729220Y2331110D01*
X7730134Y2316581D01*
X7732826Y2302256D01*
X7735824Y2293061D01*
X7736331Y2289251D01*
X7735366Y2285593D01*
X7733131Y2282494D01*
X7729931Y2280462D01*
X7726172Y2279751D01*
X7692440Y2279751D01*
X7692440Y2227326D01*
X7703159Y2233269D01*
X7714945Y2241804D01*
X7725562Y2251760D01*
X7735265Y2263495D01*
X7738770Y2266188D01*
X7743088Y2267153D01*
X7747406Y2266188D01*
X7750911Y2263495D01*
X7760614Y2251760D01*
X7771231Y2241804D01*
X7782966Y2233269D01*
X7792415Y2228037D01*
X7795209Y2225802D01*
X7797038Y2222703D01*
X7797698Y2219147D01*
X7797698Y1815998D01*
X7796936Y1812086D01*
X7794701Y1808835D01*
X7703464Y1717598D01*
X7700213Y1715363D01*
X7696301Y1714601D01*
X6426098Y1714601D01*
X6422186Y1715363D01*
X6418935Y1717598D01*
X6327698Y1808835D01*
X6325463Y1812086D01*
X6324701Y1815998D01*
X6324701Y2226259D01*
X6325209Y2229408D01*
X6326632Y2232253D01*
X6328918Y2234488D01*
X6338976Y2241804D01*
X6349593Y2251760D01*
X6358839Y2262987D01*
X6366662Y2275281D01*
X6372860Y2288438D01*
X6377330Y2302256D01*
X6380073Y2316581D01*
X6380988Y2331110D01*
X6380073Y2345639D01*
X6377330Y2359914D01*
X6372860Y2373731D01*
X6366662Y2386939D01*
X6358839Y2399233D01*
X6349593Y2410409D01*
X6338976Y2420366D01*
X6327190Y2428951D01*
X6314440Y2435961D01*
X6300876Y2441295D01*
X6286804Y2444953D01*
X6276035Y2446274D01*
X6272428Y2447442D01*
X6269482Y2449880D01*
X6267653Y2453233D01*
X6267196Y2456992D01*
X6268161Y2460701D01*
X6270853Y2466441D01*
X6275324Y2480259D01*
X6278067Y2494584D01*
X6278981Y2509113D01*
X6278067Y2523642D01*
X6275324Y2537917D01*
X6270853Y2551734D01*
X6264656Y2564942D01*
X6256832Y2577185D01*
X6247587Y2588412D01*
X6236970Y2598369D01*
X6225184Y2606954D01*
X6212433Y2613964D01*
X6198920Y2619298D01*
X6184798Y2622905D01*
X6170371Y2624734D01*
X6155791Y2624734D01*
X6141364Y2622905D01*
X6127292Y2619298D01*
X6113729Y2613964D01*
X6100978Y2606954D01*
X6089243Y2598369D01*
X6078626Y2588412D01*
X6068923Y2576728D01*
X6065418Y2573985D01*
X6061100Y2573020D01*
X6056731Y2573985D01*
X6053277Y2576728D01*
X6043574Y2588412D01*
X6032957Y2598369D01*
X6021171Y2606954D01*
X6010452Y2612847D01*
X6010452Y2560421D01*
X6044184Y2560421D01*
X6047943Y2559710D01*
X6051143Y2557678D01*
X6053378Y2554630D01*
X6054344Y2550922D01*
X6053836Y2547162D01*
X6050838Y2537917D01*
X6048095Y2523642D01*
X6047181Y2509113D01*
X6048095Y2494584D01*
X6050838Y2480259D01*
X6053836Y2471064D01*
X6054344Y2467254D01*
X6053734Y2465019D01*
X6055512Y2464054D01*
X6058052Y2460701D01*
X6061557Y2453284D01*
X6069330Y2440990D01*
X6078626Y2429764D01*
X6089243Y2419807D01*
X6100978Y2411222D01*
X6107176Y2407869D01*
X6109970Y2405583D01*
X6111798Y2402484D01*
X6112459Y2398928D01*
X6112459Y2382469D01*
X6146190Y2382469D01*
X6149898Y2381707D01*
X6153150Y2379675D01*
X6155385Y2376627D01*
X6156299Y2372918D01*
X6155842Y2369159D01*
X6152845Y2359914D01*
X6150102Y2345639D01*
X6149187Y2331110D01*
X6150102Y2316581D01*
X6152845Y2302256D01*
X6155842Y2293061D01*
X6156299Y2289251D01*
X6155385Y2285593D01*
X6153150Y2282494D01*
X6149898Y2280462D01*
X6146190Y2279751D01*
X6112459Y2279751D01*
X6112459Y2227326D01*
X6123178Y2233269D01*
X6134963Y2241804D01*
X6145580Y2251760D01*
X6155283Y2263495D01*
X6158788Y2266188D01*
X6163106Y2267153D01*
X6167424Y2266188D01*
X6170930Y2263495D01*
X6180632Y2251760D01*
X6191199Y2241804D01*
X6202984Y2233269D01*
X6215735Y2226259D01*
X6219850Y2223770D01*
X6222085Y2220417D01*
X6222898Y2216505D01*
X6222898Y1815998D01*
X6222136Y1812086D01*
X6219901Y1808835D01*
X6128664Y1717598D01*
X6125413Y1715363D01*
X6121501Y1714601D01*
X5116322Y1714601D01*
X5112410Y1715363D01*
X5109108Y1717598D01*
X4917998Y1908708D01*
X4915763Y1912010D01*
X4915001Y1915922D01*
X4915001Y2666796D01*
X4914798Y2671419D01*
X4914239Y2675839D01*
X4913274Y2680157D01*
X4911953Y2684424D01*
X4910226Y2688488D01*
X4908194Y2692450D01*
X4905806Y2696210D01*
X4903114Y2699715D01*
X4899964Y2703169D01*
X4739132Y2863951D01*
X4736795Y2867660D01*
X4736185Y2871978D01*
X4737506Y2876194D01*
X4740402Y2879445D01*
X4744466Y2881122D01*
X4748834Y2880969D01*
X4763363Y2877261D01*
X4777841Y2875432D01*
X4792370Y2875432D01*
X4806797Y2877261D01*
X4820920Y2880868D01*
X4834432Y2886252D01*
X4847183Y2893263D01*
X4858969Y2901797D01*
X4869586Y2911754D01*
X4878832Y2922981D01*
X4886655Y2935274D01*
X4890414Y2943250D01*
X4892649Y2946298D01*
X4895850Y2948381D01*
X4899609Y2949092D01*
X4903317Y2948381D01*
X4906568Y2946298D01*
X4908804Y2943250D01*
X4912563Y2935274D01*
X4920335Y2922981D01*
X4929632Y2911754D01*
X4940198Y2901797D01*
X4951984Y2893263D01*
X4964734Y2886252D01*
X4978298Y2880868D01*
X4992370Y2877261D01*
X5006797Y2875432D01*
X5021376Y2875432D01*
X5035804Y2877261D01*
X5049926Y2880868D01*
X5063439Y2886252D01*
X5076190Y2893263D01*
X5087975Y2901797D01*
X5098592Y2911754D01*
X5107838Y2922981D01*
X5109514Y2925622D01*
X5112308Y2928518D01*
X5116068Y2930093D01*
X5120132Y2930093D01*
X5123840Y2928518D01*
X5126685Y2925622D01*
X5128361Y2922981D01*
X5137607Y2911754D01*
X5148224Y2901797D01*
X5160010Y2893263D01*
X5172760Y2886252D01*
X5186273Y2880868D01*
X5200396Y2877261D01*
X5214823Y2875432D01*
X5229352Y2875432D01*
X5243830Y2877261D01*
X5257901Y2880868D01*
X5271414Y2886252D01*
X5284165Y2893263D01*
X5295950Y2901797D01*
X5306568Y2911754D01*
X5315864Y2922981D01*
X5323636Y2935274D01*
X5327396Y2943250D01*
X5329631Y2946298D01*
X5332831Y2948381D01*
X5336590Y2949092D01*
X5340350Y2948381D01*
X5343550Y2946298D01*
X5345785Y2943250D01*
X5349544Y2935274D01*
X5357317Y2922981D01*
X5366613Y2911754D01*
X5377230Y2901797D01*
X5389016Y2893263D01*
X5401767Y2886252D01*
X5415280Y2880868D01*
X5429351Y2877261D01*
X5443829Y2875432D01*
X5458358Y2875432D01*
X5472785Y2877261D01*
X5486908Y2880868D01*
X5500420Y2886252D01*
X5513171Y2893263D01*
X5524957Y2901797D01*
X5535574Y2911754D01*
X5544870Y2922981D01*
X5552643Y2935274D01*
X5558840Y2948432D01*
X5563362Y2962249D01*
X5566054Y2976575D01*
X5566968Y2991104D01*
X5566054Y3005632D01*
X5563362Y3019907D01*
X5558840Y3033776D01*
X5552643Y3046933D01*
X5544870Y3059226D01*
X5535574Y3070402D01*
X5524957Y3080410D01*
X5513171Y3088944D01*
X5500420Y3095955D01*
X5486908Y3101289D01*
X5472785Y3104946D01*
X5458358Y3106775D01*
X5443829Y3106775D01*
X5429351Y3104946D01*
X5415280Y3101289D01*
X5401767Y3095955D01*
X5389016Y3088944D01*
X5377230Y3080410D01*
X5366613Y3070402D01*
X5357317Y3059226D01*
X5349544Y3046933D01*
X5345785Y3038957D01*
X5343550Y3035858D01*
X5340350Y3033826D01*
X5336590Y3033115D01*
X5332831Y3033826D01*
X5329631Y3035858D01*
X5327396Y3038957D01*
X5323636Y3046933D01*
X5315864Y3059226D01*
X5306568Y3070402D01*
X5295950Y3080410D01*
X5284165Y3088944D01*
X5271414Y3095955D01*
X5257901Y3101289D01*
X5243830Y3104946D01*
X5229352Y3106775D01*
X5214823Y3106775D01*
X5200396Y3104946D01*
X5186273Y3101289D01*
X5172760Y3095955D01*
X5160010Y3088944D01*
X5148224Y3080410D01*
X5137607Y3070402D01*
X5128361Y3059226D01*
X5126685Y3056585D01*
X5123840Y3053638D01*
X5120132Y3052064D01*
X5116068Y3052064D01*
X5112308Y3053638D01*
X5109514Y3056585D01*
X5107838Y3059226D01*
X5098592Y3070402D01*
X5087975Y3080410D01*
X5076190Y3088944D01*
X5063439Y3095955D01*
X5049926Y3101289D01*
X5035804Y3104946D01*
X5021376Y3106775D01*
X5006797Y3106775D01*
X4992370Y3104946D01*
X4978298Y3101289D01*
X4964734Y3095955D01*
X4951984Y3088944D01*
X4940198Y3080410D01*
X4929632Y3070402D01*
X4920335Y3059226D01*
X4912563Y3046933D01*
X4908804Y3038957D01*
X4906568Y3035858D01*
X4903317Y3033826D01*
X4899609Y3033115D01*
X4895850Y3033826D01*
X4892649Y3035858D01*
X4890414Y3038957D01*
X4886655Y3046933D01*
X4878832Y3059226D01*
X4869586Y3070402D01*
X4858969Y3080410D01*
X4847183Y3088944D01*
X4834432Y3095955D01*
X4820920Y3101289D01*
X4806797Y3104946D01*
X4792370Y3106775D01*
X4777841Y3106775D01*
X4763363Y3104946D01*
X4749292Y3101289D01*
X4735728Y3095955D01*
X4722977Y3088944D01*
X4711242Y3080410D01*
X4700625Y3070402D01*
X4691329Y3059226D01*
X4683556Y3046933D01*
X4677359Y3033776D01*
X4672838Y3019907D01*
X4670094Y3005632D01*
X4669180Y2991104D01*
X4670094Y2976575D01*
X4672838Y2962249D01*
X4675174Y2955086D01*
X4675581Y2950616D01*
X4674057Y2946400D01*
X4670806Y2943301D01*
X4666589Y2941828D01*
X4662119Y2942386D01*
X4658360Y2944774D01*
X4189069Y3414064D01*
X4185615Y3417214D01*
X4182110Y3419906D01*
X4178350Y3422294D01*
X4174388Y3424326D01*
X4170324Y3426053D01*
X4166057Y3427374D01*
X4161739Y3428339D01*
X4157319Y3428898D01*
X4152696Y3429101D01*
X3416198Y3429101D01*
X3412286Y3429863D01*
X3409035Y3432098D01*
X3292398Y3548735D01*
X3290163Y3551986D01*
X3289401Y3555898D01*
X3289401Y3701643D01*
X3290163Y3705504D01*
X3292398Y3708806D01*
X3295700Y3711041D01*
X3299561Y3711803D01*
X3322929Y3711803D01*
X3329279Y3712514D01*
X3334715Y3714394D01*
X3339642Y3717493D01*
X3343706Y3721608D01*
X3346805Y3726484D01*
X3348685Y3731971D01*
X3349396Y3738270D01*
X3349396Y3907129D01*
X3348685Y3913428D01*
X3346805Y3918915D01*
X3343706Y3923792D01*
X3339642Y3927906D01*
X3334715Y3931005D01*
X3329279Y3932885D01*
X3322929Y3933596D01*
X3154070Y3933596D01*
X3147771Y3932885D01*
X3142284Y3931005D01*
X3137408Y3927906D01*
X3133293Y3923792D01*
X3130245Y3918915D01*
X3128314Y3913428D01*
X3127603Y3907129D01*
X3127603Y3738270D01*
X3128314Y3731971D01*
X3130245Y3726484D01*
X3133293Y3721608D01*
X3137408Y3717493D01*
X3142284Y3714394D01*
X3147771Y3712514D01*
X3154070Y3711803D01*
X3177438Y3711803D01*
X3181299Y3711041D01*
X3184601Y3708806D01*
X3186836Y3705504D01*
X3187598Y3701643D01*
X3187598Y3530803D01*
X3187801Y3526180D01*
X3188360Y3521760D01*
X3189325Y3517442D01*
X3190646Y3513175D01*
X3192373Y3509111D01*
X3194405Y3505149D01*
X3196793Y3501390D01*
X3199485Y3497884D01*
X3202635Y3494430D01*
X3354730Y3342335D01*
X3358184Y3339185D01*
X3361690Y3336493D01*
X3365449Y3334105D01*
X3369411Y3332073D01*
X3373475Y3330346D01*
X3377742Y3329025D01*
X3382060Y3328060D01*
X3386480Y3327501D01*
X3391103Y3327298D01*
X4127601Y3327298D01*
X4131513Y3326536D01*
X4134764Y3324301D01*
X4810201Y2648864D01*
X4812436Y2645613D01*
X4813198Y2641701D01*
X4813198Y2392172D01*
X4812436Y2388260D01*
X4810201Y2384958D01*
X4806899Y2382774D01*
X4803038Y2382012D01*
X4795367Y2382012D01*
X4792014Y2382570D01*
X4789068Y2384196D01*
X4786782Y2386685D01*
X4778857Y2399233D01*
X4769561Y2410409D01*
X4758944Y2420366D01*
X4747209Y2428951D01*
X4734458Y2435961D01*
X4720894Y2441295D01*
X4706823Y2444953D01*
X4696053Y2446274D01*
X4692446Y2447442D01*
X4689500Y2449880D01*
X4687671Y2453233D01*
X4687214Y2456992D01*
X4688128Y2460701D01*
X4690821Y2466441D01*
X4695342Y2480259D01*
X4698085Y2494584D01*
X4699000Y2509113D01*
X4698085Y2523642D01*
X4695342Y2537917D01*
X4690821Y2551734D01*
X4684623Y2564942D01*
X4676851Y2577185D01*
X4667554Y2588412D01*
X4656988Y2598369D01*
X4645202Y2606954D01*
X4632452Y2613964D01*
X4618888Y2619298D01*
X4604816Y2622905D01*
X4590389Y2624734D01*
X4575810Y2624734D01*
X4561382Y2622905D01*
X4547260Y2619298D01*
X4533747Y2613964D01*
X4520996Y2606954D01*
X4509211Y2598369D01*
X4498594Y2588412D01*
X4488891Y2576728D01*
X4485386Y2573985D01*
X4481068Y2573020D01*
X4476750Y2573985D01*
X4473244Y2576728D01*
X4463592Y2588412D01*
X4452975Y2598369D01*
X4441190Y2606954D01*
X4430420Y2612847D01*
X4430420Y2560421D01*
X4464202Y2560421D01*
X4467910Y2559710D01*
X4471162Y2557678D01*
X4473397Y2554630D01*
X4474311Y2550922D01*
X4473854Y2547162D01*
X4470857Y2537917D01*
X4468114Y2523642D01*
X4467199Y2509113D01*
X4468114Y2494584D01*
X4470857Y2480259D01*
X4473854Y2471064D01*
X4474311Y2467254D01*
X4473752Y2465019D01*
X4475480Y2464054D01*
X4478070Y2460701D01*
X4481525Y2453284D01*
X4489348Y2440990D01*
X4498594Y2429764D01*
X4509211Y2419807D01*
X4520996Y2411222D01*
X4527194Y2407869D01*
X4529988Y2405583D01*
X4531817Y2402484D01*
X4532426Y2398928D01*
X4532426Y2382469D01*
X4566158Y2382469D01*
X4569917Y2381707D01*
X4573117Y2379675D01*
X4575352Y2376627D01*
X4576318Y2372918D01*
X4575860Y2369159D01*
X4572863Y2359914D01*
X4570120Y2345639D01*
X4569206Y2331110D01*
X4570120Y2316581D01*
X4572863Y2302256D01*
X4575860Y2293061D01*
X4576318Y2289251D01*
X4575352Y2285593D01*
X4573117Y2282494D01*
X4569917Y2280462D01*
X4566158Y2279751D01*
X4532426Y2279751D01*
X4532426Y2227326D01*
X4543196Y2233269D01*
X4554982Y2241804D01*
X4565599Y2251760D01*
X4575302Y2263495D01*
X4578807Y2266188D01*
X4583125Y2267153D01*
X4587443Y2266188D01*
X4590948Y2263495D01*
X4600600Y2251760D01*
X4611217Y2241804D01*
X4623003Y2233269D01*
X4635754Y2226259D01*
X4649266Y2220874D01*
X4663389Y2217267D01*
X4677816Y2215438D01*
X4692345Y2215438D01*
X4706823Y2217267D01*
X4720894Y2220874D01*
X4734458Y2226259D01*
X4747209Y2233269D01*
X4758944Y2241804D01*
X4769561Y2251760D01*
X4778857Y2262987D01*
X4786782Y2275484D01*
X4789017Y2277973D01*
X4792014Y2279599D01*
X4795367Y2280158D01*
X4803038Y2280158D01*
X4806899Y2279396D01*
X4810201Y2277211D01*
X4812436Y2273909D01*
X4813198Y2269998D01*
X4813198Y1892198D01*
X4812436Y1888286D01*
X4810201Y1885035D01*
X4642764Y1717598D01*
X4639513Y1715363D01*
X4635601Y1714601D01*
X3365398Y1714601D01*
X3361486Y1715363D01*
X3358235Y1717598D01*
X3152698Y1923135D01*
X3150463Y1926386D01*
X3149701Y1930298D01*
X3149701Y2217623D01*
X3150362Y2221179D01*
X3152190Y2224278D01*
X3154984Y2226513D01*
X3167176Y2233269D01*
X3178962Y2241804D01*
X3189579Y2251760D01*
X3198876Y2262987D01*
X3206648Y2275281D01*
X3212846Y2288438D01*
X3217367Y2302256D01*
X3220059Y2316581D01*
X3220974Y2331110D01*
X3220059Y2345639D01*
X3217367Y2359914D01*
X3212846Y2373731D01*
X3206648Y2386939D01*
X3198876Y2399233D01*
X3189579Y2410409D01*
X3178962Y2420366D01*
X3167176Y2428951D01*
X3154426Y2435961D01*
X3140913Y2441295D01*
X3126790Y2444953D01*
X3116072Y2446274D01*
X3112465Y2447442D01*
X3109518Y2449880D01*
X3107690Y2453233D01*
X3107182Y2456992D01*
X3108147Y2460701D01*
X3110839Y2466441D01*
X3115360Y2480259D01*
X3118053Y2494584D01*
X3118967Y2509113D01*
X3118053Y2523642D01*
X3115360Y2537917D01*
X3110839Y2551734D01*
X3104642Y2564942D01*
X3096869Y2577185D01*
X3087573Y2588412D01*
X3076956Y2598369D01*
X3065170Y2606954D01*
X3052419Y2613964D01*
X3038906Y2619298D01*
X3024835Y2622905D01*
X3010357Y2624734D01*
X2995828Y2624734D01*
X2981401Y2622905D01*
X2967278Y2619298D01*
X2953766Y2613964D01*
X2941015Y2606954D01*
X2929229Y2598369D01*
X2918612Y2588412D01*
X2908909Y2576728D01*
X2905404Y2573985D01*
X2901086Y2573020D01*
X2896768Y2573985D01*
X2893263Y2576728D01*
X2883560Y2588412D01*
X2872943Y2598369D01*
X2861208Y2606954D01*
X2850438Y2612847D01*
X2850438Y2560421D01*
X2884170Y2560421D01*
X2887929Y2559710D01*
X2891129Y2557678D01*
X2893364Y2554630D01*
X2894330Y2550922D01*
X2893872Y2547162D01*
X2890875Y2537917D01*
X2888132Y2523642D01*
X2887218Y2509113D01*
X2888132Y2494584D01*
X2890875Y2480259D01*
X2893872Y2471064D01*
X2894330Y2467254D01*
X2893771Y2465019D01*
X2895498Y2464054D01*
X2898038Y2460701D01*
X2901543Y2453284D01*
X2909366Y2440990D01*
X2918612Y2429764D01*
X2929229Y2419807D01*
X2941015Y2411222D01*
X2947162Y2407869D01*
X2949956Y2405583D01*
X2951784Y2402484D01*
X2952445Y2398928D01*
X2952445Y2382469D01*
X2986176Y2382469D01*
X2989935Y2381707D01*
X2993136Y2379675D01*
X2995371Y2376627D01*
X2996336Y2372918D01*
X2995828Y2369159D01*
X2992831Y2359914D01*
X2990138Y2345639D01*
X2989224Y2331110D01*
X2990138Y2316581D01*
X2992831Y2302256D01*
X2995828Y2293061D01*
X2996336Y2289251D01*
X2995371Y2285593D01*
X2993136Y2282494D01*
X2989935Y2280462D01*
X2986176Y2279751D01*
X2952445Y2279751D01*
X2952445Y2227326D01*
X2963214Y2233269D01*
X2974949Y2241804D01*
X2985566Y2251760D01*
X2995269Y2263495D01*
X2998774Y2266188D01*
X3003092Y2267153D01*
X3007410Y2266188D01*
X3010916Y2263495D01*
X3020618Y2251760D01*
X3031236Y2241804D01*
X3043682Y2232761D01*
X3045968Y2230526D01*
X3047390Y2227681D01*
X3047898Y2224532D01*
X3047898Y1905203D01*
X3048101Y1900580D01*
X3048660Y1896160D01*
X3049625Y1891842D01*
X3050946Y1887575D01*
X3052673Y1883511D01*
X3054705Y1879549D01*
X3057093Y1875789D01*
X3059785Y1872284D01*
X3062935Y1868830D01*
X3303930Y1627835D01*
X3307384Y1624685D01*
X3310890Y1621993D01*
X3314649Y1619605D01*
X3318611Y1617573D01*
X3322675Y1615846D01*
X3326942Y1614525D01*
X3331260Y1613560D01*
X3335680Y1613001D01*
G37*
G36*
X8110829Y1886254D02*
G01*
X8129879Y1886712D01*
X8148777Y1889099D01*
X8167319Y1893316D01*
X8185353Y1899361D01*
X8202675Y1907235D01*
X8219186Y1916734D01*
X8234629Y1927860D01*
X8248903Y1940407D01*
X8261858Y1954377D01*
X8273338Y1969566D01*
X8283244Y1985772D01*
X8291525Y2002942D01*
X8298027Y2020824D01*
X8302701Y2039264D01*
X8305546Y2058060D01*
X8306511Y2077059D01*
X8305546Y2096109D01*
X8302701Y2114905D01*
X8298027Y2133346D01*
X8291525Y2151227D01*
X8283244Y2168398D01*
X8273338Y2184603D01*
X8261858Y2199792D01*
X8248903Y2213762D01*
X8234629Y2226310D01*
X8219186Y2237435D01*
X8202675Y2246934D01*
X8185353Y2254808D01*
X8167319Y2260854D01*
X8148777Y2265070D01*
X8129879Y2267458D01*
X8110829Y2267915D01*
X8091881Y2266492D01*
X8073136Y2263190D01*
X8054797Y2258060D01*
X8037068Y2251100D01*
X8020151Y2242413D01*
X8004149Y2232101D01*
X7989316Y2220214D01*
X7975650Y2206904D01*
X7963458Y2192324D01*
X7952740Y2176627D01*
X7943596Y2159914D01*
X7936230Y2142388D01*
X7930591Y2124202D01*
X7926831Y2105558D01*
X7924952Y2086610D01*
X7924952Y2067560D01*
X7926831Y2048611D01*
X7930591Y2029968D01*
X7936230Y2011781D01*
X7943596Y1994255D01*
X7952740Y1977542D01*
X7963458Y1961845D01*
X7975650Y1947265D01*
X7989316Y1933956D01*
X8004149Y1922068D01*
X8020151Y1911756D01*
X8037068Y1903069D01*
X8054797Y1896110D01*
X8073136Y1890979D01*
X8091881Y1887677D01*
G37*
G36*
X2115820Y1886254D02*
G01*
X2134870Y1886712D01*
X2153767Y1889099D01*
X2172309Y1893316D01*
X2190343Y1899361D01*
X2207666Y1907235D01*
X2224176Y1916734D01*
X2239619Y1927860D01*
X2253894Y1940407D01*
X2266848Y1954377D01*
X2278329Y1969566D01*
X2288235Y1985772D01*
X2296515Y2002942D01*
X2303018Y2020824D01*
X2307691Y2039264D01*
X2310536Y2058060D01*
X2311501Y2077059D01*
X2310536Y2096109D01*
X2307691Y2114905D01*
X2303018Y2133346D01*
X2296515Y2151227D01*
X2288235Y2168398D01*
X2278329Y2184603D01*
X2266848Y2199792D01*
X2253894Y2213762D01*
X2239619Y2226310D01*
X2224176Y2237435D01*
X2207666Y2246934D01*
X2190343Y2254808D01*
X2172309Y2260854D01*
X2153767Y2265070D01*
X2134870Y2267458D01*
X2115820Y2267915D01*
X2096871Y2266492D01*
X2078126Y2263190D01*
X2059787Y2258060D01*
X2042058Y2251100D01*
X2025142Y2242413D01*
X2009139Y2232101D01*
X1994306Y2220214D01*
X1980641Y2206904D01*
X1968449Y2192324D01*
X1957730Y2176627D01*
X1948586Y2159914D01*
X1941220Y2142388D01*
X1935581Y2124202D01*
X1931822Y2105558D01*
X1929942Y2086610D01*
X1929942Y2067560D01*
X1931822Y2048611D01*
X1935581Y2029968D01*
X1941220Y2011781D01*
X1948586Y1994255D01*
X1957730Y1977542D01*
X1968449Y1961845D01*
X1980641Y1947265D01*
X1994306Y1933956D01*
X2009139Y1922068D01*
X2025142Y1911756D01*
X2042058Y1903069D01*
X2059787Y1896110D01*
X2078126Y1890979D01*
X2096871Y1887677D01*
G37*
G36*
X11012678Y2023160D02*
G01*
X11031524Y2023160D01*
X11050270Y2025040D01*
X11068710Y2028850D01*
X11086642Y2034489D01*
X11103965Y2041906D01*
X11120424Y2051050D01*
X11135868Y2061819D01*
X11150193Y2074062D01*
X11163147Y2087727D01*
X11174679Y2102612D01*
X11184636Y2118614D01*
X11192916Y2135479D01*
X11199469Y2153158D01*
X11204194Y2171395D01*
X11207038Y2189988D01*
X11208004Y2208784D01*
X11207038Y2227630D01*
X11204194Y2246223D01*
X11199469Y2264460D01*
X11192916Y2282139D01*
X11184636Y2299004D01*
X11174679Y2315006D01*
X11163147Y2329891D01*
X11150193Y2343556D01*
X11135868Y2355799D01*
X11120424Y2366568D01*
X11103965Y2375712D01*
X11086642Y2383129D01*
X11068710Y2388768D01*
X11050270Y2392578D01*
X11031524Y2394458D01*
X11012678Y2394458D01*
X10993932Y2392578D01*
X10975492Y2388768D01*
X10957560Y2383129D01*
X10940237Y2375712D01*
X10923778Y2366568D01*
X10908334Y2355799D01*
X10894009Y2343556D01*
X10881055Y2329891D01*
X10869523Y2315006D01*
X10859566Y2299004D01*
X10851286Y2282139D01*
X10844733Y2264460D01*
X10840008Y2246223D01*
X10837164Y2227630D01*
X10836198Y2208784D01*
X10837164Y2189988D01*
X10840008Y2171395D01*
X10844733Y2153158D01*
X10851286Y2135479D01*
X10859566Y2118614D01*
X10869523Y2102612D01*
X10881055Y2087727D01*
X10894009Y2074062D01*
X10908334Y2061819D01*
X10923778Y2051050D01*
X10940237Y2041906D01*
X10957560Y2034489D01*
X10975492Y2028850D01*
X10993932Y2025040D01*
G37*
G36*
X11599875Y2023160D02*
G01*
X11618722Y2023160D01*
X11637467Y2025040D01*
X11655907Y2028850D01*
X11673840Y2034489D01*
X11691162Y2041906D01*
X11707622Y2051050D01*
X11723065Y2061819D01*
X11737390Y2074062D01*
X11750344Y2087727D01*
X11761876Y2102612D01*
X11771833Y2118614D01*
X11780113Y2135479D01*
X11786666Y2153158D01*
X11791391Y2171395D01*
X11794236Y2189988D01*
X11795201Y2208784D01*
X11794236Y2227630D01*
X11791391Y2246223D01*
X11786666Y2264460D01*
X11780113Y2282139D01*
X11771833Y2299004D01*
X11761876Y2315006D01*
X11750344Y2329891D01*
X11737390Y2343556D01*
X11723065Y2355799D01*
X11707622Y2366568D01*
X11691162Y2375712D01*
X11673840Y2383129D01*
X11655907Y2388768D01*
X11637467Y2392578D01*
X11618722Y2394458D01*
X11599875Y2394458D01*
X11581130Y2392578D01*
X11562689Y2388768D01*
X11544757Y2383129D01*
X11527434Y2375712D01*
X11510975Y2366568D01*
X11495532Y2355799D01*
X11481206Y2343556D01*
X11468252Y2329891D01*
X11456720Y2315006D01*
X11446764Y2299004D01*
X11438483Y2282139D01*
X11431930Y2264460D01*
X11427206Y2246223D01*
X11424361Y2227630D01*
X11423396Y2208784D01*
X11424361Y2189988D01*
X11427206Y2171395D01*
X11431930Y2153158D01*
X11438483Y2135479D01*
X11446764Y2118614D01*
X11456720Y2102612D01*
X11468252Y2087727D01*
X11481206Y2074062D01*
X11495532Y2061819D01*
X11510975Y2051050D01*
X11527434Y2041906D01*
X11544757Y2034489D01*
X11562689Y2028850D01*
X11581130Y2025040D01*
G37*
G36*
X12739878Y2023160D02*
G01*
X12758724Y2023160D01*
X12777470Y2025040D01*
X12795910Y2028850D01*
X12813842Y2034489D01*
X12831165Y2041906D01*
X12847624Y2051050D01*
X12863068Y2061819D01*
X12877393Y2074062D01*
X12890347Y2087727D01*
X12901879Y2102612D01*
X12911836Y2118614D01*
X12920116Y2135479D01*
X12926669Y2153158D01*
X12931394Y2171395D01*
X12934238Y2189988D01*
X12935204Y2208784D01*
X12934238Y2227630D01*
X12931394Y2246223D01*
X12926669Y2264460D01*
X12920116Y2282139D01*
X12911836Y2299004D01*
X12901879Y2315006D01*
X12890347Y2329891D01*
X12877393Y2343556D01*
X12863068Y2355799D01*
X12847624Y2366568D01*
X12831165Y2375712D01*
X12813842Y2383129D01*
X12795910Y2388768D01*
X12777470Y2392578D01*
X12758724Y2394458D01*
X12739878Y2394458D01*
X12721132Y2392578D01*
X12702692Y2388768D01*
X12684760Y2383129D01*
X12667437Y2375712D01*
X12650978Y2366568D01*
X12635534Y2355799D01*
X12621209Y2343556D01*
X12608255Y2329891D01*
X12596723Y2315006D01*
X12586766Y2299004D01*
X12578486Y2282139D01*
X12571933Y2264460D01*
X12567208Y2246223D01*
X12564364Y2227630D01*
X12563398Y2208784D01*
X12564364Y2189988D01*
X12567208Y2171395D01*
X12571933Y2153158D01*
X12578486Y2135479D01*
X12586766Y2118614D01*
X12596723Y2102612D01*
X12608255Y2087727D01*
X12621209Y2074062D01*
X12635534Y2061819D01*
X12650978Y2051050D01*
X12667437Y2041906D01*
X12684760Y2034489D01*
X12702692Y2028850D01*
X12721132Y2025040D01*
G37*
G36*
X9872675Y2023160D02*
G01*
X9891522Y2023160D01*
X9910267Y2025040D01*
X9928707Y2028850D01*
X9946640Y2034489D01*
X9963962Y2041906D01*
X9980422Y2051050D01*
X9995865Y2061819D01*
X10010190Y2074062D01*
X10023144Y2087727D01*
X10034676Y2102612D01*
X10044633Y2118614D01*
X10052913Y2135479D01*
X10059466Y2153158D01*
X10064191Y2171395D01*
X10067036Y2189988D01*
X10068001Y2208784D01*
X10067036Y2227630D01*
X10064191Y2246223D01*
X10059466Y2264460D01*
X10052913Y2282139D01*
X10044633Y2299004D01*
X10034676Y2315006D01*
X10023144Y2329891D01*
X10010190Y2343556D01*
X9995865Y2355799D01*
X9980422Y2366568D01*
X9963962Y2375712D01*
X9946640Y2383129D01*
X9928707Y2388768D01*
X9910267Y2392578D01*
X9891522Y2394458D01*
X9872675Y2394458D01*
X9853930Y2392578D01*
X9835489Y2388768D01*
X9817557Y2383129D01*
X9800234Y2375712D01*
X9783775Y2366568D01*
X9768332Y2355799D01*
X9754006Y2343556D01*
X9741052Y2329891D01*
X9729520Y2315006D01*
X9719564Y2299004D01*
X9711283Y2282139D01*
X9704730Y2264460D01*
X9700006Y2246223D01*
X9697161Y2227630D01*
X9696196Y2208784D01*
X9697161Y2189988D01*
X9700006Y2171395D01*
X9704730Y2153158D01*
X9711283Y2135479D01*
X9719564Y2118614D01*
X9729520Y2102612D01*
X9741052Y2087727D01*
X9754006Y2074062D01*
X9768332Y2061819D01*
X9783775Y2051050D01*
X9800234Y2041906D01*
X9817557Y2034489D01*
X9835489Y2028850D01*
X9853930Y2025040D01*
G37*
G36*
X9089034Y2215337D02*
G01*
X9102344Y2215337D01*
X9115806Y2216251D01*
X9128760Y2218791D01*
X9141256Y2223058D01*
X9153093Y2228900D01*
X9164066Y2236216D01*
X9174022Y2244902D01*
X9182709Y2254859D01*
X9190024Y2265832D01*
X9193276Y2272385D01*
X9089034Y2272385D01*
G37*
G36*
X8872982Y2215337D02*
G01*
X8886291Y2215337D01*
X8886291Y2272385D01*
X8782050Y2272385D01*
X8785301Y2265832D01*
X8792616Y2254859D01*
X8801303Y2244902D01*
X8811260Y2236216D01*
X8822232Y2228900D01*
X8834069Y2223058D01*
X8846566Y2218791D01*
X8859520Y2216251D01*
G37*
G36*
X5645810Y2215438D02*
G01*
X5660390Y2215438D01*
X5674817Y2217267D01*
X5688888Y2220874D01*
X5702452Y2226259D01*
X5715203Y2233269D01*
X5726938Y2241804D01*
X5737555Y2251760D01*
X5747258Y2263495D01*
X5750763Y2266188D01*
X5755081Y2267153D01*
X5759450Y2266188D01*
X5762904Y2263495D01*
X5772607Y2251760D01*
X5783224Y2241804D01*
X5795010Y2233269D01*
X5807760Y2226259D01*
X5821273Y2220874D01*
X5835396Y2217267D01*
X5849823Y2215438D01*
X5864352Y2215438D01*
X5878830Y2217267D01*
X5892901Y2220874D01*
X5906414Y2226259D01*
X5919165Y2233269D01*
X5930950Y2241804D01*
X5941568Y2251760D01*
X5951270Y2263495D01*
X5954776Y2266188D01*
X5959094Y2267153D01*
X5963412Y2266188D01*
X5966917Y2263495D01*
X5976620Y2251760D01*
X5987237Y2241804D01*
X5998972Y2233269D01*
X6009741Y2227326D01*
X6009741Y2279751D01*
X5976010Y2279751D01*
X5972251Y2280462D01*
X5969050Y2282494D01*
X5966815Y2285593D01*
X5965850Y2289251D01*
X5966358Y2293061D01*
X5969355Y2302256D01*
X5972048Y2316581D01*
X5972962Y2331110D01*
X5972048Y2345639D01*
X5969355Y2359914D01*
X5966358Y2369159D01*
X5965850Y2372918D01*
X5966460Y2375154D01*
X5964682Y2376119D01*
X5962142Y2379472D01*
X5958636Y2386939D01*
X5950864Y2399233D01*
X5941568Y2410409D01*
X5930950Y2420366D01*
X5919165Y2428951D01*
X5913018Y2432354D01*
X5910224Y2434590D01*
X5908395Y2437688D01*
X5907735Y2441244D01*
X5907735Y2457754D01*
X5874004Y2457754D01*
X5870244Y2458466D01*
X5867044Y2460498D01*
X5864809Y2463596D01*
X5863844Y2467254D01*
X5864352Y2471064D01*
X5867349Y2480259D01*
X5870041Y2494584D01*
X5870956Y2509113D01*
X5870041Y2523642D01*
X5867349Y2537917D01*
X5864352Y2547162D01*
X5863844Y2550922D01*
X5864809Y2554630D01*
X5867044Y2557678D01*
X5870244Y2559710D01*
X5874004Y2560421D01*
X5907735Y2560421D01*
X5907735Y2612847D01*
X5897016Y2606954D01*
X5885230Y2598369D01*
X5874613Y2588412D01*
X5864910Y2576728D01*
X5861405Y2573985D01*
X5857087Y2573020D01*
X5852769Y2573985D01*
X5849264Y2576728D01*
X5839561Y2588412D01*
X5828944Y2598369D01*
X5821273Y2603957D01*
X5819038Y2606192D01*
X5817616Y2609037D01*
X5817108Y2612186D01*
X5817108Y3276092D01*
X5816295Y3284118D01*
X5814110Y3291332D01*
X5810554Y3298037D01*
X5805424Y3304235D01*
X5577535Y3532124D01*
X5571337Y3537254D01*
X5564632Y3540810D01*
X5557418Y3542995D01*
X5549392Y3543808D01*
X5138318Y3543808D01*
X5134406Y3544570D01*
X5131104Y3546805D01*
X5058054Y3619855D01*
X5055870Y3623157D01*
X5055108Y3627018D01*
X5055108Y3712159D01*
X5055819Y3715969D01*
X5057952Y3719220D01*
X5061153Y3721455D01*
X5067757Y3724401D01*
X5079949Y3731768D01*
X5091023Y3740607D01*
X5100929Y3750818D01*
X5109413Y3762197D01*
X5116372Y3774592D01*
X5121706Y3787749D01*
X5125313Y3801516D01*
X5127142Y3815587D01*
X5127142Y3829812D01*
X5125313Y3843883D01*
X5121706Y3857650D01*
X5116372Y3870807D01*
X5109413Y3883202D01*
X5100929Y3894582D01*
X5091023Y3904792D01*
X5079949Y3913632D01*
X5067757Y3920998D01*
X5054803Y3926738D01*
X5041138Y3930802D01*
X5027117Y3933088D01*
X5012944Y3933545D01*
X4998770Y3932174D01*
X4984953Y3929024D01*
X4971592Y3924096D01*
X4958994Y3917543D01*
X4947361Y3909415D01*
X4936845Y3899865D01*
X4927600Y3889044D01*
X4919878Y3877106D01*
X4913680Y3864305D01*
X4909210Y3850843D01*
X4906518Y3836873D01*
X4905603Y3822700D01*
X4906518Y3808526D01*
X4909210Y3794556D01*
X4913680Y3781094D01*
X4919878Y3768293D01*
X4927600Y3756355D01*
X4936845Y3745534D01*
X4947361Y3735984D01*
X4958994Y3727856D01*
X4972405Y3720947D01*
X4975301Y3718661D01*
X4977180Y3715512D01*
X4977892Y3711905D01*
X4977892Y3607308D01*
X4978654Y3599281D01*
X4980838Y3592068D01*
X4984394Y3585413D01*
X4989525Y3579164D01*
X5090464Y3478276D01*
X5096662Y3473145D01*
X5103368Y3469589D01*
X5110581Y3467404D01*
X5118608Y3466592D01*
X5529681Y3466592D01*
X5533593Y3465829D01*
X5536895Y3463594D01*
X5736894Y3263595D01*
X5739130Y3260293D01*
X5739892Y3256381D01*
X5739892Y2632506D01*
X5738926Y2628138D01*
X5736183Y2624632D01*
X5732272Y2622651D01*
X5719267Y2619298D01*
X5705754Y2613964D01*
X5693003Y2606954D01*
X5681218Y2598369D01*
X5670600Y2588412D01*
X5660898Y2576728D01*
X5657392Y2573985D01*
X5653074Y2573020D01*
X5648756Y2573985D01*
X5645251Y2576728D01*
X5635548Y2588412D01*
X5624982Y2598369D01*
X5613196Y2606954D01*
X5600446Y2613964D01*
X5595467Y2615946D01*
X5592114Y2618079D01*
X5589828Y2621381D01*
X5589016Y2625293D01*
X5588660Y2684983D01*
X5589422Y2688894D01*
X5591606Y2692196D01*
X5678424Y2779064D01*
X5683554Y2785262D01*
X5687110Y2791968D01*
X5689295Y2799181D01*
X5690108Y2807208D01*
X5690108Y3174492D01*
X5689295Y3182518D01*
X5687110Y3189732D01*
X5683554Y3196437D01*
X5678424Y3202635D01*
X5488635Y3392424D01*
X5482437Y3397554D01*
X5475732Y3401110D01*
X5468518Y3403295D01*
X5460492Y3404108D01*
X4960518Y3404108D01*
X4956606Y3404870D01*
X4953304Y3407105D01*
X4804105Y3556304D01*
X4801870Y3559606D01*
X4801108Y3563518D01*
X4801108Y3712159D01*
X4801870Y3715969D01*
X4803952Y3719220D01*
X4807153Y3721455D01*
X4813757Y3724401D01*
X4825949Y3731768D01*
X4837023Y3740607D01*
X4846929Y3750818D01*
X4855413Y3762197D01*
X4862372Y3774592D01*
X4867706Y3787749D01*
X4871313Y3801516D01*
X4873142Y3815587D01*
X4873142Y3829812D01*
X4871313Y3843883D01*
X4867706Y3857650D01*
X4862372Y3870807D01*
X4855413Y3883202D01*
X4846929Y3894582D01*
X4837023Y3904792D01*
X4825949Y3913632D01*
X4813757Y3920998D01*
X4800803Y3926738D01*
X4787138Y3930802D01*
X4773117Y3933088D01*
X4758944Y3933545D01*
X4744770Y3932174D01*
X4730953Y3929024D01*
X4717592Y3924096D01*
X4704994Y3917543D01*
X4693361Y3909415D01*
X4682845Y3899865D01*
X4673600Y3889044D01*
X4665878Y3877106D01*
X4659680Y3864305D01*
X4655210Y3850843D01*
X4652518Y3836873D01*
X4651603Y3822700D01*
X4652518Y3808526D01*
X4655210Y3794556D01*
X4659680Y3781094D01*
X4665878Y3768293D01*
X4673600Y3756355D01*
X4682845Y3745534D01*
X4693361Y3735984D01*
X4704994Y3727907D01*
X4718405Y3720896D01*
X4721301Y3718661D01*
X4723231Y3715512D01*
X4723892Y3711905D01*
X4723892Y3543808D01*
X4724704Y3535781D01*
X4726889Y3528568D01*
X4730445Y3521862D01*
X4735576Y3515664D01*
X4912664Y3338576D01*
X4918862Y3333445D01*
X4925568Y3329889D01*
X4932781Y3327704D01*
X4940808Y3326892D01*
X5440781Y3326892D01*
X5444693Y3326129D01*
X5447995Y3323894D01*
X5609894Y3161995D01*
X5612130Y3158693D01*
X5612892Y3154781D01*
X5612892Y2826918D01*
X5612130Y2823006D01*
X5609894Y2819704D01*
X5522976Y2732735D01*
X5517845Y2726537D01*
X5514289Y2719832D01*
X5512104Y2712618D01*
X5511292Y2704642D01*
X5511800Y2624886D01*
X5511038Y2620924D01*
X5508752Y2617571D01*
X5505399Y2615387D01*
X5501741Y2613964D01*
X5488990Y2606954D01*
X5477205Y2598369D01*
X5466588Y2588412D01*
X5457342Y2577185D01*
X5449519Y2564942D01*
X5443321Y2551734D01*
X5438851Y2537917D01*
X5436108Y2523642D01*
X5435193Y2509113D01*
X5436108Y2494584D01*
X5438851Y2480259D01*
X5443321Y2466441D01*
X5449519Y2453284D01*
X5457342Y2440990D01*
X5466588Y2429764D01*
X5477205Y2419807D01*
X5488990Y2411222D01*
X5501741Y2404211D01*
X5515305Y2398877D01*
X5529376Y2395270D01*
X5540146Y2393899D01*
X5543753Y2392730D01*
X5546699Y2390292D01*
X5548528Y2386939D01*
X5548985Y2383180D01*
X5548020Y2379472D01*
X5545328Y2373731D01*
X5540857Y2359914D01*
X5538114Y2345639D01*
X5537200Y2331110D01*
X5538114Y2316581D01*
X5540857Y2302256D01*
X5545328Y2288438D01*
X5551525Y2275281D01*
X5559348Y2262987D01*
X5568594Y2251760D01*
X5579211Y2241804D01*
X5590997Y2233269D01*
X5603748Y2226259D01*
X5617260Y2220874D01*
X5631383Y2217267D01*
G37*
G36*
X7225792Y2215438D02*
G01*
X7240371Y2215438D01*
X7254798Y2217267D01*
X7268921Y2220874D01*
X7282434Y2226259D01*
X7295184Y2233269D01*
X7306970Y2241804D01*
X7317587Y2251760D01*
X7327290Y2263495D01*
X7330795Y2266188D01*
X7335113Y2267153D01*
X7339431Y2266188D01*
X7342936Y2263495D01*
X7352588Y2251760D01*
X7363206Y2241804D01*
X7374991Y2233269D01*
X7387742Y2226259D01*
X7401255Y2220874D01*
X7415377Y2217267D01*
X7429804Y2215438D01*
X7444384Y2215438D01*
X7458811Y2217267D01*
X7472883Y2220874D01*
X7486446Y2226259D01*
X7499197Y2233269D01*
X7510932Y2241804D01*
X7521549Y2251760D01*
X7531252Y2263495D01*
X7534757Y2266188D01*
X7539075Y2267153D01*
X7543444Y2266188D01*
X7546949Y2263495D01*
X7556601Y2251760D01*
X7567218Y2241804D01*
X7579004Y2233269D01*
X7589723Y2227326D01*
X7589723Y2279751D01*
X7555992Y2279751D01*
X7552232Y2280462D01*
X7549032Y2282494D01*
X7546797Y2285593D01*
X7545882Y2289251D01*
X7546340Y2293061D01*
X7549337Y2302256D01*
X7552080Y2316581D01*
X7552994Y2331110D01*
X7552080Y2345639D01*
X7549337Y2359914D01*
X7546340Y2369159D01*
X7545882Y2372918D01*
X7546441Y2375154D01*
X7544714Y2376119D01*
X7542123Y2379472D01*
X7538618Y2386939D01*
X7530846Y2399233D01*
X7521549Y2410409D01*
X7510932Y2420366D01*
X7499197Y2428951D01*
X7493000Y2432354D01*
X7490206Y2434590D01*
X7488377Y2437688D01*
X7487716Y2441244D01*
X7487716Y2457754D01*
X7453985Y2457754D01*
X7450277Y2458466D01*
X7447025Y2460498D01*
X7444790Y2463596D01*
X7443876Y2467254D01*
X7444333Y2471064D01*
X7447330Y2480259D01*
X7450074Y2494584D01*
X7450988Y2509113D01*
X7450074Y2523642D01*
X7447330Y2537917D01*
X7444333Y2547162D01*
X7443876Y2550922D01*
X7444790Y2554630D01*
X7447025Y2557678D01*
X7450277Y2559710D01*
X7453985Y2560421D01*
X7487716Y2560421D01*
X7487716Y2612847D01*
X7476998Y2606954D01*
X7465212Y2598369D01*
X7454595Y2588412D01*
X7444892Y2576728D01*
X7441387Y2573985D01*
X7437069Y2573020D01*
X7432751Y2573985D01*
X7429246Y2576728D01*
X7419543Y2588412D01*
X7408976Y2598369D01*
X7397191Y2606954D01*
X7384440Y2613964D01*
X7370876Y2619298D01*
X7366050Y2620568D01*
X7363053Y2621838D01*
X7360666Y2623972D01*
X7354824Y2631186D01*
X7279335Y2706624D01*
X7273137Y2711754D01*
X7266431Y2715310D01*
X7259218Y2717495D01*
X7251192Y2718308D01*
X6433718Y2718308D01*
X6429806Y2719070D01*
X6426504Y2721305D01*
X6074054Y3073755D01*
X6071870Y3077057D01*
X6071108Y3080918D01*
X6071108Y3712159D01*
X6071819Y3715969D01*
X6073952Y3719220D01*
X6077153Y3721455D01*
X6083757Y3724401D01*
X6095949Y3731768D01*
X6107023Y3740607D01*
X6116929Y3750818D01*
X6125413Y3762197D01*
X6132372Y3774592D01*
X6137706Y3787749D01*
X6141313Y3801516D01*
X6143142Y3815587D01*
X6143142Y3829812D01*
X6141313Y3843883D01*
X6137706Y3857650D01*
X6132372Y3870807D01*
X6125413Y3883202D01*
X6116929Y3894582D01*
X6107023Y3904792D01*
X6095949Y3913632D01*
X6083757Y3920998D01*
X6070803Y3926738D01*
X6057138Y3930802D01*
X6043117Y3933088D01*
X6028944Y3933545D01*
X6014770Y3932174D01*
X6000953Y3929024D01*
X5987592Y3924096D01*
X5974994Y3917543D01*
X5963361Y3909415D01*
X5952845Y3899865D01*
X5943600Y3889044D01*
X5935878Y3877106D01*
X5929680Y3864305D01*
X5925210Y3850843D01*
X5922518Y3836873D01*
X5921603Y3822700D01*
X5922518Y3808526D01*
X5925210Y3794556D01*
X5929680Y3781094D01*
X5935878Y3768293D01*
X5943600Y3756355D01*
X5952845Y3745534D01*
X5963361Y3735984D01*
X5974994Y3727856D01*
X5988405Y3720947D01*
X5991301Y3718661D01*
X5993180Y3715512D01*
X5993892Y3711905D01*
X5993892Y3061208D01*
X5995009Y3048711D01*
X5993384Y3044596D01*
X5990183Y3041497D01*
X5985916Y3040126D01*
X5981496Y3040684D01*
X5977737Y3043021D01*
X5947105Y3073704D01*
X5944870Y3077006D01*
X5944108Y3080918D01*
X5944108Y3504692D01*
X5943295Y3512718D01*
X5941110Y3519932D01*
X5937554Y3526637D01*
X5932424Y3532835D01*
X5820054Y3645255D01*
X5817870Y3648557D01*
X5817108Y3652418D01*
X5817108Y3712159D01*
X5817819Y3715969D01*
X5819952Y3719220D01*
X5823153Y3721455D01*
X5829757Y3724401D01*
X5841949Y3731768D01*
X5853023Y3740607D01*
X5862929Y3750818D01*
X5871413Y3762197D01*
X5878372Y3774592D01*
X5883706Y3787749D01*
X5887313Y3801516D01*
X5889142Y3815587D01*
X5889142Y3829812D01*
X5887313Y3843883D01*
X5883706Y3857650D01*
X5878372Y3870807D01*
X5871413Y3883202D01*
X5862929Y3894582D01*
X5853023Y3904792D01*
X5841949Y3913632D01*
X5829757Y3920998D01*
X5816803Y3926738D01*
X5803138Y3930802D01*
X5789117Y3933088D01*
X5774944Y3933545D01*
X5760770Y3932174D01*
X5746953Y3929024D01*
X5733592Y3924096D01*
X5720994Y3917543D01*
X5709361Y3909415D01*
X5698845Y3899865D01*
X5689600Y3889044D01*
X5681878Y3877106D01*
X5675680Y3864305D01*
X5671210Y3850843D01*
X5668518Y3836873D01*
X5667603Y3822700D01*
X5668518Y3808526D01*
X5671210Y3794556D01*
X5675680Y3781094D01*
X5681878Y3768293D01*
X5689600Y3756355D01*
X5698845Y3745534D01*
X5709361Y3735984D01*
X5720994Y3727856D01*
X5734405Y3720947D01*
X5737301Y3718661D01*
X5739180Y3715512D01*
X5739892Y3711905D01*
X5739892Y3632708D01*
X5740654Y3624681D01*
X5742838Y3617468D01*
X5746394Y3610813D01*
X5751525Y3604564D01*
X5863894Y3492195D01*
X5866130Y3488893D01*
X5866892Y3484981D01*
X5866892Y3061208D01*
X5867704Y3053181D01*
X5869889Y3045968D01*
X5873445Y3039262D01*
X5878576Y3033064D01*
X6423964Y2487676D01*
X6430162Y2482545D01*
X6436868Y2478989D01*
X6444081Y2476804D01*
X6452108Y2475992D01*
X7012838Y2475992D01*
X7017003Y2475128D01*
X7020407Y2472639D01*
X7022490Y2468981D01*
X7023353Y2466441D01*
X7029551Y2453284D01*
X7037324Y2440990D01*
X7046620Y2429764D01*
X7057237Y2419807D01*
X7068972Y2411222D01*
X7081723Y2404211D01*
X7095286Y2398877D01*
X7109358Y2395270D01*
X7120128Y2393899D01*
X7123734Y2392730D01*
X7126681Y2390292D01*
X7128509Y2386939D01*
X7128967Y2383180D01*
X7128052Y2379472D01*
X7125360Y2373731D01*
X7120839Y2359914D01*
X7118096Y2345639D01*
X7117181Y2331110D01*
X7118096Y2316581D01*
X7120839Y2302256D01*
X7125360Y2288438D01*
X7131558Y2275281D01*
X7139330Y2262987D01*
X7148626Y2251760D01*
X7159244Y2241804D01*
X7170978Y2233269D01*
X7183729Y2226259D01*
X7197293Y2220874D01*
X7211364Y2217267D01*
G37*
G36*
X2485847Y2215438D02*
G01*
X2500376Y2215438D01*
X2514803Y2217267D01*
X2528925Y2220874D01*
X2542438Y2226259D01*
X2555189Y2233269D01*
X2566974Y2241804D01*
X2577592Y2251760D01*
X2587294Y2263495D01*
X2590800Y2266188D01*
X2595118Y2267153D01*
X2599436Y2266188D01*
X2602941Y2263495D01*
X2612593Y2251760D01*
X2623210Y2241804D01*
X2634996Y2233269D01*
X2647746Y2226259D01*
X2661310Y2220874D01*
X2675382Y2217267D01*
X2689809Y2215438D01*
X2704388Y2215438D01*
X2718816Y2217267D01*
X2732887Y2220874D01*
X2746451Y2226259D01*
X2759202Y2233269D01*
X2770987Y2241804D01*
X2781554Y2251760D01*
X2791307Y2263495D01*
X2794762Y2266188D01*
X2799130Y2267153D01*
X2803448Y2266188D01*
X2806954Y2263495D01*
X2816606Y2251760D01*
X2827223Y2241804D01*
X2839008Y2233269D01*
X2849727Y2227326D01*
X2849727Y2279751D01*
X2815996Y2279751D01*
X2812288Y2280462D01*
X2809036Y2282494D01*
X2806801Y2285593D01*
X2805887Y2289251D01*
X2806344Y2293061D01*
X2809341Y2302256D01*
X2812084Y2316581D01*
X2812999Y2331110D01*
X2812084Y2345639D01*
X2809341Y2359914D01*
X2806344Y2369159D01*
X2805887Y2372918D01*
X2806446Y2375154D01*
X2804718Y2376119D01*
X2802128Y2379472D01*
X2798673Y2386939D01*
X2790850Y2399233D01*
X2781554Y2410409D01*
X2770987Y2420366D01*
X2759202Y2428951D01*
X2753004Y2432354D01*
X2750210Y2434590D01*
X2748381Y2437688D01*
X2747772Y2441244D01*
X2747772Y2457754D01*
X2713990Y2457754D01*
X2710281Y2458466D01*
X2707030Y2460498D01*
X2704795Y2463596D01*
X2703880Y2467254D01*
X2704338Y2471064D01*
X2707335Y2480259D01*
X2710078Y2494584D01*
X2710992Y2509113D01*
X2710078Y2523642D01*
X2707335Y2537917D01*
X2704338Y2547162D01*
X2703880Y2550922D01*
X2704795Y2554630D01*
X2707030Y2557678D01*
X2710281Y2559710D01*
X2713990Y2560421D01*
X2747772Y2560421D01*
X2747772Y2612847D01*
X2737002Y2606954D01*
X2725216Y2598369D01*
X2714599Y2588412D01*
X2704896Y2576728D01*
X2701391Y2573985D01*
X2697073Y2573020D01*
X2692755Y2573985D01*
X2689250Y2576728D01*
X2679598Y2588412D01*
X2668981Y2598369D01*
X2657195Y2606954D01*
X2644444Y2613964D01*
X2640126Y2615641D01*
X2636774Y2617825D01*
X2634538Y2621178D01*
X2633726Y2625090D01*
X2633726Y3134309D01*
X2634691Y3138576D01*
X2637332Y3142081D01*
X2641193Y3144113D01*
X2645613Y3144316D01*
X2649626Y3142691D01*
X2652623Y3139490D01*
X2653995Y3135325D01*
X2654604Y3129381D01*
X2656789Y3122168D01*
X2660345Y3115462D01*
X2665476Y3109264D01*
X3287064Y2487676D01*
X3293262Y2482545D01*
X3299968Y2478989D01*
X3307181Y2476804D01*
X3315208Y2475992D01*
X3852875Y2475992D01*
X3856990Y2475128D01*
X3860393Y2472639D01*
X3862527Y2468981D01*
X3863340Y2466441D01*
X3869537Y2453284D01*
X3877360Y2440990D01*
X3886606Y2429764D01*
X3897223Y2419807D01*
X3909009Y2411222D01*
X3921760Y2404211D01*
X3935272Y2398877D01*
X3949395Y2395270D01*
X3960114Y2393899D01*
X3963771Y2392730D01*
X3966667Y2390292D01*
X3968496Y2386939D01*
X3969004Y2383180D01*
X3968038Y2379472D01*
X3965346Y2373731D01*
X3960825Y2359914D01*
X3958132Y2345639D01*
X3957218Y2331110D01*
X3958132Y2316581D01*
X3960825Y2302256D01*
X3965346Y2288438D01*
X3971544Y2275281D01*
X3979316Y2262987D01*
X3988612Y2251760D01*
X3999229Y2241804D01*
X4011015Y2233269D01*
X4023766Y2226259D01*
X4037279Y2220874D01*
X4051401Y2217267D01*
X4065828Y2215438D01*
X4080357Y2215438D01*
X4094835Y2217267D01*
X4108907Y2220874D01*
X4122420Y2226259D01*
X4135170Y2233269D01*
X4146956Y2241804D01*
X4157573Y2251760D01*
X4167276Y2263495D01*
X4170781Y2266188D01*
X4175099Y2267153D01*
X4179417Y2266188D01*
X4182922Y2263495D01*
X4192625Y2251760D01*
X4203242Y2241804D01*
X4214977Y2233269D01*
X4227728Y2226259D01*
X4241292Y2220874D01*
X4255363Y2217267D01*
X4269841Y2215438D01*
X4284370Y2215438D01*
X4298797Y2217267D01*
X4312920Y2220874D01*
X4326432Y2226259D01*
X4339183Y2233269D01*
X4350969Y2241804D01*
X4361586Y2251760D01*
X4371289Y2263495D01*
X4374794Y2266188D01*
X4379112Y2267153D01*
X4383430Y2266188D01*
X4386935Y2263495D01*
X4396638Y2251760D01*
X4407204Y2241804D01*
X4418990Y2233269D01*
X4429760Y2227326D01*
X4429760Y2279751D01*
X4396028Y2279751D01*
X4392269Y2280462D01*
X4389069Y2282494D01*
X4386834Y2285593D01*
X4385868Y2289251D01*
X4386326Y2293061D01*
X4389323Y2302256D01*
X4392066Y2316581D01*
X4392980Y2331110D01*
X4392066Y2345639D01*
X4389323Y2359914D01*
X4386326Y2369159D01*
X4385868Y2372918D01*
X4386427Y2375154D01*
X4384700Y2376119D01*
X4382160Y2379472D01*
X4378655Y2386939D01*
X4370832Y2399233D01*
X4361586Y2410409D01*
X4350969Y2420366D01*
X4339183Y2428951D01*
X4332986Y2432354D01*
X4330192Y2434590D01*
X4328363Y2437688D01*
X4327753Y2441244D01*
X4327753Y2457754D01*
X4294022Y2457754D01*
X4290263Y2458466D01*
X4287062Y2460498D01*
X4284827Y2463596D01*
X4283862Y2467254D01*
X4284319Y2471064D01*
X4287316Y2480259D01*
X4290060Y2494584D01*
X4290974Y2509113D01*
X4290060Y2523642D01*
X4287316Y2537917D01*
X4284319Y2547162D01*
X4283862Y2550922D01*
X4284827Y2554630D01*
X4287062Y2557678D01*
X4290263Y2559710D01*
X4294022Y2560421D01*
X4327753Y2560421D01*
X4327753Y2612847D01*
X4316984Y2606954D01*
X4305249Y2598369D01*
X4294632Y2588412D01*
X4284929Y2576728D01*
X4281424Y2573985D01*
X4277106Y2573020D01*
X4272737Y2573985D01*
X4269232Y2576728D01*
X4259580Y2588412D01*
X4248962Y2598369D01*
X4237177Y2606954D01*
X4224426Y2613964D01*
X4210913Y2619298D01*
X4196791Y2622905D01*
X4190237Y2623769D01*
X4187037Y2624734D01*
X4184345Y2626664D01*
X4091635Y2719324D01*
X4085437Y2724454D01*
X4078732Y2728010D01*
X4071518Y2730195D01*
X4063492Y2731008D01*
X3309518Y2731008D01*
X3305606Y2731770D01*
X3302304Y2734005D01*
X3176524Y2859786D01*
X3174238Y2863291D01*
X3173526Y2867406D01*
X3174542Y2871470D01*
X3177133Y2874721D01*
X3180791Y2876702D01*
X3184956Y2877058D01*
X3197809Y2875432D01*
X3212388Y2875432D01*
X3226816Y2877261D01*
X3240887Y2880868D01*
X3254451Y2886252D01*
X3267202Y2893263D01*
X3278987Y2901797D01*
X3289554Y2911754D01*
X3298850Y2922981D01*
X3306673Y2935274D01*
X3310382Y2943250D01*
X3312617Y2946298D01*
X3315868Y2948381D01*
X3319576Y2949092D01*
X3323336Y2948381D01*
X3326536Y2946298D01*
X3328771Y2943250D01*
X3332530Y2935274D01*
X3340354Y2922981D01*
X3349599Y2911754D01*
X3360216Y2901797D01*
X3372002Y2893263D01*
X3384753Y2886252D01*
X3398265Y2880868D01*
X3412388Y2877261D01*
X3426815Y2875432D01*
X3441395Y2875432D01*
X3455822Y2877261D01*
X3469894Y2880868D01*
X3483457Y2886252D01*
X3496208Y2893263D01*
X3507943Y2901797D01*
X3518560Y2911754D01*
X3527856Y2922981D01*
X3529533Y2925622D01*
X3532327Y2928518D01*
X3536086Y2930093D01*
X3540099Y2930093D01*
X3543858Y2928518D01*
X3546652Y2925622D01*
X3548329Y2922981D01*
X3557625Y2911754D01*
X3568242Y2901797D01*
X3579977Y2893263D01*
X3592728Y2886252D01*
X3606292Y2880868D01*
X3620363Y2877261D01*
X3634841Y2875432D01*
X3649370Y2875432D01*
X3663797Y2877261D01*
X3677920Y2880868D01*
X3691432Y2886252D01*
X3704183Y2893263D01*
X3715969Y2901797D01*
X3726586Y2911754D01*
X3735832Y2922981D01*
X3743655Y2935274D01*
X3747414Y2943250D01*
X3749649Y2946298D01*
X3752850Y2948381D01*
X3756609Y2949092D01*
X3760317Y2948381D01*
X3763568Y2946298D01*
X3765804Y2943250D01*
X3769563Y2935274D01*
X3777335Y2922981D01*
X3786632Y2911754D01*
X3797249Y2901797D01*
X3808984Y2893263D01*
X3821734Y2886252D01*
X3835298Y2880868D01*
X3849370Y2877261D01*
X3863797Y2875432D01*
X3878376Y2875432D01*
X3892804Y2877261D01*
X3906926Y2880868D01*
X3920439Y2886252D01*
X3933190Y2893263D01*
X3944975Y2901797D01*
X3955592Y2911754D01*
X3964838Y2922981D01*
X3972661Y2935274D01*
X3978859Y2948432D01*
X3983329Y2962249D01*
X3986072Y2976575D01*
X3986987Y2991104D01*
X3986072Y3005632D01*
X3983329Y3019907D01*
X3978859Y3033776D01*
X3972661Y3046933D01*
X3964838Y3059226D01*
X3955592Y3070402D01*
X3944975Y3080410D01*
X3933190Y3088944D01*
X3920439Y3095955D01*
X3906926Y3101289D01*
X3892804Y3104946D01*
X3878376Y3106775D01*
X3863797Y3106775D01*
X3849370Y3104946D01*
X3835298Y3101289D01*
X3821734Y3095955D01*
X3808984Y3088944D01*
X3797249Y3080410D01*
X3786632Y3070402D01*
X3777335Y3059226D01*
X3769563Y3046933D01*
X3765804Y3038957D01*
X3763568Y3035858D01*
X3760317Y3033826D01*
X3756609Y3033115D01*
X3752850Y3033826D01*
X3749649Y3035858D01*
X3747414Y3038957D01*
X3743655Y3046933D01*
X3735832Y3059226D01*
X3726586Y3070402D01*
X3715969Y3080410D01*
X3704183Y3088944D01*
X3691432Y3095955D01*
X3677920Y3101289D01*
X3663797Y3104946D01*
X3649370Y3106775D01*
X3634841Y3106775D01*
X3620363Y3104946D01*
X3606292Y3101289D01*
X3592728Y3095955D01*
X3579977Y3088944D01*
X3568242Y3080410D01*
X3557625Y3070402D01*
X3548329Y3059226D01*
X3546652Y3056585D01*
X3543858Y3053638D01*
X3540099Y3052064D01*
X3536086Y3052064D01*
X3532327Y3053638D01*
X3529533Y3056585D01*
X3527856Y3059226D01*
X3518560Y3070402D01*
X3507943Y3080410D01*
X3496208Y3088944D01*
X3483457Y3095955D01*
X3469894Y3101289D01*
X3455822Y3104946D01*
X3441395Y3106775D01*
X3426815Y3106775D01*
X3412388Y3104946D01*
X3398265Y3101289D01*
X3384753Y3095955D01*
X3372002Y3088944D01*
X3360216Y3080410D01*
X3349599Y3070402D01*
X3340354Y3059226D01*
X3332530Y3046933D01*
X3328771Y3038957D01*
X3326536Y3035858D01*
X3323336Y3033826D01*
X3319576Y3033115D01*
X3315868Y3033826D01*
X3312617Y3035858D01*
X3310382Y3038957D01*
X3306673Y3046933D01*
X3298850Y3059226D01*
X3289554Y3070402D01*
X3278987Y3080410D01*
X3267202Y3088944D01*
X3254451Y3095955D01*
X3240887Y3101289D01*
X3226816Y3104946D01*
X3212388Y3106775D01*
X3197809Y3106775D01*
X3183382Y3104946D01*
X3169310Y3101289D01*
X3155746Y3095955D01*
X3142996Y3088944D01*
X3131210Y3080410D01*
X3120593Y3070402D01*
X3111347Y3059226D01*
X3103524Y3046933D01*
X3097326Y3033776D01*
X3092856Y3019907D01*
X3090113Y3005632D01*
X3089198Y2991104D01*
X3090113Y2976575D01*
X3091078Y2971444D01*
X3090976Y2967177D01*
X3089148Y2963316D01*
X3085896Y2960573D01*
X3081731Y2959404D01*
X3077514Y2960065D01*
X3073958Y2962351D01*
X2873705Y3162604D01*
X2871470Y3165906D01*
X2870708Y3169818D01*
X2870708Y4945481D01*
X2871470Y4949393D01*
X2873705Y4952695D01*
X3607104Y5686094D01*
X3610406Y5688330D01*
X3614318Y5689092D01*
X5511292Y5689092D01*
X5519318Y5689904D01*
X5526532Y5692089D01*
X5533237Y5695645D01*
X5539435Y5700776D01*
X5792724Y5954064D01*
X5797854Y5960262D01*
X5801410Y5966968D01*
X5803595Y5974181D01*
X5804408Y5982208D01*
X5804408Y6247384D01*
X5805322Y6251600D01*
X5807913Y6255054D01*
X5811672Y6257137D01*
X5816803Y6258610D01*
X5829757Y6264402D01*
X5841949Y6271768D01*
X5853023Y6280607D01*
X5862929Y6290818D01*
X5871413Y6302197D01*
X5878372Y6314592D01*
X5883706Y6327749D01*
X5887313Y6341516D01*
X5889142Y6355588D01*
X5889142Y6369812D01*
X5887313Y6383883D01*
X5883706Y6397650D01*
X5878372Y6410807D01*
X5871413Y6423202D01*
X5862929Y6434582D01*
X5853023Y6444792D01*
X5841949Y6453632D01*
X5829757Y6460998D01*
X5816803Y6466738D01*
X5803138Y6470802D01*
X5789117Y6473088D01*
X5774944Y6473545D01*
X5760770Y6472174D01*
X5746953Y6469024D01*
X5733592Y6464096D01*
X5720994Y6457543D01*
X5709361Y6449415D01*
X5698845Y6439865D01*
X5689600Y6429044D01*
X5681878Y6417106D01*
X5675680Y6404305D01*
X5671210Y6390843D01*
X5668518Y6376873D01*
X5667603Y6362700D01*
X5668518Y6348526D01*
X5671210Y6334556D01*
X5675680Y6321094D01*
X5681878Y6308293D01*
X5689600Y6296355D01*
X5698845Y6285534D01*
X5709361Y6275984D01*
X5724601Y6265214D01*
X5726531Y6262116D01*
X5727192Y6258509D01*
X5727192Y6001918D01*
X5726430Y5998006D01*
X5724194Y5994704D01*
X5498795Y5769305D01*
X5495493Y5767070D01*
X5491581Y5766308D01*
X3594608Y5766308D01*
X3586581Y5765495D01*
X3579368Y5763310D01*
X3572662Y5759754D01*
X3566464Y5754624D01*
X2805176Y4993335D01*
X2800045Y4987137D01*
X2796489Y4980432D01*
X2794304Y4973218D01*
X2793492Y4965192D01*
X2793492Y3150108D01*
X2794304Y3142081D01*
X2796489Y3134868D01*
X2800045Y3128162D01*
X2805176Y3121964D01*
X3261664Y2665476D01*
X3267862Y2660345D01*
X3274567Y2656789D01*
X3281781Y2654604D01*
X3289808Y2653792D01*
X4043781Y2653792D01*
X4047693Y2653030D01*
X4050995Y2650794D01*
X4094937Y2606852D01*
X4097172Y2603500D01*
X4097934Y2599537D01*
X4097070Y2595575D01*
X4094734Y2592273D01*
X4090619Y2588412D01*
X4080916Y2576728D01*
X4077411Y2573985D01*
X4073093Y2573020D01*
X4068775Y2573985D01*
X4065270Y2576728D01*
X4055567Y2588412D01*
X4044950Y2598369D01*
X4033215Y2606954D01*
X4020413Y2613964D01*
X4006900Y2619298D01*
X3992829Y2622905D01*
X3978351Y2624734D01*
X3963822Y2624734D01*
X3949395Y2622905D01*
X3935272Y2619298D01*
X3921760Y2613964D01*
X3909009Y2606954D01*
X3897223Y2598369D01*
X3886606Y2588412D01*
X3877360Y2577185D01*
X3869537Y2564942D01*
X3866794Y2559050D01*
X3864559Y2555951D01*
X3861308Y2553919D01*
X3857599Y2553208D01*
X3334918Y2553208D01*
X3331006Y2553970D01*
X3327704Y2556205D01*
X2734005Y3149904D01*
X2731770Y3153206D01*
X2731008Y3157118D01*
X2731008Y4958181D01*
X2731770Y4962093D01*
X2734005Y4965395D01*
X3556304Y5787694D01*
X3559606Y5789930D01*
X3563518Y5790692D01*
X5092192Y5790692D01*
X5100218Y5791504D01*
X5107432Y5793689D01*
X5114137Y5797245D01*
X5120335Y5802376D01*
X5297424Y5979464D01*
X5302554Y5985662D01*
X5306110Y5992368D01*
X5308295Y5999581D01*
X5309108Y6007608D01*
X5309108Y6252159D01*
X5309870Y6255969D01*
X5311952Y6259220D01*
X5315153Y6261455D01*
X5321757Y6264402D01*
X5333949Y6271768D01*
X5345023Y6280607D01*
X5354929Y6290818D01*
X5363413Y6302197D01*
X5370372Y6314592D01*
X5375706Y6327749D01*
X5379313Y6341516D01*
X5381142Y6355588D01*
X5381142Y6369812D01*
X5379313Y6383883D01*
X5375706Y6397650D01*
X5370372Y6410807D01*
X5363413Y6423202D01*
X5354929Y6434582D01*
X5345023Y6444792D01*
X5333949Y6453632D01*
X5321757Y6460998D01*
X5308803Y6466738D01*
X5295138Y6470802D01*
X5281117Y6473088D01*
X5266944Y6473545D01*
X5252770Y6472174D01*
X5238953Y6469024D01*
X5225592Y6464096D01*
X5212994Y6457543D01*
X5201361Y6449415D01*
X5190845Y6439865D01*
X5181600Y6429044D01*
X5173878Y6417106D01*
X5167680Y6404305D01*
X5163210Y6390843D01*
X5160518Y6376873D01*
X5159603Y6362700D01*
X5160518Y6348526D01*
X5163210Y6334556D01*
X5167680Y6321094D01*
X5173878Y6308293D01*
X5181600Y6296355D01*
X5190845Y6285534D01*
X5201361Y6275984D01*
X5212994Y6267907D01*
X5226405Y6260896D01*
X5229301Y6258661D01*
X5231231Y6255512D01*
X5231892Y6251905D01*
X5231892Y6027318D01*
X5231130Y6023406D01*
X5228894Y6020104D01*
X5079695Y5870905D01*
X5076393Y5868670D01*
X5072481Y5867908D01*
X3543808Y5867908D01*
X3535781Y5867095D01*
X3528568Y5864910D01*
X3521862Y5861354D01*
X3515664Y5856224D01*
X2665476Y5006035D01*
X2660345Y4999837D01*
X2656789Y4993132D01*
X2654604Y4985918D01*
X2653995Y4979974D01*
X2652623Y4975809D01*
X2649626Y4972608D01*
X2645613Y4970983D01*
X2641193Y4971186D01*
X2637332Y4973218D01*
X2634691Y4976723D01*
X2633726Y4980990D01*
X2633726Y5000599D01*
X2634488Y5004511D01*
X2636723Y5007813D01*
X3773424Y6144564D01*
X3778554Y6150762D01*
X3782110Y6157468D01*
X3784295Y6164681D01*
X3785108Y6172708D01*
X3785108Y6252159D01*
X3785870Y6255969D01*
X3787952Y6259220D01*
X3791153Y6261455D01*
X3797757Y6264402D01*
X3809949Y6271768D01*
X3821023Y6280607D01*
X3830929Y6290818D01*
X3839413Y6302197D01*
X3846372Y6314592D01*
X3851706Y6327749D01*
X3855313Y6341516D01*
X3857142Y6355588D01*
X3857142Y6369812D01*
X3855313Y6383883D01*
X3851706Y6397650D01*
X3846372Y6410807D01*
X3839413Y6423202D01*
X3830929Y6434582D01*
X3821023Y6444792D01*
X3809949Y6453632D01*
X3797757Y6460998D01*
X3784803Y6466738D01*
X3771137Y6470802D01*
X3757117Y6473088D01*
X3742944Y6473545D01*
X3728770Y6472174D01*
X3714953Y6469024D01*
X3701592Y6464096D01*
X3688994Y6457543D01*
X3677361Y6449415D01*
X3666845Y6439865D01*
X3657600Y6429044D01*
X3649878Y6417106D01*
X3643680Y6404305D01*
X3639210Y6390843D01*
X3636518Y6376873D01*
X3635603Y6362700D01*
X3636518Y6348526D01*
X3639210Y6334556D01*
X3643680Y6321094D01*
X3649878Y6308293D01*
X3657600Y6296355D01*
X3666845Y6285534D01*
X3677361Y6275984D01*
X3688994Y6267907D01*
X3702405Y6260896D01*
X3705301Y6258661D01*
X3707231Y6255512D01*
X3707892Y6251905D01*
X3707892Y6192418D01*
X3707129Y6188506D01*
X3704894Y6185204D01*
X2583230Y5063540D01*
X2579979Y5061356D01*
X2576068Y5060594D01*
X2572156Y5061356D01*
X2568905Y5063540D01*
X2566670Y5066842D01*
X2565908Y5070754D01*
X2565908Y5135981D01*
X2566670Y5139893D01*
X2568905Y5143195D01*
X3519424Y6093764D01*
X3524554Y6099962D01*
X3528110Y6106668D01*
X3530295Y6113881D01*
X3531108Y6121908D01*
X3531108Y6252159D01*
X3531870Y6255969D01*
X3533952Y6259220D01*
X3537153Y6261455D01*
X3543757Y6264402D01*
X3555949Y6271768D01*
X3567023Y6280607D01*
X3576929Y6290818D01*
X3585413Y6302197D01*
X3592372Y6314592D01*
X3597706Y6327749D01*
X3601313Y6341516D01*
X3603142Y6355588D01*
X3603142Y6369812D01*
X3601313Y6383883D01*
X3597706Y6397650D01*
X3592372Y6410807D01*
X3585413Y6423202D01*
X3576929Y6434582D01*
X3567023Y6444792D01*
X3555949Y6453632D01*
X3543757Y6460998D01*
X3530803Y6466738D01*
X3517137Y6470802D01*
X3503117Y6473088D01*
X3488944Y6473545D01*
X3474770Y6472174D01*
X3460953Y6469024D01*
X3447592Y6464096D01*
X3434994Y6457543D01*
X3423361Y6449415D01*
X3412845Y6439865D01*
X3403600Y6429044D01*
X3395878Y6417106D01*
X3389680Y6404305D01*
X3385210Y6390843D01*
X3382518Y6376873D01*
X3381603Y6362700D01*
X3382518Y6348526D01*
X3385210Y6334556D01*
X3389680Y6321094D01*
X3395878Y6308293D01*
X3403600Y6296355D01*
X3412845Y6285534D01*
X3423361Y6275984D01*
X3434994Y6267907D01*
X3448405Y6260896D01*
X3451301Y6258661D01*
X3453231Y6255512D01*
X3453892Y6251905D01*
X3453892Y6141618D01*
X3453129Y6137706D01*
X3450894Y6134404D01*
X2500376Y5183835D01*
X2495245Y5177637D01*
X2491689Y5170932D01*
X2489504Y5163718D01*
X2488692Y5155692D01*
X2488692Y2928518D01*
X2487930Y2924606D01*
X2485694Y2921304D01*
X2373376Y2808935D01*
X2368245Y2802737D01*
X2364689Y2796032D01*
X2362504Y2788818D01*
X2361692Y2780792D01*
X2361692Y2628747D01*
X2360879Y2624836D01*
X2358644Y2621483D01*
X2355291Y2619298D01*
X2341778Y2613964D01*
X2328976Y2606954D01*
X2317242Y2598369D01*
X2306624Y2588412D01*
X2297328Y2577185D01*
X2289556Y2564942D01*
X2283358Y2551734D01*
X2278837Y2537917D01*
X2276144Y2523642D01*
X2275230Y2509113D01*
X2276144Y2494584D01*
X2278837Y2480259D01*
X2283358Y2466441D01*
X2289556Y2453284D01*
X2297328Y2440990D01*
X2306624Y2429764D01*
X2317242Y2419807D01*
X2328976Y2411222D01*
X2341778Y2404211D01*
X2355291Y2398877D01*
X2369362Y2395270D01*
X2380132Y2393899D01*
X2383739Y2392730D01*
X2386685Y2390292D01*
X2388514Y2386939D01*
X2388971Y2383180D01*
X2388057Y2379472D01*
X2385364Y2373731D01*
X2380843Y2359914D01*
X2378100Y2345639D01*
X2377186Y2331110D01*
X2378100Y2316581D01*
X2380843Y2302256D01*
X2385364Y2288438D01*
X2391562Y2275281D01*
X2399334Y2262987D01*
X2408631Y2251760D01*
X2419248Y2241804D01*
X2430983Y2233269D01*
X2443734Y2226259D01*
X2457297Y2220874D01*
X2471369Y2217267D01*
G37*
G36*
X8782050Y2360117D02*
G01*
X8886291Y2360117D01*
X8886291Y2417165D01*
X8872982Y2417165D01*
X8859520Y2416251D01*
X8846566Y2413711D01*
X8834069Y2409444D01*
X8822232Y2403602D01*
X8811260Y2396286D01*
X8801303Y2387600D01*
X8792616Y2377643D01*
X8785301Y2366670D01*
G37*
G36*
X9089034Y2360117D02*
G01*
X9193276Y2360117D01*
X9190024Y2366670D01*
X9182709Y2377643D01*
X9174022Y2387600D01*
X9164066Y2396286D01*
X9153093Y2403602D01*
X9141256Y2409444D01*
X9128760Y2413711D01*
X9115806Y2416251D01*
X9102344Y2417165D01*
X9089034Y2417165D01*
G37*
G36*
X4429760Y2382469D02*
G01*
X4429658Y2386126D01*
X4427372Y2382824D01*
G37*
G36*
X6009741Y2382469D02*
G01*
X6009640Y2386126D01*
X6007404Y2382824D01*
G37*
G36*
X7589723Y2382469D02*
G01*
X7589621Y2386126D01*
X7587386Y2382824D01*
G37*
G36*
X2849727Y2382469D02*
G01*
X2849676Y2386126D01*
X2847390Y2382824D01*
G37*
G36*
X6010452Y2453589D02*
G01*
X6012789Y2457348D01*
X6010452Y2457754D01*
G37*
G36*
X2850540Y2454046D02*
G01*
X2853385Y2457754D01*
X2850438Y2457754D01*
G37*
G36*
X7590536Y2454046D02*
G01*
X7593380Y2457754D01*
X7590434Y2457754D01*
G37*
G36*
X4430522Y2454046D02*
G01*
X4433366Y2457754D01*
X4430420Y2457754D01*
G37*
G36*
X9408820Y2465628D02*
G01*
X9408820Y2567381D01*
X9351772Y2567381D01*
X9351772Y2556560D01*
X9352635Y2543048D01*
X9355226Y2530144D01*
X9359442Y2517648D01*
X9365284Y2505811D01*
X9372600Y2494838D01*
X9381337Y2484882D01*
X9391243Y2476195D01*
X9402216Y2468880D01*
G37*
G36*
X9496501Y2465628D02*
G01*
X9503105Y2468880D01*
X9514078Y2476195D01*
X9523984Y2484882D01*
X9532721Y2494838D01*
X9540036Y2505811D01*
X9545878Y2517648D01*
X9550095Y2530144D01*
X9552686Y2543048D01*
X9553549Y2556560D01*
X9553549Y2567381D01*
X9496501Y2567381D01*
G37*
G36*
X10617708Y2552192D02*
G01*
X11035792Y2552192D01*
X11043818Y2553004D01*
X11051032Y2555189D01*
X11057737Y2558745D01*
X11063935Y2563876D01*
X11215624Y2715564D01*
X11220754Y2721762D01*
X11224310Y2728468D01*
X11226495Y2735681D01*
X11227308Y2743708D01*
X11227308Y4228592D01*
X11226495Y4236618D01*
X11224310Y4243832D01*
X11220754Y4250537D01*
X11215624Y4256735D01*
X10797235Y4675124D01*
X10791037Y4680254D01*
X10784332Y4683810D01*
X10777118Y4685995D01*
X10769092Y4686808D01*
X3988308Y4686808D01*
X3980281Y4685995D01*
X3973068Y4683810D01*
X3966362Y4680254D01*
X3960164Y4675124D01*
X3719576Y4434535D01*
X3714445Y4428337D01*
X3710889Y4421632D01*
X3708704Y4414418D01*
X3707892Y4406392D01*
X3707892Y3933494D01*
X3707231Y3929887D01*
X3705301Y3926738D01*
X3702405Y3924503D01*
X3688994Y3917492D01*
X3677361Y3909415D01*
X3666845Y3899865D01*
X3657600Y3889044D01*
X3649878Y3877106D01*
X3643680Y3864305D01*
X3639210Y3850843D01*
X3636518Y3836873D01*
X3635603Y3822700D01*
X3636518Y3808526D01*
X3639210Y3794556D01*
X3643680Y3781094D01*
X3649878Y3768293D01*
X3657600Y3756355D01*
X3666845Y3745534D01*
X3677361Y3735984D01*
X3688994Y3727856D01*
X3701592Y3721303D01*
X3714953Y3716375D01*
X3728770Y3713226D01*
X3742944Y3711854D01*
X3757117Y3712311D01*
X3771137Y3714597D01*
X3784803Y3718610D01*
X3797757Y3724401D01*
X3809949Y3731768D01*
X3821023Y3740607D01*
X3830929Y3750818D01*
X3839413Y3762197D01*
X3846372Y3774592D01*
X3851706Y3787749D01*
X3855313Y3801516D01*
X3857142Y3815587D01*
X3857142Y3829812D01*
X3855313Y3843883D01*
X3851706Y3857650D01*
X3846372Y3870807D01*
X3839413Y3883202D01*
X3830929Y3894582D01*
X3821023Y3904792D01*
X3809949Y3913632D01*
X3797757Y3920998D01*
X3791153Y3923944D01*
X3787952Y3926179D01*
X3785870Y3929430D01*
X3785108Y3933240D01*
X3785108Y4386681D01*
X3785870Y4390593D01*
X3788105Y4393895D01*
X4000804Y4606594D01*
X4004106Y4608830D01*
X4008018Y4609592D01*
X10749381Y4609592D01*
X10753293Y4608830D01*
X10756595Y4606594D01*
X11147094Y4216095D01*
X11149330Y4212793D01*
X11150092Y4208881D01*
X11150092Y2763418D01*
X11149330Y2759506D01*
X11147094Y2756204D01*
X11023295Y2632405D01*
X11019993Y2630170D01*
X11016081Y2629408D01*
X10637418Y2629408D01*
X10633506Y2630170D01*
X10630204Y2632405D01*
X10557205Y2705404D01*
X10554970Y2708706D01*
X10554208Y2712618D01*
X10554208Y2739745D01*
X10554919Y2743403D01*
X10556900Y2746603D01*
X10559897Y2748838D01*
X10568533Y2753106D01*
X10580065Y2760827D01*
X10590479Y2769971D01*
X10599572Y2780385D01*
X10607294Y2791866D01*
X10613440Y2804312D01*
X10617860Y2817418D01*
X10620552Y2830982D01*
X10621467Y2844850D01*
X10620552Y2858668D01*
X10617860Y2872232D01*
X10613440Y2885338D01*
X10607294Y2897784D01*
X10599572Y2909265D01*
X10590479Y2919679D01*
X10580065Y2928823D01*
X10568533Y2936544D01*
X10556138Y2942640D01*
X10542981Y2947111D01*
X10529417Y2949803D01*
X10515600Y2950718D01*
X10501782Y2949803D01*
X10488168Y2947111D01*
X10475061Y2942640D01*
X10462666Y2936544D01*
X10451134Y2928823D01*
X10440720Y2919679D01*
X10431576Y2909265D01*
X10423906Y2897784D01*
X10417759Y2885338D01*
X10413339Y2872232D01*
X10410596Y2858668D01*
X10409682Y2844850D01*
X10410596Y2830982D01*
X10413339Y2817418D01*
X10417759Y2804312D01*
X10423906Y2791866D01*
X10431576Y2780385D01*
X10440720Y2769971D01*
X10451134Y2760827D01*
X10462666Y2753106D01*
X10471302Y2748838D01*
X10474299Y2746603D01*
X10476280Y2743403D01*
X10476992Y2739745D01*
X10476992Y2692908D01*
X10477804Y2684881D01*
X10479989Y2677668D01*
X10483545Y2670962D01*
X10488676Y2664764D01*
X10589564Y2563876D01*
X10595762Y2558745D01*
X10602468Y2555189D01*
X10609681Y2553004D01*
G37*
G36*
X12319508Y2602992D02*
G01*
X12826492Y2602992D01*
X12834518Y2603804D01*
X12841732Y2605989D01*
X12848437Y2609545D01*
X12854635Y2614676D01*
X13120624Y2880664D01*
X13125754Y2886862D01*
X13129310Y2893568D01*
X13131495Y2900781D01*
X13132307Y2908808D01*
X13132307Y5498592D01*
X13131495Y5506618D01*
X13129310Y5513832D01*
X13125754Y5520537D01*
X13120624Y5526735D01*
X12575235Y6072124D01*
X12569037Y6077254D01*
X12562332Y6080810D01*
X12555118Y6082995D01*
X12547092Y6083808D01*
X7195718Y6083808D01*
X7191806Y6084570D01*
X7188504Y6086805D01*
X7090054Y6185255D01*
X7087870Y6188557D01*
X7087108Y6192418D01*
X7087108Y6252159D01*
X7087819Y6255969D01*
X7089952Y6259220D01*
X7093153Y6261455D01*
X7099757Y6264402D01*
X7111949Y6271768D01*
X7123023Y6280607D01*
X7132929Y6290818D01*
X7141413Y6302197D01*
X7148372Y6314592D01*
X7153706Y6327749D01*
X7157313Y6341516D01*
X7159142Y6355588D01*
X7159142Y6369812D01*
X7157313Y6383883D01*
X7153706Y6397650D01*
X7148372Y6410807D01*
X7141413Y6423202D01*
X7132929Y6434582D01*
X7123023Y6444792D01*
X7111949Y6453632D01*
X7099757Y6460998D01*
X7086803Y6466738D01*
X7073138Y6470802D01*
X7059117Y6473088D01*
X7044944Y6473545D01*
X7030770Y6472174D01*
X7016953Y6469024D01*
X7003592Y6464096D01*
X6990994Y6457543D01*
X6979361Y6449415D01*
X6968845Y6439865D01*
X6959600Y6429044D01*
X6951878Y6417106D01*
X6945680Y6404305D01*
X6941210Y6390843D01*
X6938518Y6376873D01*
X6937603Y6362700D01*
X6938518Y6348526D01*
X6941210Y6334556D01*
X6945680Y6321094D01*
X6951878Y6308293D01*
X6959600Y6296355D01*
X6968845Y6285534D01*
X6979361Y6275984D01*
X6990994Y6267856D01*
X7004405Y6260947D01*
X7007301Y6258661D01*
X7009180Y6255512D01*
X7009892Y6251905D01*
X7009892Y6172708D01*
X7010653Y6164681D01*
X7012838Y6157468D01*
X7016394Y6150813D01*
X7021525Y6144564D01*
X7147864Y6018276D01*
X7154062Y6013145D01*
X7160768Y6009589D01*
X7167981Y6007404D01*
X7176008Y6006592D01*
X12527381Y6006592D01*
X12531293Y6005830D01*
X12534595Y6003594D01*
X13052094Y5486095D01*
X13054330Y5482793D01*
X13055092Y5478881D01*
X13055092Y2928518D01*
X13054330Y2924606D01*
X13052094Y2921304D01*
X12813995Y2683205D01*
X12810693Y2680970D01*
X12806781Y2680208D01*
X12339218Y2680208D01*
X12335306Y2680970D01*
X12332004Y2683205D01*
X12284405Y2730804D01*
X12282170Y2734106D01*
X12281408Y2738018D01*
X12282119Y2743403D01*
X12284100Y2746603D01*
X12287097Y2748838D01*
X12295733Y2753106D01*
X12307265Y2760827D01*
X12317679Y2769971D01*
X12326772Y2780385D01*
X12334494Y2791866D01*
X12340640Y2804312D01*
X12345060Y2817418D01*
X12347752Y2830982D01*
X12348667Y2844850D01*
X12347752Y2858668D01*
X12345060Y2872232D01*
X12340640Y2885338D01*
X12334494Y2897784D01*
X12326772Y2909265D01*
X12317679Y2919679D01*
X12307265Y2928823D01*
X12295733Y2936544D01*
X12283338Y2942640D01*
X12270181Y2947111D01*
X12256617Y2949803D01*
X12242800Y2950718D01*
X12228982Y2949803D01*
X12215368Y2947111D01*
X12202261Y2942640D01*
X12189866Y2936544D01*
X12178334Y2928823D01*
X12167920Y2919679D01*
X12158776Y2909265D01*
X12151106Y2897784D01*
X12144959Y2885338D01*
X12140539Y2872232D01*
X12137796Y2858668D01*
X12136882Y2844850D01*
X12137796Y2830982D01*
X12140539Y2817418D01*
X12144959Y2804312D01*
X12151106Y2791866D01*
X12158776Y2780385D01*
X12167920Y2769971D01*
X12178334Y2760827D01*
X12189866Y2753106D01*
X12198502Y2748838D01*
X12201499Y2746603D01*
X12203480Y2743403D01*
X12204192Y2739745D01*
X12204192Y2718308D01*
X12205004Y2710281D01*
X12207189Y2703068D01*
X12210745Y2696362D01*
X12215876Y2690164D01*
X12291364Y2614676D01*
X12297562Y2609545D01*
X12304268Y2605989D01*
X12311481Y2603804D01*
G37*
G36*
X10769600Y2738932D02*
G01*
X10783417Y2739847D01*
X10796981Y2742539D01*
X10810138Y2747010D01*
X10822533Y2753106D01*
X10834065Y2760827D01*
X10844479Y2769971D01*
X10853572Y2780385D01*
X10859363Y2788970D01*
X10861598Y2791409D01*
X10864545Y2792933D01*
X10867796Y2793492D01*
X10984992Y2793492D01*
X10993018Y2794304D01*
X11000232Y2796489D01*
X11006937Y2800045D01*
X11013135Y2805176D01*
X11088624Y2880664D01*
X11093754Y2886862D01*
X11097310Y2893568D01*
X11099495Y2900781D01*
X11100308Y2908808D01*
X11100308Y4152392D01*
X11099495Y4160418D01*
X11097310Y4167632D01*
X11093754Y4174337D01*
X11088624Y4180535D01*
X10733735Y4535424D01*
X10727537Y4540554D01*
X10720832Y4544110D01*
X10713618Y4546295D01*
X10705592Y4547108D01*
X4178808Y4547108D01*
X4170781Y4546295D01*
X4163568Y4544110D01*
X4156862Y4540554D01*
X4150664Y4535424D01*
X3973576Y4358335D01*
X3968445Y4352137D01*
X3964889Y4345432D01*
X3962704Y4338218D01*
X3961892Y4330192D01*
X3961892Y3933494D01*
X3961231Y3929887D01*
X3959301Y3926738D01*
X3956405Y3924503D01*
X3942994Y3917492D01*
X3931361Y3909415D01*
X3920845Y3899865D01*
X3911600Y3889044D01*
X3903878Y3877106D01*
X3897680Y3864305D01*
X3893210Y3850843D01*
X3890518Y3836873D01*
X3889603Y3822700D01*
X3890518Y3808526D01*
X3893210Y3794556D01*
X3897680Y3781094D01*
X3903878Y3768293D01*
X3911600Y3756355D01*
X3920845Y3745534D01*
X3931361Y3735984D01*
X3942994Y3727856D01*
X3955592Y3721303D01*
X3968953Y3716375D01*
X3982770Y3713226D01*
X3996944Y3711854D01*
X4011117Y3712311D01*
X4025137Y3714597D01*
X4038803Y3718610D01*
X4051757Y3724401D01*
X4063949Y3731768D01*
X4075023Y3740607D01*
X4084929Y3750818D01*
X4093413Y3762197D01*
X4100372Y3774592D01*
X4105706Y3787749D01*
X4109313Y3801516D01*
X4111142Y3815587D01*
X4111142Y3829812D01*
X4109313Y3843883D01*
X4105706Y3857650D01*
X4100372Y3870807D01*
X4093413Y3883202D01*
X4084929Y3894582D01*
X4075023Y3904792D01*
X4063949Y3913632D01*
X4051757Y3920998D01*
X4045153Y3923944D01*
X4041952Y3926179D01*
X4039870Y3929430D01*
X4039108Y3933240D01*
X4039108Y4310481D01*
X4039870Y4314393D01*
X4042105Y4317695D01*
X4191304Y4466894D01*
X4194606Y4469130D01*
X4198518Y4469892D01*
X10685881Y4469892D01*
X10689793Y4469130D01*
X10693095Y4466894D01*
X11020094Y4139895D01*
X11022330Y4136593D01*
X11023092Y4132681D01*
X11023092Y2928518D01*
X11022330Y2924606D01*
X11020094Y2921304D01*
X10972495Y2873705D01*
X10969193Y2871470D01*
X10965281Y2870708D01*
X10879683Y2870708D01*
X10875568Y2871571D01*
X10872165Y2874010D01*
X10870031Y2877616D01*
X10867440Y2885338D01*
X10861294Y2897784D01*
X10853572Y2909265D01*
X10844479Y2919679D01*
X10834065Y2928823D01*
X10822533Y2936544D01*
X10810138Y2942640D01*
X10796981Y2947111D01*
X10783417Y2949803D01*
X10769600Y2950718D01*
X10755782Y2949803D01*
X10742168Y2947111D01*
X10729061Y2942640D01*
X10716666Y2936544D01*
X10705134Y2928823D01*
X10694720Y2919679D01*
X10685576Y2909265D01*
X10677906Y2897784D01*
X10671759Y2885338D01*
X10667339Y2872232D01*
X10664596Y2858668D01*
X10663682Y2844850D01*
X10664596Y2830982D01*
X10667339Y2817418D01*
X10671759Y2804312D01*
X10677906Y2791866D01*
X10685576Y2780385D01*
X10694720Y2769971D01*
X10705134Y2760827D01*
X10716666Y2753106D01*
X10729061Y2747010D01*
X10742168Y2742539D01*
X10755782Y2739847D01*
G37*
G36*
X12496800Y2738932D02*
G01*
X12510617Y2739847D01*
X12524181Y2742539D01*
X12537338Y2747010D01*
X12549733Y2753106D01*
X12561265Y2760827D01*
X12571679Y2769971D01*
X12580772Y2780385D01*
X12586563Y2788970D01*
X12588798Y2791409D01*
X12591745Y2792933D01*
X12594996Y2793492D01*
X12712192Y2793492D01*
X12720218Y2794304D01*
X12727432Y2796489D01*
X12734137Y2800045D01*
X12740335Y2805176D01*
X12904724Y2969564D01*
X12909854Y2975762D01*
X12913410Y2982468D01*
X12915595Y2989681D01*
X12916408Y2997708D01*
X12916408Y5346192D01*
X12915595Y5354218D01*
X12913410Y5361432D01*
X12909854Y5368137D01*
X12904724Y5374335D01*
X12346635Y5932424D01*
X12340437Y5937554D01*
X12333732Y5941110D01*
X12326518Y5943295D01*
X12318492Y5944108D01*
X7030618Y5944108D01*
X7026706Y5944870D01*
X7023404Y5947105D01*
X6836105Y6134404D01*
X6833870Y6137706D01*
X6833108Y6141618D01*
X6833108Y6252159D01*
X6833870Y6255969D01*
X6835952Y6259220D01*
X6839153Y6261455D01*
X6845757Y6264402D01*
X6857949Y6271768D01*
X6869023Y6280607D01*
X6878929Y6290818D01*
X6887413Y6302197D01*
X6894372Y6314592D01*
X6899706Y6327749D01*
X6903313Y6341516D01*
X6905142Y6355588D01*
X6905142Y6369812D01*
X6903313Y6383883D01*
X6899706Y6397650D01*
X6894372Y6410807D01*
X6887413Y6423202D01*
X6878929Y6434582D01*
X6869023Y6444792D01*
X6857949Y6453632D01*
X6845757Y6460998D01*
X6832803Y6466738D01*
X6819138Y6470802D01*
X6805117Y6473088D01*
X6790944Y6473545D01*
X6776770Y6472174D01*
X6762953Y6469024D01*
X6749592Y6464096D01*
X6736994Y6457543D01*
X6725361Y6449415D01*
X6714845Y6439865D01*
X6705600Y6429044D01*
X6697878Y6417106D01*
X6691680Y6404305D01*
X6687210Y6390843D01*
X6684518Y6376873D01*
X6683603Y6362700D01*
X6684518Y6348526D01*
X6687210Y6334556D01*
X6691680Y6321094D01*
X6697878Y6308293D01*
X6705600Y6296355D01*
X6714845Y6285534D01*
X6725361Y6275984D01*
X6736994Y6267907D01*
X6750405Y6260896D01*
X6753301Y6258661D01*
X6755231Y6255512D01*
X6755892Y6251905D01*
X6755892Y6121908D01*
X6756704Y6113881D01*
X6758889Y6106668D01*
X6762445Y6099962D01*
X6767575Y6093764D01*
X6982764Y5878576D01*
X6988962Y5873445D01*
X6995668Y5869889D01*
X7002881Y5867704D01*
X7010908Y5866892D01*
X12298781Y5866892D01*
X12302693Y5866130D01*
X12305995Y5863894D01*
X12836194Y5333695D01*
X12838430Y5330393D01*
X12839192Y5326481D01*
X12839192Y3017418D01*
X12838430Y3013506D01*
X12836194Y3010204D01*
X12699695Y2873705D01*
X12696393Y2871470D01*
X12692481Y2870708D01*
X12606883Y2870708D01*
X12602768Y2871571D01*
X12599365Y2874010D01*
X12597231Y2877616D01*
X12594640Y2885338D01*
X12588494Y2897784D01*
X12580772Y2909265D01*
X12571679Y2919679D01*
X12561265Y2928823D01*
X12549733Y2936544D01*
X12537338Y2942640D01*
X12524181Y2947111D01*
X12510617Y2949803D01*
X12496800Y2950718D01*
X12482982Y2949803D01*
X12469368Y2947111D01*
X12456261Y2942640D01*
X12443866Y2936544D01*
X12432334Y2928823D01*
X12421920Y2919679D01*
X12412776Y2909265D01*
X12405106Y2897784D01*
X12398959Y2885338D01*
X12394539Y2872232D01*
X12391796Y2858668D01*
X12390882Y2844850D01*
X12391796Y2830982D01*
X12394539Y2817418D01*
X12398959Y2804312D01*
X12405106Y2791866D01*
X12412776Y2780385D01*
X12421920Y2769971D01*
X12432334Y2760827D01*
X12443866Y2753106D01*
X12456261Y2747010D01*
X12469368Y2742539D01*
X12482982Y2739847D01*
G37*
G36*
X10215219Y2749854D02*
G01*
X10215219Y2798470D01*
X10166604Y2798470D01*
X10169855Y2791866D01*
X10177576Y2780385D01*
X10186720Y2769971D01*
X10197134Y2760827D01*
X10208615Y2753106D01*
G37*
G36*
X12035129Y2749854D02*
G01*
X12041733Y2753106D01*
X12053265Y2760827D01*
X12063679Y2769971D01*
X12072772Y2780385D01*
X12080494Y2791866D01*
X12083745Y2798470D01*
X12035129Y2798470D01*
G37*
G36*
X10307929Y2749854D02*
G01*
X10314533Y2753106D01*
X10326014Y2760827D01*
X10336428Y2769971D01*
X10345572Y2780385D01*
X10353294Y2791866D01*
X10356545Y2798470D01*
X10307929Y2798470D01*
G37*
G36*
X11942419Y2749854D02*
G01*
X11942419Y2798470D01*
X11893854Y2798470D01*
X11897106Y2791866D01*
X11904776Y2780385D01*
X11913920Y2769971D01*
X11924334Y2760827D01*
X11935866Y2753106D01*
G37*
G36*
X9351772Y2765094D02*
G01*
X9408820Y2765094D01*
X9408820Y2866847D01*
X9402216Y2863596D01*
X9391243Y2856280D01*
X9381337Y2847594D01*
X9372600Y2837637D01*
X9365284Y2826664D01*
X9359442Y2814828D01*
X9355226Y2802331D01*
X9352635Y2789428D01*
X9351772Y2775915D01*
G37*
G36*
X9496501Y2765094D02*
G01*
X9553549Y2765094D01*
X9553549Y2775915D01*
X9552686Y2789428D01*
X9550095Y2802331D01*
X9545878Y2814828D01*
X9540036Y2826664D01*
X9532721Y2837637D01*
X9523984Y2847594D01*
X9514078Y2856280D01*
X9503105Y2863596D01*
X9496501Y2866847D01*
G37*
G36*
X8872982Y2815336D02*
G01*
X9102344Y2815336D01*
X9115806Y2816250D01*
X9128760Y2818790D01*
X9141256Y2823057D01*
X9153093Y2828899D01*
X9164066Y2836214D01*
X9174022Y2844901D01*
X9182709Y2854858D01*
X9190024Y2865831D01*
X9195866Y2877667D01*
X9200134Y2890113D01*
X9202674Y2903067D01*
X9203537Y2916224D01*
X9202674Y2929432D01*
X9200134Y2942336D01*
X9195866Y2954832D01*
X9190024Y2966669D01*
X9182709Y2977642D01*
X9174022Y2987598D01*
X9164066Y2996285D01*
X9153093Y3003600D01*
X9141256Y3009442D01*
X9128760Y3013710D01*
X9115806Y3016250D01*
X9102344Y3017164D01*
X8872982Y3017164D01*
X8859520Y3016250D01*
X8846566Y3013710D01*
X8834069Y3009442D01*
X8822232Y3003600D01*
X8811260Y2996285D01*
X8801303Y2987598D01*
X8792616Y2977642D01*
X8785301Y2966669D01*
X8779459Y2954832D01*
X8775192Y2942336D01*
X8772652Y2929432D01*
X8771788Y2916224D01*
X8772652Y2903067D01*
X8775192Y2890113D01*
X8779459Y2877667D01*
X8785301Y2865831D01*
X8792616Y2854858D01*
X8801303Y2844901D01*
X8811260Y2836214D01*
X8822232Y2828899D01*
X8834069Y2823057D01*
X8846566Y2818790D01*
X8859520Y2816250D01*
G37*
G36*
X7937804Y2875432D02*
G01*
X7952384Y2875432D01*
X7966811Y2877261D01*
X7980883Y2880868D01*
X7994446Y2886252D01*
X8007197Y2893263D01*
X8018932Y2901797D01*
X8029549Y2911754D01*
X8038846Y2922981D01*
X8046618Y2935274D01*
X8050377Y2943250D01*
X8052612Y2946298D01*
X8055864Y2948381D01*
X8059572Y2949092D01*
X8063331Y2948381D01*
X8066531Y2946298D01*
X8068767Y2943250D01*
X8072526Y2935274D01*
X8080349Y2922981D01*
X8089595Y2911754D01*
X8100212Y2901797D01*
X8111998Y2893263D01*
X8124748Y2886252D01*
X8138261Y2880868D01*
X8152384Y2877261D01*
X8166811Y2875432D01*
X8181340Y2875432D01*
X8195818Y2877261D01*
X8209889Y2880868D01*
X8223453Y2886252D01*
X8236203Y2893263D01*
X8247938Y2901797D01*
X8258556Y2911754D01*
X8267852Y2922981D01*
X8275624Y2935274D01*
X8281822Y2948432D01*
X8286343Y2962249D01*
X8289036Y2976575D01*
X8289950Y2991104D01*
X8289036Y3005632D01*
X8286343Y3019907D01*
X8281822Y3033776D01*
X8275624Y3046933D01*
X8267852Y3059226D01*
X8258556Y3070402D01*
X8247938Y3080410D01*
X8236203Y3088944D01*
X8223453Y3095955D01*
X8209889Y3101289D01*
X8195818Y3104946D01*
X8181340Y3106775D01*
X8166811Y3106775D01*
X8152384Y3104946D01*
X8138261Y3101289D01*
X8124748Y3095955D01*
X8111998Y3088944D01*
X8100212Y3080410D01*
X8089595Y3070402D01*
X8080349Y3059226D01*
X8072526Y3046933D01*
X8068767Y3038957D01*
X8066531Y3035858D01*
X8063331Y3033826D01*
X8059572Y3033115D01*
X8055864Y3033826D01*
X8052612Y3035858D01*
X8050377Y3038957D01*
X8046618Y3046933D01*
X8038846Y3059226D01*
X8029549Y3070402D01*
X8018932Y3080410D01*
X8007197Y3088944D01*
X7994446Y3095955D01*
X7980883Y3101289D01*
X7966811Y3104946D01*
X7952384Y3106775D01*
X7937804Y3106775D01*
X7923377Y3104946D01*
X7909255Y3101289D01*
X7895742Y3095955D01*
X7882991Y3088944D01*
X7871206Y3080410D01*
X7860588Y3070402D01*
X7851343Y3059226D01*
X7843520Y3046933D01*
X7837322Y3033776D01*
X7832852Y3019907D01*
X7830108Y3005632D01*
X7829194Y2991104D01*
X7830108Y2976575D01*
X7832852Y2962249D01*
X7837322Y2948432D01*
X7843520Y2935274D01*
X7851343Y2922981D01*
X7860588Y2911754D01*
X7871206Y2901797D01*
X7882991Y2893263D01*
X7895742Y2886252D01*
X7909255Y2880868D01*
X7923377Y2877261D01*
G37*
G36*
X2054809Y2875432D02*
G01*
X2069388Y2875432D01*
X2083816Y2877261D01*
X2097887Y2880868D01*
X2111451Y2886252D01*
X2124202Y2893263D01*
X2135987Y2901797D01*
X2146554Y2911754D01*
X2155850Y2922981D01*
X2163673Y2935274D01*
X2167382Y2943250D01*
X2169668Y2946298D01*
X2172868Y2948381D01*
X2176576Y2949092D01*
X2180336Y2948381D01*
X2183536Y2946298D01*
X2185771Y2943250D01*
X2189530Y2935274D01*
X2197354Y2922981D01*
X2206599Y2911754D01*
X2217216Y2901797D01*
X2229002Y2893263D01*
X2241753Y2886252D01*
X2255266Y2880868D01*
X2269388Y2877261D01*
X2283815Y2875432D01*
X2298395Y2875432D01*
X2312822Y2877261D01*
X2326894Y2880868D01*
X2340457Y2886252D01*
X2353208Y2893263D01*
X2364943Y2901797D01*
X2375560Y2911754D01*
X2384856Y2922981D01*
X2392629Y2935274D01*
X2398826Y2948432D01*
X2403348Y2962249D01*
X2406091Y2976575D01*
X2407005Y2991104D01*
X2406091Y3005632D01*
X2403348Y3019907D01*
X2398826Y3033776D01*
X2392629Y3046933D01*
X2384856Y3059226D01*
X2375560Y3070402D01*
X2364943Y3080410D01*
X2353208Y3088944D01*
X2340457Y3095955D01*
X2326894Y3101289D01*
X2312822Y3104946D01*
X2298395Y3106775D01*
X2283815Y3106775D01*
X2269388Y3104946D01*
X2255266Y3101289D01*
X2241753Y3095955D01*
X2229002Y3088944D01*
X2217216Y3080410D01*
X2206599Y3070402D01*
X2197354Y3059226D01*
X2189530Y3046933D01*
X2185771Y3038957D01*
X2183536Y3035858D01*
X2180336Y3033826D01*
X2176576Y3033115D01*
X2172868Y3033826D01*
X2169668Y3035858D01*
X2167382Y3038957D01*
X2163673Y3046933D01*
X2155850Y3059226D01*
X2146554Y3070402D01*
X2135987Y3080410D01*
X2124202Y3088944D01*
X2111451Y3095955D01*
X2097887Y3101289D01*
X2083816Y3104946D01*
X2069388Y3106775D01*
X2054809Y3106775D01*
X2040382Y3104946D01*
X2026310Y3101289D01*
X2012746Y3095955D01*
X1999996Y3088944D01*
X1988210Y3080410D01*
X1977643Y3070402D01*
X1968347Y3059226D01*
X1960524Y3046933D01*
X1954326Y3033776D01*
X1949856Y3019907D01*
X1947113Y3005632D01*
X1946198Y2991104D01*
X1947113Y2976575D01*
X1949856Y2962249D01*
X1954326Y2948432D01*
X1960524Y2935274D01*
X1968347Y2922981D01*
X1977643Y2911754D01*
X1988210Y2901797D01*
X1999996Y2893263D01*
X2012746Y2886252D01*
X2026310Y2880868D01*
X2040382Y2877261D01*
G37*
G36*
X6357823Y2875432D02*
G01*
X6372352Y2875432D01*
X6386830Y2877261D01*
X6400901Y2880868D01*
X6414414Y2886252D01*
X6427165Y2893263D01*
X6438950Y2901797D01*
X6449568Y2911754D01*
X6458864Y2922981D01*
X6466636Y2935274D01*
X6470396Y2943250D01*
X6472631Y2946298D01*
X6475831Y2948381D01*
X6479590Y2949092D01*
X6483350Y2948381D01*
X6486550Y2946298D01*
X6488785Y2943250D01*
X6492544Y2935274D01*
X6500317Y2922981D01*
X6509613Y2911754D01*
X6520230Y2901797D01*
X6532016Y2893263D01*
X6544767Y2886252D01*
X6558280Y2880868D01*
X6572351Y2877261D01*
X6586829Y2875432D01*
X6601358Y2875432D01*
X6615785Y2877261D01*
X6629908Y2880868D01*
X6643420Y2886252D01*
X6656171Y2893263D01*
X6667957Y2901797D01*
X6678574Y2911754D01*
X6687820Y2922981D01*
X6689496Y2925622D01*
X6692341Y2928518D01*
X6696049Y2930093D01*
X6700113Y2930093D01*
X6703872Y2928518D01*
X6706666Y2925622D01*
X6708343Y2922981D01*
X6717588Y2911754D01*
X6728206Y2901797D01*
X6739991Y2893263D01*
X6752742Y2886252D01*
X6766255Y2880868D01*
X6780377Y2877261D01*
X6794804Y2875432D01*
X6809384Y2875432D01*
X6823811Y2877261D01*
X6837883Y2880868D01*
X6851446Y2886252D01*
X6864197Y2893263D01*
X6875983Y2901797D01*
X6886549Y2911754D01*
X6895846Y2922981D01*
X6903618Y2935274D01*
X6907377Y2943250D01*
X6909612Y2946298D01*
X6912864Y2948381D01*
X6916572Y2949092D01*
X6920331Y2948381D01*
X6923531Y2946298D01*
X6925767Y2943250D01*
X6929526Y2935274D01*
X6937349Y2922981D01*
X6946595Y2911754D01*
X6957212Y2901797D01*
X6968998Y2893263D01*
X6981748Y2886252D01*
X6995261Y2880868D01*
X7009384Y2877261D01*
X7023811Y2875432D01*
X7038340Y2875432D01*
X7052818Y2877261D01*
X7066889Y2880868D01*
X7080453Y2886252D01*
X7093203Y2893263D01*
X7104938Y2901797D01*
X7115556Y2911754D01*
X7124852Y2922981D01*
X7132624Y2935274D01*
X7138822Y2948432D01*
X7143343Y2962249D01*
X7146086Y2976575D01*
X7147001Y2991104D01*
X7146086Y3005632D01*
X7143343Y3019907D01*
X7138822Y3033776D01*
X7132624Y3046933D01*
X7124852Y3059226D01*
X7115556Y3070402D01*
X7104938Y3080410D01*
X7093203Y3088944D01*
X7080453Y3095955D01*
X7066889Y3101289D01*
X7052818Y3104946D01*
X7038340Y3106775D01*
X7023811Y3106775D01*
X7009384Y3104946D01*
X6995261Y3101289D01*
X6981748Y3095955D01*
X6968998Y3088944D01*
X6957212Y3080410D01*
X6946595Y3070402D01*
X6937349Y3059226D01*
X6929526Y3046933D01*
X6925767Y3038957D01*
X6923531Y3035858D01*
X6920331Y3033826D01*
X6916572Y3033115D01*
X6912864Y3033826D01*
X6909612Y3035858D01*
X6907377Y3038957D01*
X6903618Y3046933D01*
X6895846Y3059226D01*
X6886549Y3070402D01*
X6875983Y3080410D01*
X6864197Y3088944D01*
X6851446Y3095955D01*
X6837883Y3101289D01*
X6823811Y3104946D01*
X6809384Y3106775D01*
X6794804Y3106775D01*
X6780377Y3104946D01*
X6766255Y3101289D01*
X6752742Y3095955D01*
X6739991Y3088944D01*
X6728206Y3080410D01*
X6717588Y3070402D01*
X6708343Y3059226D01*
X6706666Y3056585D01*
X6703872Y3053638D01*
X6700113Y3052064D01*
X6696049Y3052064D01*
X6692341Y3053638D01*
X6689496Y3056585D01*
X6687820Y3059226D01*
X6678574Y3070402D01*
X6667957Y3080410D01*
X6656171Y3088944D01*
X6643420Y3095955D01*
X6629908Y3101289D01*
X6615785Y3104946D01*
X6601358Y3106775D01*
X6586829Y3106775D01*
X6572351Y3104946D01*
X6558280Y3101289D01*
X6544767Y3095955D01*
X6532016Y3088944D01*
X6520230Y3080410D01*
X6509613Y3070402D01*
X6500317Y3059226D01*
X6492544Y3046933D01*
X6488785Y3038957D01*
X6486550Y3035858D01*
X6483350Y3033826D01*
X6479590Y3033115D01*
X6475831Y3033826D01*
X6472631Y3035858D01*
X6470396Y3038957D01*
X6466636Y3046933D01*
X6458864Y3059226D01*
X6449568Y3070402D01*
X6438950Y3080410D01*
X6427165Y3088944D01*
X6414414Y3095955D01*
X6400901Y3101289D01*
X6386830Y3104946D01*
X6372352Y3106775D01*
X6357823Y3106775D01*
X6343396Y3104946D01*
X6329273Y3101289D01*
X6315760Y3095955D01*
X6303010Y3088944D01*
X6291224Y3080410D01*
X6280607Y3070402D01*
X6271310Y3059226D01*
X6263538Y3046933D01*
X6257340Y3033776D01*
X6252819Y3019907D01*
X6250127Y3005632D01*
X6249212Y2991104D01*
X6250127Y2976575D01*
X6252819Y2962249D01*
X6257340Y2948432D01*
X6263538Y2935274D01*
X6271310Y2922981D01*
X6280607Y2911754D01*
X6291224Y2901797D01*
X6303010Y2893263D01*
X6315760Y2886252D01*
X6329273Y2880868D01*
X6343396Y2877261D01*
G37*
G36*
X10307929Y2891180D02*
G01*
X10356545Y2891180D01*
X10353294Y2897784D01*
X10345572Y2909265D01*
X10336428Y2919679D01*
X10326014Y2928823D01*
X10314533Y2936544D01*
X10307929Y2939796D01*
G37*
G36*
X12035129Y2891180D02*
G01*
X12083745Y2891180D01*
X12080494Y2897784D01*
X12072772Y2909265D01*
X12063679Y2919679D01*
X12053265Y2928823D01*
X12041733Y2936544D01*
X12035129Y2939796D01*
G37*
G36*
X11893854Y2891180D02*
G01*
X11942419Y2891180D01*
X11942419Y2939796D01*
X11935866Y2936544D01*
X11924334Y2928823D01*
X11913920Y2919679D01*
X11904776Y2909265D01*
X11897106Y2897784D01*
G37*
G36*
X10166604Y2891180D02*
G01*
X10215219Y2891180D01*
X10215219Y2939796D01*
X10208615Y2936544D01*
X10197134Y2928823D01*
X10186720Y2919679D01*
X10177576Y2909265D01*
X10169855Y2897784D01*
G37*
G36*
X10134600Y2992932D02*
G01*
X10148417Y2993847D01*
X10161981Y2996539D01*
X10175138Y3001010D01*
X10187533Y3007106D01*
X10199065Y3014827D01*
X10209479Y3023971D01*
X10218572Y3034385D01*
X10226294Y3045866D01*
X10232440Y3058312D01*
X10236860Y3071418D01*
X10239552Y3084982D01*
X10240467Y3098850D01*
X10239552Y3112668D01*
X10236860Y3126232D01*
X10232440Y3139338D01*
X10226294Y3151784D01*
X10218572Y3163265D01*
X10209479Y3173679D01*
X10199065Y3182823D01*
X10187533Y3190544D01*
X10175138Y3196640D01*
X10161981Y3201111D01*
X10148417Y3203803D01*
X10134600Y3204718D01*
X10120782Y3203803D01*
X10107168Y3201111D01*
X10094061Y3196640D01*
X10081666Y3190544D01*
X10070134Y3182823D01*
X10059720Y3173679D01*
X10050576Y3163265D01*
X10042906Y3151784D01*
X10036759Y3139338D01*
X10032339Y3126232D01*
X10029596Y3112668D01*
X10028682Y3098850D01*
X10029596Y3084982D01*
X10032339Y3071418D01*
X10036759Y3058312D01*
X10042906Y3045866D01*
X10050576Y3034385D01*
X10059720Y3023971D01*
X10070134Y3014827D01*
X10081666Y3007106D01*
X10094061Y3001010D01*
X10107168Y2996539D01*
X10120782Y2993847D01*
G37*
G36*
X11861800Y2992932D02*
G01*
X11875617Y2993847D01*
X11889181Y2996539D01*
X11902338Y3001010D01*
X11914733Y3007106D01*
X11926265Y3014827D01*
X11936679Y3023971D01*
X11945772Y3034385D01*
X11953494Y3045866D01*
X11959640Y3058312D01*
X11964060Y3071418D01*
X11966752Y3084982D01*
X11967667Y3098850D01*
X11966752Y3112668D01*
X11964060Y3126232D01*
X11959640Y3139338D01*
X11953494Y3151784D01*
X11945772Y3163265D01*
X11936679Y3173679D01*
X11926265Y3182823D01*
X11914733Y3190544D01*
X11902338Y3196640D01*
X11889181Y3201111D01*
X11875617Y3203803D01*
X11861800Y3204718D01*
X11847982Y3203803D01*
X11834368Y3201111D01*
X11821261Y3196640D01*
X11808866Y3190544D01*
X11797334Y3182823D01*
X11786920Y3173679D01*
X11777776Y3163265D01*
X11770106Y3151784D01*
X11763959Y3139338D01*
X11759539Y3126232D01*
X11756796Y3112668D01*
X11755882Y3098850D01*
X11756796Y3084982D01*
X11759539Y3071418D01*
X11763959Y3058312D01*
X11770106Y3045866D01*
X11777776Y3034385D01*
X11786920Y3023971D01*
X11797334Y3014827D01*
X11808866Y3007106D01*
X11821261Y3001010D01*
X11834368Y2996539D01*
X11847982Y2993847D01*
G37*
G36*
X12369800Y2992932D02*
G01*
X12383617Y2993847D01*
X12397181Y2996539D01*
X12410338Y3001010D01*
X12422733Y3007106D01*
X12434265Y3014827D01*
X12444679Y3023971D01*
X12453772Y3034385D01*
X12461494Y3045866D01*
X12467640Y3058312D01*
X12472060Y3071418D01*
X12474752Y3084982D01*
X12475667Y3098850D01*
X12474752Y3112668D01*
X12472060Y3126232D01*
X12467640Y3139338D01*
X12461494Y3151784D01*
X12453772Y3163265D01*
X12444679Y3173679D01*
X12434265Y3182823D01*
X12422733Y3190544D01*
X12410338Y3196640D01*
X12397181Y3201111D01*
X12383617Y3203803D01*
X12369800Y3204718D01*
X12355982Y3203803D01*
X12342368Y3201111D01*
X12329261Y3196640D01*
X12316866Y3190544D01*
X12305334Y3182823D01*
X12294920Y3173679D01*
X12285776Y3163265D01*
X12278106Y3151784D01*
X12271959Y3139338D01*
X12267539Y3126232D01*
X12264796Y3112668D01*
X12263882Y3098850D01*
X12264796Y3084982D01*
X12267539Y3071418D01*
X12271959Y3058312D01*
X12278106Y3045866D01*
X12285776Y3034385D01*
X12294920Y3023971D01*
X12305334Y3014827D01*
X12316866Y3007106D01*
X12329261Y3001010D01*
X12342368Y2996539D01*
X12355982Y2993847D01*
G37*
G36*
X10642600Y2992932D02*
G01*
X10656417Y2993847D01*
X10669981Y2996539D01*
X10683138Y3001010D01*
X10695533Y3007106D01*
X10707065Y3014827D01*
X10717479Y3023971D01*
X10726572Y3034385D01*
X10734294Y3045866D01*
X10740440Y3058312D01*
X10744860Y3071418D01*
X10747552Y3084982D01*
X10748467Y3098850D01*
X10747552Y3112668D01*
X10744860Y3126232D01*
X10740440Y3139338D01*
X10734294Y3151784D01*
X10726572Y3163265D01*
X10717479Y3173679D01*
X10710062Y3180181D01*
X10707522Y3183636D01*
X10706608Y3187801D01*
X10706608Y4050792D01*
X10705795Y4058818D01*
X10703610Y4066032D01*
X10700054Y4072737D01*
X10694924Y4078935D01*
X10594035Y4179824D01*
X10587837Y4184954D01*
X10581132Y4188510D01*
X10573918Y4190695D01*
X10565892Y4191508D01*
X4648708Y4191508D01*
X4640681Y4190695D01*
X4633468Y4188510D01*
X4626762Y4184954D01*
X4620564Y4179824D01*
X4481576Y4040835D01*
X4476445Y4034637D01*
X4472889Y4027932D01*
X4470704Y4020718D01*
X4469892Y4012692D01*
X4469892Y3933494D01*
X4469231Y3929887D01*
X4467301Y3926738D01*
X4464405Y3924503D01*
X4450994Y3917492D01*
X4439361Y3909415D01*
X4428845Y3899865D01*
X4419600Y3889044D01*
X4411878Y3877106D01*
X4405680Y3864305D01*
X4401210Y3850843D01*
X4398518Y3836873D01*
X4397603Y3822700D01*
X4398518Y3808526D01*
X4401210Y3794556D01*
X4405680Y3781094D01*
X4411878Y3768293D01*
X4419600Y3756355D01*
X4428845Y3745534D01*
X4439361Y3735984D01*
X4450994Y3727856D01*
X4463592Y3721303D01*
X4476953Y3716375D01*
X4490770Y3713226D01*
X4504944Y3711854D01*
X4519117Y3712311D01*
X4533138Y3714597D01*
X4546803Y3718610D01*
X4559757Y3724401D01*
X4571949Y3731768D01*
X4583023Y3740607D01*
X4592929Y3750818D01*
X4601413Y3762197D01*
X4608372Y3774592D01*
X4613706Y3787749D01*
X4617313Y3801516D01*
X4619142Y3815587D01*
X4619142Y3829812D01*
X4617313Y3843883D01*
X4613706Y3857650D01*
X4608372Y3870807D01*
X4601413Y3883202D01*
X4592929Y3894582D01*
X4583023Y3904792D01*
X4571949Y3913632D01*
X4559757Y3920998D01*
X4553153Y3923944D01*
X4549952Y3926179D01*
X4547870Y3929430D01*
X4547108Y3933240D01*
X4547108Y3992981D01*
X4547870Y3996893D01*
X4550105Y4000195D01*
X4661204Y4111294D01*
X4664506Y4113529D01*
X4668418Y4114292D01*
X10546181Y4114292D01*
X10550093Y4113529D01*
X10553395Y4111294D01*
X10626394Y4038295D01*
X10628630Y4034993D01*
X10629392Y4031081D01*
X10629392Y3212287D01*
X10628782Y3208832D01*
X10627106Y3205835D01*
X10624464Y3203549D01*
X10621213Y3202279D01*
X10615168Y3201111D01*
X10602061Y3196640D01*
X10589666Y3190544D01*
X10578134Y3182823D01*
X10567720Y3173679D01*
X10558576Y3163265D01*
X10550906Y3151784D01*
X10544759Y3139338D01*
X10540339Y3126232D01*
X10537596Y3112668D01*
X10536682Y3098850D01*
X10537596Y3084982D01*
X10540339Y3071418D01*
X10544759Y3058312D01*
X10550906Y3045866D01*
X10558576Y3034385D01*
X10567720Y3023971D01*
X10578134Y3014827D01*
X10589666Y3007106D01*
X10602061Y3001010D01*
X10615168Y2996539D01*
X10628782Y2993847D01*
G37*
G36*
X10896600Y2992932D02*
G01*
X10910417Y2993847D01*
X10923981Y2996539D01*
X10937138Y3001010D01*
X10949533Y3007106D01*
X10961065Y3014827D01*
X10971479Y3023971D01*
X10980572Y3034385D01*
X10988294Y3045866D01*
X10994440Y3058312D01*
X10998860Y3071418D01*
X11001552Y3084982D01*
X11002467Y3098850D01*
X11001552Y3112668D01*
X10998860Y3126232D01*
X10994440Y3139338D01*
X10988294Y3151784D01*
X10980572Y3163265D01*
X10971479Y3173679D01*
X10961065Y3182823D01*
X10949533Y3190544D01*
X10940897Y3194812D01*
X10937900Y3197047D01*
X10935919Y3200247D01*
X10935208Y3203905D01*
X10935208Y4076192D01*
X10934395Y4084218D01*
X10932210Y4091432D01*
X10928654Y4098137D01*
X10923524Y4104335D01*
X10657535Y4370324D01*
X10651337Y4375454D01*
X10644632Y4379010D01*
X10637418Y4381195D01*
X10629392Y4382008D01*
X4420108Y4382008D01*
X4412081Y4381195D01*
X4404868Y4379010D01*
X4398162Y4375454D01*
X4391964Y4370324D01*
X4227576Y4205935D01*
X4222445Y4199737D01*
X4218889Y4193032D01*
X4216704Y4185818D01*
X4215892Y4177792D01*
X4215892Y3933494D01*
X4215231Y3929887D01*
X4213301Y3926738D01*
X4210405Y3924503D01*
X4196994Y3917492D01*
X4185361Y3909415D01*
X4174845Y3899865D01*
X4165600Y3889044D01*
X4157878Y3877106D01*
X4151680Y3864305D01*
X4147210Y3850843D01*
X4144518Y3836873D01*
X4143603Y3822700D01*
X4144518Y3808526D01*
X4147210Y3794556D01*
X4151680Y3781094D01*
X4157878Y3768293D01*
X4165600Y3756355D01*
X4174845Y3745534D01*
X4185361Y3735984D01*
X4196994Y3727856D01*
X4209592Y3721303D01*
X4222953Y3716375D01*
X4236770Y3713226D01*
X4250944Y3711854D01*
X4265117Y3712311D01*
X4279138Y3714597D01*
X4292803Y3718610D01*
X4305757Y3724401D01*
X4317949Y3731768D01*
X4329023Y3740607D01*
X4338929Y3750818D01*
X4347413Y3762197D01*
X4354372Y3774592D01*
X4359706Y3787749D01*
X4363313Y3801516D01*
X4365142Y3815587D01*
X4365142Y3829812D01*
X4363313Y3843883D01*
X4359706Y3857650D01*
X4354372Y3870807D01*
X4347413Y3883202D01*
X4338929Y3894582D01*
X4329023Y3904792D01*
X4317949Y3913632D01*
X4305757Y3920998D01*
X4299153Y3923944D01*
X4295952Y3926179D01*
X4293870Y3929430D01*
X4293108Y3933240D01*
X4293108Y4158081D01*
X4293870Y4161993D01*
X4296105Y4165295D01*
X4432604Y4301794D01*
X4435906Y4304030D01*
X4439818Y4304792D01*
X10609681Y4304792D01*
X10613593Y4304030D01*
X10616895Y4301794D01*
X10854994Y4063695D01*
X10857230Y4060393D01*
X10857992Y4056481D01*
X10857992Y3203905D01*
X10857280Y3200247D01*
X10855299Y3197047D01*
X10852302Y3194812D01*
X10843666Y3190544D01*
X10832134Y3182823D01*
X10821720Y3173679D01*
X10812576Y3163265D01*
X10804906Y3151784D01*
X10798759Y3139338D01*
X10794339Y3126232D01*
X10791596Y3112668D01*
X10790682Y3098850D01*
X10791596Y3084982D01*
X10794339Y3071418D01*
X10798759Y3058312D01*
X10804906Y3045866D01*
X10812576Y3034385D01*
X10821720Y3023971D01*
X10832134Y3014827D01*
X10843666Y3007106D01*
X10856061Y3001010D01*
X10869168Y2996539D01*
X10882782Y2993847D01*
G37*
G36*
X12623800Y2992932D02*
G01*
X12637617Y2993847D01*
X12651181Y2996539D01*
X12664338Y3001010D01*
X12676733Y3007106D01*
X12688265Y3014827D01*
X12698679Y3023971D01*
X12707772Y3034385D01*
X12715494Y3045866D01*
X12721640Y3058312D01*
X12726060Y3071418D01*
X12728752Y3084982D01*
X12729667Y3098850D01*
X12728752Y3112668D01*
X12726060Y3126232D01*
X12721640Y3139338D01*
X12715494Y3151784D01*
X12707772Y3163265D01*
X12698679Y3173679D01*
X12688265Y3182823D01*
X12676733Y3190544D01*
X12664338Y3196640D01*
X12656616Y3199282D01*
X12653010Y3201416D01*
X12650571Y3204819D01*
X12649708Y3208883D01*
X12649708Y5333492D01*
X12648895Y5341518D01*
X12646710Y5348732D01*
X12643154Y5355437D01*
X12638024Y5361635D01*
X12219635Y5780024D01*
X12213437Y5785154D01*
X12206732Y5788710D01*
X12199518Y5790895D01*
X12191492Y5791708D01*
X6878218Y5791708D01*
X6874306Y5792470D01*
X6871004Y5794705D01*
X6582105Y6083604D01*
X6579870Y6086906D01*
X6579108Y6090818D01*
X6579108Y6252159D01*
X6579870Y6255969D01*
X6581952Y6259220D01*
X6585153Y6261455D01*
X6591757Y6264402D01*
X6603949Y6271768D01*
X6615023Y6280607D01*
X6624929Y6290818D01*
X6633413Y6302197D01*
X6640372Y6314592D01*
X6645706Y6327749D01*
X6649313Y6341516D01*
X6651142Y6355588D01*
X6651142Y6369812D01*
X6649313Y6383883D01*
X6645706Y6397650D01*
X6640372Y6410807D01*
X6633413Y6423202D01*
X6624929Y6434582D01*
X6615023Y6444792D01*
X6603949Y6453632D01*
X6591757Y6460998D01*
X6578803Y6466738D01*
X6565138Y6470802D01*
X6551117Y6473088D01*
X6536944Y6473545D01*
X6522770Y6472174D01*
X6508953Y6469024D01*
X6495592Y6464096D01*
X6482994Y6457543D01*
X6471361Y6449415D01*
X6460845Y6439865D01*
X6451600Y6429044D01*
X6443878Y6417106D01*
X6437680Y6404305D01*
X6433210Y6390843D01*
X6430518Y6376873D01*
X6429603Y6362700D01*
X6430518Y6348526D01*
X6433210Y6334556D01*
X6437680Y6321094D01*
X6443878Y6308293D01*
X6451600Y6296355D01*
X6460845Y6285534D01*
X6471361Y6275984D01*
X6482994Y6267907D01*
X6496405Y6260896D01*
X6499301Y6258661D01*
X6501231Y6255512D01*
X6501892Y6251905D01*
X6501892Y6071108D01*
X6502704Y6063081D01*
X6504889Y6055868D01*
X6508445Y6049162D01*
X6513576Y6042964D01*
X6830364Y5726176D01*
X6836562Y5721045D01*
X6843268Y5717489D01*
X6850481Y5715304D01*
X6858508Y5714492D01*
X12171781Y5714492D01*
X12175693Y5713730D01*
X12178995Y5711494D01*
X12569494Y5320995D01*
X12571730Y5317693D01*
X12572492Y5313781D01*
X12572492Y3197047D01*
X12571933Y3193796D01*
X12570409Y3190849D01*
X12567970Y3188614D01*
X12559334Y3182823D01*
X12548920Y3173679D01*
X12539776Y3163265D01*
X12532106Y3151784D01*
X12525959Y3139338D01*
X12521539Y3126232D01*
X12518796Y3112668D01*
X12517882Y3098850D01*
X12518796Y3084982D01*
X12521539Y3071418D01*
X12525959Y3058312D01*
X12532106Y3045866D01*
X12539776Y3034385D01*
X12548920Y3023971D01*
X12559334Y3014827D01*
X12570866Y3007106D01*
X12583261Y3001010D01*
X12596368Y2996539D01*
X12609982Y2993847D01*
G37*
G36*
X10342219Y3003854D02*
G01*
X10342219Y3052470D01*
X10293654Y3052470D01*
X10296906Y3045866D01*
X10304576Y3034385D01*
X10313720Y3023971D01*
X10324134Y3014827D01*
X10335666Y3007106D01*
G37*
G36*
X10434929Y3003854D02*
G01*
X10441533Y3007106D01*
X10453065Y3014827D01*
X10463479Y3023971D01*
X10472572Y3034385D01*
X10480294Y3045866D01*
X10483545Y3052470D01*
X10434929Y3052470D01*
G37*
G36*
X12162129Y3003854D02*
G01*
X12168733Y3007106D01*
X12180265Y3014827D01*
X12190679Y3023971D01*
X12199772Y3034385D01*
X12207494Y3045866D01*
X12210745Y3052470D01*
X12162129Y3052470D01*
G37*
G36*
X12069419Y3003854D02*
G01*
X12069419Y3052470D01*
X12020854Y3052470D01*
X12024106Y3045866D01*
X12031776Y3034385D01*
X12040920Y3023971D01*
X12051334Y3014827D01*
X12062866Y3007106D01*
G37*
G36*
X12162129Y3145180D02*
G01*
X12210745Y3145180D01*
X12207494Y3151784D01*
X12199772Y3163265D01*
X12190679Y3173679D01*
X12180265Y3182823D01*
X12168733Y3190544D01*
X12162129Y3193796D01*
G37*
G36*
X12020854Y3145180D02*
G01*
X12069419Y3145180D01*
X12069419Y3193796D01*
X12062866Y3190544D01*
X12051334Y3182823D01*
X12040920Y3173679D01*
X12031776Y3163265D01*
X12024106Y3151784D01*
G37*
G36*
X10293654Y3145180D02*
G01*
X10342219Y3145180D01*
X10342219Y3193796D01*
X10335666Y3190544D01*
X10324134Y3182823D01*
X10313720Y3173679D01*
X10304576Y3163265D01*
X10296906Y3151784D01*
G37*
G36*
X10434929Y3145180D02*
G01*
X10483545Y3145180D01*
X10480294Y3151784D01*
X10472572Y3163265D01*
X10463479Y3173679D01*
X10453065Y3182823D01*
X10441533Y3190544D01*
X10434929Y3193796D01*
G37*
G36*
X7044944Y3711854D02*
G01*
X7059117Y3712311D01*
X7073138Y3714597D01*
X7086803Y3718610D01*
X7099757Y3724401D01*
X7111949Y3731768D01*
X7123023Y3740607D01*
X7132929Y3750818D01*
X7141413Y3762197D01*
X7148372Y3774592D01*
X7153706Y3787749D01*
X7157313Y3801516D01*
X7159142Y3815587D01*
X7159142Y3829812D01*
X7157313Y3843883D01*
X7153706Y3857650D01*
X7148372Y3870807D01*
X7141413Y3883202D01*
X7132929Y3894582D01*
X7123023Y3904792D01*
X7111949Y3913632D01*
X7099757Y3920998D01*
X7086803Y3926738D01*
X7073138Y3930802D01*
X7059117Y3933088D01*
X7044944Y3933545D01*
X7030770Y3932174D01*
X7016953Y3929024D01*
X7003592Y3924096D01*
X6990994Y3917543D01*
X6979361Y3909415D01*
X6968845Y3899865D01*
X6959600Y3889044D01*
X6951878Y3877106D01*
X6945680Y3864305D01*
X6941210Y3850843D01*
X6938518Y3836873D01*
X6937603Y3822700D01*
X6938518Y3808526D01*
X6941210Y3794556D01*
X6945680Y3781094D01*
X6951878Y3768293D01*
X6959600Y3756355D01*
X6968845Y3745534D01*
X6979361Y3735984D01*
X6990994Y3727856D01*
X7003592Y3721303D01*
X7016953Y3716375D01*
X7030770Y3713226D01*
G37*
G36*
X7806944Y3711854D02*
G01*
X7821117Y3712311D01*
X7835138Y3714597D01*
X7848803Y3718610D01*
X7861757Y3724401D01*
X7873949Y3731768D01*
X7885023Y3740607D01*
X7894929Y3750818D01*
X7903413Y3762197D01*
X7910372Y3774592D01*
X7915706Y3787749D01*
X7919313Y3801516D01*
X7921142Y3815587D01*
X7921142Y3829812D01*
X7919313Y3843883D01*
X7915706Y3857650D01*
X7910372Y3870807D01*
X7903413Y3883202D01*
X7894929Y3894582D01*
X7885023Y3904792D01*
X7873949Y3913632D01*
X7861757Y3920998D01*
X7848803Y3926738D01*
X7835138Y3930802D01*
X7821117Y3933088D01*
X7806944Y3933545D01*
X7792770Y3932174D01*
X7778953Y3929024D01*
X7765592Y3924096D01*
X7752994Y3917543D01*
X7741361Y3909415D01*
X7730845Y3899865D01*
X7721600Y3889044D01*
X7713878Y3877106D01*
X7707680Y3864305D01*
X7703210Y3850843D01*
X7700518Y3836873D01*
X7699603Y3822700D01*
X7700518Y3808526D01*
X7703210Y3794556D01*
X7707680Y3781094D01*
X7713878Y3768293D01*
X7721600Y3756355D01*
X7730845Y3745534D01*
X7741361Y3735984D01*
X7752994Y3727856D01*
X7765592Y3721303D01*
X7778953Y3716375D01*
X7792770Y3713226D01*
G37*
G36*
X6790944Y3711854D02*
G01*
X6805117Y3712311D01*
X6819138Y3714597D01*
X6832803Y3718610D01*
X6845757Y3724401D01*
X6857949Y3731768D01*
X6869023Y3740607D01*
X6878929Y3750818D01*
X6887413Y3762197D01*
X6894372Y3774592D01*
X6899706Y3787749D01*
X6903313Y3801516D01*
X6905142Y3815587D01*
X6905142Y3829812D01*
X6903313Y3843883D01*
X6899706Y3857650D01*
X6894372Y3870807D01*
X6887413Y3883202D01*
X6878929Y3894582D01*
X6869023Y3904792D01*
X6857949Y3913632D01*
X6845757Y3920998D01*
X6832803Y3926738D01*
X6819138Y3930802D01*
X6805117Y3933088D01*
X6790944Y3933545D01*
X6776770Y3932174D01*
X6762953Y3929024D01*
X6749592Y3924096D01*
X6736994Y3917543D01*
X6725361Y3909415D01*
X6714845Y3899865D01*
X6705600Y3889044D01*
X6697878Y3877106D01*
X6691680Y3864305D01*
X6687210Y3850843D01*
X6684518Y3836873D01*
X6683603Y3822700D01*
X6684518Y3808526D01*
X6687210Y3794556D01*
X6691680Y3781094D01*
X6697878Y3768293D01*
X6705600Y3756355D01*
X6714845Y3745534D01*
X6725361Y3735984D01*
X6736994Y3727856D01*
X6749592Y3721303D01*
X6762953Y3716375D01*
X6776770Y3713226D01*
G37*
G36*
X5266944Y3711854D02*
G01*
X5281117Y3712311D01*
X5295138Y3714597D01*
X5308803Y3718610D01*
X5321757Y3724401D01*
X5333949Y3731768D01*
X5345023Y3740607D01*
X5354929Y3750818D01*
X5363413Y3762197D01*
X5370372Y3774592D01*
X5375706Y3787749D01*
X5379313Y3801516D01*
X5381142Y3815587D01*
X5381142Y3829812D01*
X5379313Y3843883D01*
X5375706Y3857650D01*
X5370372Y3870807D01*
X5363413Y3883202D01*
X5354929Y3894582D01*
X5345023Y3904792D01*
X5333949Y3913632D01*
X5321757Y3920998D01*
X5308803Y3926738D01*
X5295138Y3930802D01*
X5281117Y3933088D01*
X5266944Y3933545D01*
X5252770Y3932174D01*
X5238953Y3929024D01*
X5225592Y3924096D01*
X5212994Y3917543D01*
X5201361Y3909415D01*
X5190845Y3899865D01*
X5181600Y3889044D01*
X5173878Y3877106D01*
X5167680Y3864305D01*
X5163210Y3850843D01*
X5160518Y3836873D01*
X5159603Y3822700D01*
X5160518Y3808526D01*
X5163210Y3794556D01*
X5167680Y3781094D01*
X5173878Y3768293D01*
X5181600Y3756355D01*
X5190845Y3745534D01*
X5201361Y3735984D01*
X5212994Y3727856D01*
X5225592Y3721303D01*
X5238953Y3716375D01*
X5252770Y3713226D01*
G37*
G36*
X6282944Y3711854D02*
G01*
X6297117Y3712311D01*
X6311138Y3714597D01*
X6324803Y3718610D01*
X6337757Y3724401D01*
X6349949Y3731768D01*
X6361023Y3740607D01*
X6370929Y3750818D01*
X6379413Y3762197D01*
X6386372Y3774592D01*
X6391706Y3787749D01*
X6395313Y3801516D01*
X6397142Y3815587D01*
X6397142Y3829812D01*
X6395313Y3843883D01*
X6391706Y3857650D01*
X6386372Y3870807D01*
X6379413Y3883202D01*
X6370929Y3894582D01*
X6361023Y3904792D01*
X6349949Y3913632D01*
X6337757Y3920998D01*
X6324803Y3926738D01*
X6311138Y3930802D01*
X6297117Y3933088D01*
X6282944Y3933545D01*
X6268770Y3932174D01*
X6254953Y3929024D01*
X6241592Y3924096D01*
X6228994Y3917543D01*
X6217361Y3909415D01*
X6206845Y3899865D01*
X6197600Y3889044D01*
X6189878Y3877106D01*
X6183680Y3864305D01*
X6179210Y3850843D01*
X6176518Y3836873D01*
X6175603Y3822700D01*
X6176518Y3808526D01*
X6179210Y3794556D01*
X6183680Y3781094D01*
X6189878Y3768293D01*
X6197600Y3756355D01*
X6206845Y3745534D01*
X6217361Y3735984D01*
X6228994Y3727856D01*
X6241592Y3721303D01*
X6254953Y3716375D01*
X6268770Y3713226D01*
G37*
G36*
X3488944Y3711854D02*
G01*
X3503117Y3712311D01*
X3517137Y3714597D01*
X3530803Y3718610D01*
X3543757Y3724401D01*
X3555949Y3731768D01*
X3567023Y3740607D01*
X3576929Y3750818D01*
X3585413Y3762197D01*
X3592372Y3774592D01*
X3597706Y3787749D01*
X3601313Y3801516D01*
X3603142Y3815587D01*
X3603142Y3829812D01*
X3601313Y3843883D01*
X3597706Y3857650D01*
X3592372Y3870807D01*
X3585413Y3883202D01*
X3576929Y3894582D01*
X3567023Y3904792D01*
X3555949Y3913632D01*
X3543757Y3920998D01*
X3530803Y3926738D01*
X3517137Y3930802D01*
X3503117Y3933088D01*
X3488944Y3933545D01*
X3474770Y3932174D01*
X3460953Y3929024D01*
X3447592Y3924096D01*
X3434994Y3917543D01*
X3423361Y3909415D01*
X3412845Y3899865D01*
X3403600Y3889044D01*
X3395878Y3877106D01*
X3389680Y3864305D01*
X3385210Y3850843D01*
X3382518Y3836873D01*
X3381603Y3822700D01*
X3382518Y3808526D01*
X3385210Y3794556D01*
X3389680Y3781094D01*
X3395878Y3768293D01*
X3403600Y3756355D01*
X3412845Y3745534D01*
X3423361Y3735984D01*
X3434994Y3727856D01*
X3447592Y3721303D01*
X3460953Y3716375D01*
X3474770Y3713226D01*
G37*
G36*
X5520944Y3711854D02*
G01*
X5535117Y3712311D01*
X5549138Y3714597D01*
X5562803Y3718610D01*
X5575757Y3724401D01*
X5587949Y3731768D01*
X5599023Y3740607D01*
X5608929Y3750818D01*
X5617413Y3762197D01*
X5624372Y3774592D01*
X5629706Y3787749D01*
X5633313Y3801516D01*
X5635142Y3815587D01*
X5635142Y3829812D01*
X5633313Y3843883D01*
X5629706Y3857650D01*
X5624372Y3870807D01*
X5617413Y3883202D01*
X5608929Y3894582D01*
X5599023Y3904792D01*
X5587949Y3913632D01*
X5575757Y3920998D01*
X5562803Y3926738D01*
X5549138Y3930802D01*
X5535117Y3933088D01*
X5520944Y3933545D01*
X5506770Y3932174D01*
X5492953Y3929024D01*
X5479592Y3924096D01*
X5466994Y3917543D01*
X5455361Y3909415D01*
X5444845Y3899865D01*
X5435600Y3889044D01*
X5427878Y3877106D01*
X5421680Y3864305D01*
X5417210Y3850843D01*
X5414518Y3836873D01*
X5413603Y3822700D01*
X5414518Y3808526D01*
X5417210Y3794556D01*
X5421680Y3781094D01*
X5427878Y3768293D01*
X5435600Y3756355D01*
X5444845Y3745534D01*
X5455361Y3735984D01*
X5466994Y3727856D01*
X5479592Y3721303D01*
X5492953Y3716375D01*
X5506770Y3713226D01*
G37*
G36*
X7552944Y3711854D02*
G01*
X7567117Y3712311D01*
X7581138Y3714597D01*
X7594803Y3718610D01*
X7607757Y3724401D01*
X7619949Y3731768D01*
X7631023Y3740607D01*
X7640929Y3750818D01*
X7649413Y3762197D01*
X7656372Y3774592D01*
X7661706Y3787749D01*
X7665313Y3801516D01*
X7667142Y3815587D01*
X7667142Y3829812D01*
X7665313Y3843883D01*
X7661706Y3857650D01*
X7656372Y3870807D01*
X7649413Y3883202D01*
X7640929Y3894582D01*
X7631023Y3904792D01*
X7619949Y3913632D01*
X7607757Y3920998D01*
X7594803Y3926738D01*
X7581138Y3930802D01*
X7567117Y3933088D01*
X7552944Y3933545D01*
X7538770Y3932174D01*
X7524953Y3929024D01*
X7511592Y3924096D01*
X7498994Y3917543D01*
X7487361Y3909415D01*
X7476845Y3899865D01*
X7467600Y3889044D01*
X7459878Y3877106D01*
X7453680Y3864305D01*
X7449210Y3850843D01*
X7446518Y3836873D01*
X7445603Y3822700D01*
X7446518Y3808526D01*
X7449210Y3794556D01*
X7453680Y3781094D01*
X7459878Y3768293D01*
X7467600Y3756355D01*
X7476845Y3745534D01*
X7487361Y3735984D01*
X7498994Y3727856D01*
X7511592Y3721303D01*
X7524953Y3716375D01*
X7538770Y3713226D01*
G37*
G36*
X7298944Y3711854D02*
G01*
X7313117Y3712311D01*
X7327138Y3714597D01*
X7340803Y3718610D01*
X7353757Y3724401D01*
X7365949Y3731768D01*
X7377023Y3740607D01*
X7386929Y3750818D01*
X7395413Y3762197D01*
X7402372Y3774592D01*
X7407706Y3787749D01*
X7411313Y3801516D01*
X7413142Y3815587D01*
X7413142Y3829812D01*
X7411313Y3843883D01*
X7407706Y3857650D01*
X7402372Y3870807D01*
X7395413Y3883202D01*
X7386929Y3894582D01*
X7377023Y3904792D01*
X7365949Y3913632D01*
X7353757Y3920998D01*
X7340803Y3926738D01*
X7327138Y3930802D01*
X7313117Y3933088D01*
X7298944Y3933545D01*
X7284770Y3932174D01*
X7270953Y3929024D01*
X7257592Y3924096D01*
X7244994Y3917543D01*
X7233361Y3909415D01*
X7222845Y3899865D01*
X7213600Y3889044D01*
X7205878Y3877106D01*
X7199680Y3864305D01*
X7195210Y3850843D01*
X7192518Y3836873D01*
X7191603Y3822700D01*
X7192518Y3808526D01*
X7195210Y3794556D01*
X7199680Y3781094D01*
X7205878Y3768293D01*
X7213600Y3756355D01*
X7222845Y3745534D01*
X7233361Y3735984D01*
X7244994Y3727856D01*
X7257592Y3721303D01*
X7270953Y3716375D01*
X7284770Y3713226D01*
G37*
G36*
X6589318Y3723284D02*
G01*
X6591757Y3724401D01*
X6603949Y3731768D01*
X6615023Y3740607D01*
X6624929Y3750818D01*
X6633413Y3762197D01*
X6639966Y3773830D01*
X6589318Y3773830D01*
G37*
G36*
X6491630Y3723386D02*
G01*
X6491630Y3773830D01*
X6441186Y3773830D01*
X6443878Y3768293D01*
X6451600Y3756355D01*
X6460845Y3745534D01*
X6471361Y3735984D01*
X6482994Y3727856D01*
G37*
G36*
X6441186Y3871569D02*
G01*
X6491630Y3871569D01*
X6491630Y3922014D01*
X6482994Y3917543D01*
X6471361Y3909415D01*
X6460845Y3899865D01*
X6451600Y3889044D01*
X6443878Y3877106D01*
G37*
G36*
X6589318Y3871569D02*
G01*
X6639966Y3871569D01*
X6633413Y3883202D01*
X6624929Y3894582D01*
X6615023Y3904792D01*
X6603949Y3913632D01*
X6591757Y3920998D01*
X6589318Y3922115D01*
G37*
G36*
X3287369Y6251803D02*
G01*
X3322929Y6251803D01*
X3329279Y6252514D01*
X3334715Y6254394D01*
X3339642Y6257493D01*
X3343706Y6261608D01*
X3346805Y6266484D01*
X3348685Y6271971D01*
X3349396Y6278270D01*
X3349396Y6313830D01*
X3287369Y6313830D01*
G37*
G36*
X3154070Y6251803D02*
G01*
X3189681Y6251803D01*
X3189681Y6313830D01*
X3127603Y6313830D01*
X3127603Y6278270D01*
X3128314Y6271971D01*
X3130245Y6266484D01*
X3133293Y6261608D01*
X3137408Y6257493D01*
X3142284Y6254394D01*
X3147771Y6252514D01*
G37*
G36*
X6282944Y6251854D02*
G01*
X6297117Y6252311D01*
X6311138Y6254597D01*
X6324803Y6258610D01*
X6337757Y6264402D01*
X6349949Y6271768D01*
X6361023Y6280607D01*
X6370929Y6290818D01*
X6379413Y6302197D01*
X6386372Y6314592D01*
X6391706Y6327749D01*
X6395313Y6341516D01*
X6397142Y6355588D01*
X6397142Y6369812D01*
X6395313Y6383883D01*
X6391706Y6397650D01*
X6386372Y6410807D01*
X6379413Y6423202D01*
X6370929Y6434582D01*
X6361023Y6444792D01*
X6349949Y6453632D01*
X6337757Y6460998D01*
X6324803Y6466738D01*
X6311138Y6470802D01*
X6297117Y6473088D01*
X6282944Y6473545D01*
X6268770Y6472174D01*
X6254953Y6469024D01*
X6241592Y6464096D01*
X6228994Y6457543D01*
X6217361Y6449415D01*
X6206845Y6439865D01*
X6197600Y6429044D01*
X6189878Y6417106D01*
X6183680Y6404305D01*
X6179210Y6390843D01*
X6176518Y6376873D01*
X6175603Y6362700D01*
X6176518Y6348526D01*
X6179210Y6334556D01*
X6183680Y6321094D01*
X6189878Y6308293D01*
X6197600Y6296355D01*
X6206845Y6285534D01*
X6217361Y6275984D01*
X6228994Y6267856D01*
X6241592Y6261303D01*
X6254953Y6256375D01*
X6268770Y6253226D01*
G37*
G36*
X4504944Y6251854D02*
G01*
X4519117Y6252311D01*
X4533138Y6254597D01*
X4546803Y6258610D01*
X4559757Y6264402D01*
X4571949Y6271768D01*
X4583023Y6280607D01*
X4592929Y6290818D01*
X4601413Y6302197D01*
X4608372Y6314592D01*
X4613706Y6327749D01*
X4617313Y6341516D01*
X4619142Y6355588D01*
X4619142Y6369812D01*
X4617313Y6383883D01*
X4613706Y6397650D01*
X4608372Y6410807D01*
X4601413Y6423202D01*
X4592929Y6434582D01*
X4583023Y6444792D01*
X4571949Y6453632D01*
X4559757Y6460998D01*
X4546803Y6466738D01*
X4533138Y6470802D01*
X4519117Y6473088D01*
X4504944Y6473545D01*
X4490770Y6472174D01*
X4476953Y6469024D01*
X4463592Y6464096D01*
X4450994Y6457543D01*
X4439361Y6449415D01*
X4428845Y6439865D01*
X4419600Y6429044D01*
X4411878Y6417106D01*
X4405680Y6404305D01*
X4401210Y6390843D01*
X4398518Y6376873D01*
X4397603Y6362700D01*
X4398518Y6348526D01*
X4401210Y6334556D01*
X4405680Y6321094D01*
X4411878Y6308293D01*
X4419600Y6296355D01*
X4428845Y6285534D01*
X4439361Y6275984D01*
X4450994Y6267856D01*
X4463592Y6261303D01*
X4476953Y6256375D01*
X4490770Y6253226D01*
G37*
G36*
X4250944Y6251854D02*
G01*
X4265117Y6252311D01*
X4279138Y6254597D01*
X4292803Y6258610D01*
X4305757Y6264402D01*
X4317949Y6271768D01*
X4329023Y6280607D01*
X4338929Y6290818D01*
X4347413Y6302197D01*
X4354372Y6314592D01*
X4359706Y6327749D01*
X4363313Y6341516D01*
X4365142Y6355588D01*
X4365142Y6369812D01*
X4363313Y6383883D01*
X4359706Y6397650D01*
X4354372Y6410807D01*
X4347413Y6423202D01*
X4338929Y6434582D01*
X4329023Y6444792D01*
X4317949Y6453632D01*
X4305757Y6460998D01*
X4292803Y6466738D01*
X4279138Y6470802D01*
X4265117Y6473088D01*
X4250944Y6473545D01*
X4236770Y6472174D01*
X4222953Y6469024D01*
X4209592Y6464096D01*
X4196994Y6457543D01*
X4185361Y6449415D01*
X4174845Y6439865D01*
X4165600Y6429044D01*
X4157878Y6417106D01*
X4151680Y6404305D01*
X4147210Y6390843D01*
X4144518Y6376873D01*
X4143603Y6362700D01*
X4144518Y6348526D01*
X4147210Y6334556D01*
X4151680Y6321094D01*
X4157878Y6308293D01*
X4165600Y6296355D01*
X4174845Y6285534D01*
X4185361Y6275984D01*
X4196994Y6267856D01*
X4209592Y6261303D01*
X4222953Y6256375D01*
X4236770Y6253226D01*
G37*
G36*
X3996944Y6251854D02*
G01*
X4011117Y6252311D01*
X4025137Y6254597D01*
X4038803Y6258610D01*
X4051757Y6264402D01*
X4063949Y6271768D01*
X4075023Y6280607D01*
X4084929Y6290818D01*
X4093413Y6302197D01*
X4100372Y6314592D01*
X4105706Y6327749D01*
X4109313Y6341516D01*
X4111142Y6355588D01*
X4111142Y6369812D01*
X4109313Y6383883D01*
X4105706Y6397650D01*
X4100372Y6410807D01*
X4093413Y6423202D01*
X4084929Y6434582D01*
X4075023Y6444792D01*
X4063949Y6453632D01*
X4051757Y6460998D01*
X4038803Y6466738D01*
X4025137Y6470802D01*
X4011117Y6473088D01*
X3996944Y6473545D01*
X3982770Y6472174D01*
X3968953Y6469024D01*
X3955592Y6464096D01*
X3942994Y6457543D01*
X3931361Y6449415D01*
X3920845Y6439865D01*
X3911600Y6429044D01*
X3903878Y6417106D01*
X3897680Y6404305D01*
X3893210Y6390843D01*
X3890518Y6376873D01*
X3889603Y6362700D01*
X3890518Y6348526D01*
X3893210Y6334556D01*
X3897680Y6321094D01*
X3903878Y6308293D01*
X3911600Y6296355D01*
X3920845Y6285534D01*
X3931361Y6275984D01*
X3942994Y6267856D01*
X3955592Y6261303D01*
X3968953Y6256375D01*
X3982770Y6253226D01*
G37*
G36*
X7806944Y6251854D02*
G01*
X7821117Y6252311D01*
X7835138Y6254597D01*
X7848803Y6258610D01*
X7861757Y6264402D01*
X7873949Y6271768D01*
X7885023Y6280607D01*
X7894929Y6290818D01*
X7903413Y6302197D01*
X7910372Y6314592D01*
X7915706Y6327749D01*
X7919313Y6341516D01*
X7921142Y6355588D01*
X7921142Y6369812D01*
X7919313Y6383883D01*
X7915706Y6397650D01*
X7910372Y6410807D01*
X7903413Y6423202D01*
X7894929Y6434582D01*
X7885023Y6444792D01*
X7873949Y6453632D01*
X7861757Y6460998D01*
X7848803Y6466738D01*
X7835138Y6470802D01*
X7821117Y6473088D01*
X7806944Y6473545D01*
X7792770Y6472174D01*
X7778953Y6469024D01*
X7765592Y6464096D01*
X7752994Y6457543D01*
X7741361Y6449415D01*
X7730845Y6439865D01*
X7721600Y6429044D01*
X7713878Y6417106D01*
X7707680Y6404305D01*
X7703210Y6390843D01*
X7700518Y6376873D01*
X7699603Y6362700D01*
X7700518Y6348526D01*
X7703210Y6334556D01*
X7707680Y6321094D01*
X7713878Y6308293D01*
X7721600Y6296355D01*
X7730845Y6285534D01*
X7741361Y6275984D01*
X7752994Y6267856D01*
X7765592Y6261303D01*
X7778953Y6256375D01*
X7792770Y6253226D01*
G37*
G36*
X5520944Y6251854D02*
G01*
X5535117Y6252311D01*
X5549138Y6254597D01*
X5562803Y6258610D01*
X5575757Y6264402D01*
X5587949Y6271768D01*
X5599023Y6280607D01*
X5608929Y6290818D01*
X5617413Y6302197D01*
X5624372Y6314592D01*
X5629706Y6327749D01*
X5633313Y6341516D01*
X5635142Y6355588D01*
X5635142Y6369812D01*
X5633313Y6383883D01*
X5629706Y6397650D01*
X5624372Y6410807D01*
X5617413Y6423202D01*
X5608929Y6434582D01*
X5599023Y6444792D01*
X5587949Y6453632D01*
X5575757Y6460998D01*
X5562803Y6466738D01*
X5549138Y6470802D01*
X5535117Y6473088D01*
X5520944Y6473545D01*
X5506770Y6472174D01*
X5492953Y6469024D01*
X5479592Y6464096D01*
X5466994Y6457543D01*
X5455361Y6449415D01*
X5444845Y6439865D01*
X5435600Y6429044D01*
X5427878Y6417106D01*
X5421680Y6404305D01*
X5417210Y6390843D01*
X5414518Y6376873D01*
X5413603Y6362700D01*
X5414518Y6348526D01*
X5417210Y6334556D01*
X5421680Y6321094D01*
X5427878Y6308293D01*
X5435600Y6296355D01*
X5444845Y6285534D01*
X5455361Y6275984D01*
X5466994Y6267856D01*
X5479592Y6261303D01*
X5492953Y6256375D01*
X5506770Y6253226D01*
G37*
G36*
X7298944Y6251854D02*
G01*
X7313117Y6252311D01*
X7327138Y6254597D01*
X7340803Y6258610D01*
X7353757Y6264402D01*
X7365949Y6271768D01*
X7377023Y6280607D01*
X7386929Y6290818D01*
X7395413Y6302197D01*
X7402372Y6314592D01*
X7407706Y6327749D01*
X7411313Y6341516D01*
X7413142Y6355588D01*
X7413142Y6369812D01*
X7411313Y6383883D01*
X7407706Y6397650D01*
X7402372Y6410807D01*
X7395413Y6423202D01*
X7386929Y6434582D01*
X7377023Y6444792D01*
X7365949Y6453632D01*
X7353757Y6460998D01*
X7340803Y6466738D01*
X7327138Y6470802D01*
X7313117Y6473088D01*
X7298944Y6473545D01*
X7284770Y6472174D01*
X7270953Y6469024D01*
X7257592Y6464096D01*
X7244994Y6457543D01*
X7233361Y6449415D01*
X7222845Y6439865D01*
X7213600Y6429044D01*
X7205878Y6417106D01*
X7199680Y6404305D01*
X7195210Y6390843D01*
X7192518Y6376873D01*
X7191603Y6362700D01*
X7192518Y6348526D01*
X7195210Y6334556D01*
X7199680Y6321094D01*
X7205878Y6308293D01*
X7213600Y6296355D01*
X7222845Y6285534D01*
X7233361Y6275984D01*
X7244994Y6267856D01*
X7257592Y6261303D01*
X7270953Y6256375D01*
X7284770Y6253226D01*
G37*
G36*
X5012944Y6251854D02*
G01*
X5027117Y6252311D01*
X5041138Y6254597D01*
X5054803Y6258610D01*
X5067757Y6264402D01*
X5079949Y6271768D01*
X5091023Y6280607D01*
X5100929Y6290818D01*
X5109413Y6302197D01*
X5116372Y6314592D01*
X5121706Y6327749D01*
X5125313Y6341516D01*
X5127142Y6355588D01*
X5127142Y6369812D01*
X5125313Y6383883D01*
X5121706Y6397650D01*
X5116372Y6410807D01*
X5109413Y6423202D01*
X5100929Y6434582D01*
X5091023Y6444792D01*
X5079949Y6453632D01*
X5067757Y6460998D01*
X5054803Y6466738D01*
X5041138Y6470802D01*
X5027117Y6473088D01*
X5012944Y6473545D01*
X4998770Y6472174D01*
X4984953Y6469024D01*
X4971592Y6464096D01*
X4958994Y6457543D01*
X4947361Y6449415D01*
X4936845Y6439865D01*
X4927600Y6429044D01*
X4919878Y6417106D01*
X4913680Y6404305D01*
X4909210Y6390843D01*
X4906518Y6376873D01*
X4905603Y6362700D01*
X4906518Y6348526D01*
X4909210Y6334556D01*
X4913680Y6321094D01*
X4919878Y6308293D01*
X4927600Y6296355D01*
X4936845Y6285534D01*
X4947361Y6275984D01*
X4958994Y6267856D01*
X4971592Y6261303D01*
X4984953Y6256375D01*
X4998770Y6253226D01*
G37*
G36*
X7552944Y6251854D02*
G01*
X7567117Y6252311D01*
X7581138Y6254597D01*
X7594803Y6258610D01*
X7607757Y6264402D01*
X7619949Y6271768D01*
X7631023Y6280607D01*
X7640929Y6290818D01*
X7649413Y6302197D01*
X7656372Y6314592D01*
X7661706Y6327749D01*
X7665313Y6341516D01*
X7667142Y6355588D01*
X7667142Y6369812D01*
X7665313Y6383883D01*
X7661706Y6397650D01*
X7656372Y6410807D01*
X7649413Y6423202D01*
X7640929Y6434582D01*
X7631023Y6444792D01*
X7619949Y6453632D01*
X7607757Y6460998D01*
X7594803Y6466738D01*
X7581138Y6470802D01*
X7567117Y6473088D01*
X7552944Y6473545D01*
X7538770Y6472174D01*
X7524953Y6469024D01*
X7511592Y6464096D01*
X7498994Y6457543D01*
X7487361Y6449415D01*
X7476845Y6439865D01*
X7467600Y6429044D01*
X7459878Y6417106D01*
X7453680Y6404305D01*
X7449210Y6390843D01*
X7446518Y6376873D01*
X7445603Y6362700D01*
X7446518Y6348526D01*
X7449210Y6334556D01*
X7453680Y6321094D01*
X7459878Y6308293D01*
X7467600Y6296355D01*
X7476845Y6285534D01*
X7487361Y6275984D01*
X7498994Y6267856D01*
X7511592Y6261303D01*
X7524953Y6256375D01*
X7538770Y6253226D01*
G37*
G36*
X6028944Y6251854D02*
G01*
X6043117Y6252311D01*
X6057138Y6254597D01*
X6070803Y6258610D01*
X6083757Y6264402D01*
X6095949Y6271768D01*
X6107023Y6280607D01*
X6116929Y6290818D01*
X6125413Y6302197D01*
X6132372Y6314592D01*
X6137706Y6327749D01*
X6141313Y6341516D01*
X6143142Y6355588D01*
X6143142Y6369812D01*
X6141313Y6383883D01*
X6137706Y6397650D01*
X6132372Y6410807D01*
X6125413Y6423202D01*
X6116929Y6434582D01*
X6107023Y6444792D01*
X6095949Y6453632D01*
X6083757Y6460998D01*
X6070803Y6466738D01*
X6057138Y6470802D01*
X6043117Y6473088D01*
X6028944Y6473545D01*
X6014770Y6472174D01*
X6000953Y6469024D01*
X5987592Y6464096D01*
X5974994Y6457543D01*
X5963361Y6449415D01*
X5952845Y6439865D01*
X5943600Y6429044D01*
X5935878Y6417106D01*
X5929680Y6404305D01*
X5925210Y6390843D01*
X5922518Y6376873D01*
X5921603Y6362700D01*
X5922518Y6348526D01*
X5925210Y6334556D01*
X5929680Y6321094D01*
X5935878Y6308293D01*
X5943600Y6296355D01*
X5952845Y6285534D01*
X5963361Y6275984D01*
X5974994Y6267856D01*
X5987592Y6261303D01*
X6000953Y6256375D01*
X6014770Y6253226D01*
G37*
G36*
X4811318Y6263284D02*
G01*
X4813757Y6264402D01*
X4825949Y6271768D01*
X4837023Y6280607D01*
X4846929Y6290818D01*
X4855413Y6302197D01*
X4861966Y6313830D01*
X4811318Y6313830D01*
G37*
G36*
X4713630Y6263386D02*
G01*
X4713630Y6313830D01*
X4663186Y6313830D01*
X4665878Y6308293D01*
X4673600Y6296355D01*
X4682845Y6285534D01*
X4693361Y6275984D01*
X4704994Y6267856D01*
G37*
G36*
X4663186Y6411569D02*
G01*
X4713630Y6411569D01*
X4713630Y6462014D01*
X4704994Y6457543D01*
X4693361Y6449415D01*
X4682845Y6439865D01*
X4673600Y6429044D01*
X4665878Y6417106D01*
G37*
G36*
X4811318Y6411569D02*
G01*
X4861966Y6411569D01*
X4855413Y6423202D01*
X4846929Y6434582D01*
X4837023Y6444792D01*
X4825949Y6453632D01*
X4813757Y6460998D01*
X4811318Y6462115D01*
G37*
G36*
X3127603Y6411569D02*
G01*
X3189681Y6411569D01*
X3189681Y6473596D01*
X3154070Y6473596D01*
X3147771Y6472885D01*
X3142284Y6471005D01*
X3137408Y6467906D01*
X3133293Y6463792D01*
X3130245Y6458915D01*
X3128314Y6453428D01*
X3127603Y6447129D01*
G37*
G36*
X3287369Y6411569D02*
G01*
X3349396Y6411569D01*
X3349396Y6447129D01*
X3348685Y6453428D01*
X3346805Y6458915D01*
X3343706Y6463792D01*
X3339642Y6467906D01*
X3334715Y6471005D01*
X3329279Y6472885D01*
X3322929Y6473596D01*
X3287369Y6473596D01*
G37*

%LPD*%
D10*
X3238500Y3822700D02*
G01*
X3238500Y3530600D01*
X3390900Y3378200D01*
X4152900Y3378200D01*
X4864100Y2667000D01*
X4864100Y1890521D01*
X5090922Y1663700D01*
X6273800Y1790700D02*
G01*
X6400800Y1663700D01*
X7721600Y1663700D01*
X7848600Y1790700D01*
X7848600Y2327579D01*
X7845094Y2331085D01*
D11*
X7048474Y6362700D02*
G01*
X7048474Y6172225D01*
X7175500Y6045200D01*
X12547600Y6045200D01*
X13093700Y5499100D01*
X13093700Y2908300D01*
X12827000Y2641600D01*
X12319000Y2641600D01*
X12242800Y2717800D01*
X12242800Y2844800D01*
X6794500Y6362700D02*
G01*
X6794500Y6121400D01*
X7010400Y5905500D01*
X12319000Y5905500D01*
X12877800Y5346700D01*
X12877800Y2997200D01*
X12712700Y2832100D01*
X12509500Y2832100D01*
X12496800Y2844800D01*
X6540500Y6362700D02*
G01*
X6540500Y6070600D01*
X6858000Y5753100D01*
X12192000Y5753100D01*
X12611100Y5334000D01*
X12611100Y3111500D01*
X12623800Y3098800D01*
X3746500Y3822700D02*
G01*
X3746500Y4406900D01*
X3987800Y4648200D01*
X10769600Y4648200D01*
X11188700Y4229100D01*
X11188700Y2743200D01*
X11036300Y2590800D01*
X10617200Y2590800D01*
X10515600Y2692400D01*
X10515600Y2844800D01*
X4000500Y3822700D02*
G01*
X4000500Y4330700D01*
X4178300Y4508500D01*
X10706100Y4508500D01*
X11061700Y4152900D01*
X11061700Y2908300D01*
X10985500Y2832100D01*
X10782300Y2832100D01*
X10769600Y2844800D01*
D10*
X10287000Y1778000D02*
G01*
X10401300Y1663700D01*
X11887200Y1663700D01*
X11976100Y1752600D01*
X11976100Y2463800D01*
X11899900Y2540000D01*
X11798300Y2540000D01*
X11734800Y2603500D01*
X11734800Y2844800D01*
X7848600Y1790700D02*
G01*
X7975600Y1663700D01*
X10172700Y1663700D01*
X10287000Y1778000D01*
X10287000Y2463800D01*
X10210800Y2540000D01*
X10096500Y2540000D01*
X10007600Y2628900D01*
X10007600Y2844800D01*
D11*
X4508500Y3822700D02*
G01*
X4508500Y4013200D01*
X4648200Y4152900D01*
X10566400Y4152900D01*
X10668000Y4051300D01*
X10668000Y3124200D01*
X10642600Y3098800D01*
X4254500Y3822700D02*
G01*
X4254500Y4178300D01*
X4419600Y4343400D01*
X10629900Y4343400D01*
X10896600Y4076700D01*
X10896600Y3098800D01*
X4175099Y2509088D02*
G01*
X4175099Y2581300D01*
X4064000Y2692400D01*
X3289300Y2692400D01*
X2832100Y3149600D01*
X2832100Y4965700D01*
X3594100Y5727700D01*
X5511800Y5727700D01*
X5765800Y5981700D01*
X5765800Y6350025D01*
X5778474Y6362700D01*
X5270500Y6362700D02*
G01*
X5270500Y6007100D01*
X5092700Y5829300D01*
X3543300Y5829300D01*
X2692400Y4978400D01*
X2692400Y3136900D01*
X3314700Y2514600D01*
X3965702Y2514600D01*
X3971036Y2509012D01*
X2595118Y2509012D02*
G01*
X2595118Y5020818D01*
X3746500Y6172200D01*
X3746500Y6362700D01*
X3492500Y6362700D02*
G01*
X3492500Y6121400D01*
X2527300Y5156200D01*
X2527300Y2908300D01*
X2400300Y2781300D01*
X2400300Y2518410D01*
X2391156Y2509012D01*
X4762500Y3822700D02*
G01*
X4762500Y3543300D01*
X4940300Y3365500D01*
X5461000Y3365500D01*
X5651500Y3175000D01*
X5651500Y2806700D01*
X5549900Y2705100D01*
X5551170Y2509012D01*
X5016474Y3822700D02*
G01*
X5016474Y3606825D01*
X5118100Y3505200D01*
X5549900Y3505200D01*
X5778500Y3276600D01*
X5778500Y2532481D01*
X5755106Y2509088D01*
X6032474Y3822700D02*
G01*
X6032474Y3060725D01*
X6413500Y2679700D01*
X7251700Y2679700D01*
X7327900Y2603500D01*
X7327900Y2516276D01*
X7335088Y2509088D01*
X5778474Y3822700D02*
G01*
X5778474Y3632225D01*
X5905500Y3505200D01*
X5905500Y3060700D01*
X6451600Y2514600D01*
X7125588Y2514600D01*
X7131100Y2509088D01*
D10*
X4864100Y1890613D02*
G01*
X4864100Y1866900D01*
X4660900Y1663700D01*
X3340100Y1663700D01*
X3098800Y1905000D01*
X3098800Y2324785D01*
X3105099Y2331085D01*
X4685106Y2331085D02*
G01*
X4864100Y2331085D01*
X4864100Y1890613D02*
G01*
X5091013Y1663700D01*
X6146800Y1663700D01*
X6273800Y1790700D01*
X6273800Y2322372D01*
X6265087Y2331085D01*
D12*
G01*
X9452736Y2666237D03*
D13*
G01*
X8987663Y2316226D03*
G01*
X8987663Y2916173D03*
D14*
G01*
X3492474Y6362700D03*
G01*
X3746474Y6362700D03*
G01*
X4000474Y6362700D03*
G01*
X4254474Y6362700D03*
G01*
X4508474Y6362700D03*
G01*
X4762474Y6362700D03*
G01*
X5016474Y6362700D03*
G01*
X5270474Y6362700D03*
G01*
X5524474Y6362700D03*
G01*
X5778474Y6362700D03*
G01*
X6032474Y6362700D03*
G01*
X6286474Y6362700D03*
G01*
X6540474Y6362700D03*
G01*
X6794474Y6362700D03*
G01*
X7048474Y6362700D03*
G01*
X3746474Y3822700D03*
G01*
X4000474Y3822700D03*
G01*
X4254474Y3822700D03*
G01*
X4508474Y3822700D03*
G01*
X4762474Y3822700D03*
G01*
X5016474Y3822700D03*
G01*
X5270474Y3822700D03*
G01*
X5524474Y3822700D03*
G01*
X5778474Y3822700D03*
G01*
X6032474Y3822700D03*
G01*
X6286474Y3822700D03*
G01*
X6540474Y3822700D03*
G01*
X6794474Y3822700D03*
G01*
X7048474Y3822700D03*
G01*
X3492474Y3822700D03*
G01*
X7302474Y6362700D03*
G01*
X7556474Y6362700D03*
D15*
G01*
X3238500Y6362674D03*
G01*
X3238500Y3822674D03*
D14*
G01*
X7302474Y3822700D03*
G01*
X7556474Y3822700D03*
G01*
X7810474Y6362700D03*
G01*
X7810474Y3822700D03*
D16*
G01*
X8174100Y2991078D03*
G01*
X7945094Y2991078D03*
G01*
X7031100Y2991078D03*
G01*
X6802094Y2991078D03*
G01*
X7131100Y2509088D03*
G01*
X7233107Y2331085D03*
G01*
X7335088Y2509088D03*
G01*
X7437094Y2331085D03*
G01*
X7539100Y2509088D03*
G01*
X7641107Y2331085D03*
G01*
X7743088Y2509088D03*
G01*
X7845094Y2331085D03*
G01*
X6594093Y2991078D03*
G01*
X6365087Y2991078D03*
G01*
X5451093Y2991078D03*
G01*
X5222113Y2991078D03*
G01*
X5551093Y2509088D03*
G01*
X5653100Y2331085D03*
G01*
X5755106Y2509088D03*
G01*
X5857087Y2331085D03*
G01*
X5959093Y2509088D03*
G01*
X6061100Y2331085D03*
G01*
X6163106Y2509088D03*
G01*
X6265087Y2331085D03*
G01*
X5014112Y2991078D03*
G01*
X4785106Y2991078D03*
G01*
X3871112Y2991078D03*
G01*
X3642106Y2991078D03*
G01*
X3971112Y2509088D03*
G01*
X4073093Y2331085D03*
G01*
X4175099Y2509088D03*
G01*
X4277106Y2331085D03*
G01*
X4379112Y2509088D03*
G01*
X4481093Y2331085D03*
G01*
X4583099Y2509088D03*
G01*
X4685106Y2331085D03*
G01*
X2062099Y2991078D03*
G01*
X2291105Y2991078D03*
G01*
X3205099Y2991078D03*
G01*
X3434105Y2991078D03*
G01*
X2391105Y2509088D03*
G01*
X2493111Y2331085D03*
G01*
X2595118Y2509088D03*
G01*
X2697099Y2331085D03*
G01*
X2799105Y2509088D03*
G01*
X2901111Y2331085D03*
G01*
X3003118Y2509088D03*
G01*
X3105099Y2331085D03*
D17*
G01*
X10896600Y3098800D03*
G01*
X10769600Y2844800D03*
G01*
X10642600Y3098800D03*
G01*
X10515600Y2844800D03*
G01*
X10388600Y3098800D03*
G01*
X10261574Y2844800D03*
G01*
X10134600Y3098800D03*
G01*
X10007600Y2844800D03*
G01*
X12623800Y3098800D03*
G01*
X12496800Y2844800D03*
G01*
X12369800Y3098800D03*
G01*
X12242800Y2844800D03*
G01*
X12115800Y3098800D03*
G01*
X11988800Y2844800D03*
G01*
X11861800Y3098800D03*
G01*
X11734800Y2844800D03*
D18*
G01*
X13296900Y6235700D03*
G01*
X1485900Y6235700D03*
G01*
X1485900Y1866900D03*
G01*
X13284200Y1866900D03*
M02*
